<svg
  xmlns="http://www.w3.org/2000/svg"
  xml:space="preserve"
  style="fill-rule: evenodd; clip-rule: evenodd; stroke-linejoin: round; stroke-miterlimit: 2"
  viewBox="0 0 130 52"
>
  <g transform="matrix(.71038 0 0 .6335 1.42 1.267)">
    <path d="M-2-2h183v82.083H-2z" style="fill: none" />
    <clipPath id="a">
      <path d="M-2-2h183v82.083H-2z" />
    </clipPath>
    <g clip-path="url(#a)">
      <path
        d="M188.978 28.872c0-6.343-2.336-12.426-6.495-16.912-4.158-4.485-9.798-7.005-15.678-7.005H33.192c-5.881 0-11.521 2.52-15.679 7.005-4.158 4.486-6.494 10.569-6.494 16.912V61.12c0 6.343 2.336 12.427 6.494 16.912 4.158 4.486 9.798 7.006 15.679 7.006h133.613c5.88 0 11.52-2.52 15.678-7.006 4.159-4.485 6.495-10.569 6.495-16.912V28.872Z"
        style="fill: #493176"
        transform="matrix(.98054 0 0 .98555 -12.805 -5.305)"
      />
      <path
        d="M143.435 17.625v54.743c0 3.789-3.117 6.906-6.906 6.906H63.468c-3.789 0-6.907-3.118-6.907-6.907V17.625c0-3.789 3.117-6.906 6.906-6.906h73.062c3.789 0 6.906 3.117 6.906 6.906Zm-43.433-5.478-.015.004h-.03a24.08 24.08 0 0 0-16.592 6.716 24.313 24.313 0 0 0-5.314 7.718c-.382-.291-.775-.579-1.157-.873-.109-2.536-1.466-5.046-3.658-6.312-3.322-1.92-8.168-.767-10.122 2.619a7.162 7.162 0 0 0-.888 2.797 7.127 7.127 0 0 0-1.976 2.162v.003c-1.958 3.387-.529 8.153 2.789 10.069l.007.004c2.193 1.266 5.042 1.183 7.291.011 1.96.802 3.901 1.651 5.82 2.547v.004c-.585.646-.756 1.64.567 2.971.087.361.181.72.284 1.077-.873 3.228-.518 6.508.389 9.373a136.475 136.475 0 0 1-7.056 3.126c-2.253-1.176-5.102-1.255-7.295.015-3.322 1.912-4.75 6.686-2.796 10.068a7.145 7.145 0 0 0 1.984 2.17c.101.98.403 1.93.888 2.789v.007c1.958 3.383 6.799 4.536 10.121 2.616 2.192-1.27 3.549-3.776 3.659-6.312a135.842 135.842 0 0 1 7.136-5.14c.372.16.753.298 1.141.416l.714 1.557c.873 1.901 1.871 2.464 2.801 3.016.933.555 1.927.945 3.046 1.266 1.124.318 2.27.554 3.428.707l2.188 3.779 2.721 4.725 2.733-4.725 2.185-3.791a24.097 24.097 0 0 0 3.352-.699c1.126-.321 2.116-.71 3.05-1.266.933-.552 1.927-1.111 2.797-3.016l.703-1.531c.385-.109.764-.242 1.134-.396a135.457 135.457 0 0 1 7.071 5.098c.109 2.532 1.463 5.042 3.651 6.308h.007c3.323 1.916 8.164.771 10.118-2.615l.008-.004a7.105 7.105 0 0 0 .884-2.793 7.157 7.157 0 0 0 1.984-2.17c1.954-3.39.525-8.163-2.797-10.076-2.192-1.266-5.041-1.19-7.294-.015a134.483 134.483 0 0 1-7.06-3.122c.907-2.872 1.262-6.153.389-9.384.231-.784.424-1.578.579-2.381.279-.34.287-.556.124-.756.054-.299.101-.599.144-.899a135.6 135.6 0 0 1 5.824-2.552c2.253 1.172 5.102 1.255 7.287-.011h.007c3.319-1.916 4.751-6.682 2.797-10.068v-.004a7.155 7.155 0 0 0-1.973-2.166 7.201 7.201 0 0 0-.892-2.796 7.462 7.462 0 0 0-6.115-3.629 7.596 7.596 0 0 0-4.006 1.009c-2.196 1.27-3.553 3.772-3.666 6.312-.378.295-.767.582-1.153.873a24.27 24.27 0 0 0-5.314-7.718 24.09 24.09 0 0 0-16.629-6.712h-.004Zm.903 10.862c1.533.022 3.062.174 4.57.454a27.539 27.539 0 0 1 10.049 4.078c2.268 1.504 3.352 2.71 3.235 2.857-.151.204-1.485-.673-3.825-1.852-2.32-1.16-5.706-2.642-9.769-3.292a29.23 29.23 0 0 0-4.29-.374 32.09 32.09 0 0 0-6.898.665 39.954 39.954 0 0 0-8.001 2.597c-1.98 1.016-3.201 1.534-3.303 1.36-.106-.17.926-1.009 2.774-2.301a29.439 29.439 0 0 1 8.141-3.345 28.828 28.828 0 0 1 7.313-.847h.004Zm-31.471 1.096c.084-.003.168-.003.253 0 .605.026 1.199.2 1.727.507 1.661.956 2.328 3.019 1.512 4.679a137.384 137.384 0 0 0 7.37 5.446 15.688 15.688 0 0 0-2.049 3.587 138.69 138.69 0 0 0-8.416-3.682c-1.028 1.534-3.142 1.991-4.8 1.036l-.004-.002c-1.734-1.001-2.366-3.2-1.402-4.873a3.494 3.494 0 0 1 2.77-1.713 3.492 3.492 0 0 1 .098-3.257c.6-1.038 1.708-1.69 2.937-1.728h.004Zm31.324 8.871c5.978.069 12.72 1.611 19.604 6.02V39l-3.693 3.073c-.589-1.206-1.685-1.663-3.114-1.674-1.497-.016-3.356.445-5.359 1.001-2.858.79-5.284 1.576-6.312 3.02h-4.875c-1.036-1.448-3.459-2.23-6.32-3.024-2.003-.548-3.858-1.005-5.359-.994-1.455.012-2.57.484-3.152 1.739l-2.619-2.181c.024-.131.051-.262.079-.393.019-.076.034-.151.057-.219l.068-.231a7.72 7.72 0 0 1 .151-.491c2.521-1.512 10.001-5.442 19.657-5.647.394-.009.789-.01 1.183-.003h.004ZM79.419 58.253a10.422 10.422 0 0 0 2.547 2.891 136.745 136.745 0 0 0-9.04 6.64c.817 1.658.154 3.721-1.504 4.679l-.002.001c-1.734 1.002-3.957.449-4.923-1.225-.568-1-.607-2.22-.102-3.254a3.49 3.49 0 0 1-2.767-1.716c-.966-1.673-.335-3.874 1.399-4.876 1.661-.961 3.785-.502 4.811 1.04a135.791 135.791 0 0 0 9.581-4.177v-.003Zm51.306-34.148.008.008c1.227.039 2.334.691 2.932 1.727.57.988.608 2.204.102 3.258a3.493 3.493 0 0 1 2.771 1.716c.961 1.675.325 3.873-1.41 4.872-1.659.956-3.776.5-4.804-1.036a137.643 137.643 0 0 0-8.908 3.889 107.777 107.777 0 0 0-2.468-3.133 137.505 137.505 0 0 0 8.277-6.115c-.816-1.659-.151-3.722 1.508-4.679a3.751 3.751 0 0 1 1.984-.507h.008Zm-9.864 19.514c-.035.402-.088.804-.159 1.201l-.034.159c-.071.374-.16.745-.265 1.111-.03.095-.062.19-.094.284a13.415 13.415 0 0 1-.885 2.154c.129.166.235.34.337.514l.034.068c.094.182.174.359.238.544.51 1.459.404 3.013-.151 4.562a11.2 11.2 0 0 1-1.1 2.241c-.102.152-.208.299-.318.446a9.074 9.074 0 0 1-2.8 2.555l-.011.008c-.252.146-.51.279-.775.4l-.242.103a9.337 9.337 0 0 1-1.436.487l-.227.053-.03.008-1.625 2.804c-.269.453-1.028.907-2.211 1.285-.942.292-1.905.512-2.88.658-.601.093-1.205.169-1.811.226-1.413.14-2.832.208-4.252.204h-.094c-1.429 0-2.744-.068-3.946-.177l-.298-.027a32.298 32.298 0 0 1-1.807-.226c-.219-.038-.397-.08-.605-.118-.329-.06-.672-.121-.967-.189a15.68 15.68 0 0 1-1.312-.355c-1.179-.378-1.942-.831-2.211-1.285l-1.61-2.778a9.219 9.219 0 0 1-.771-.189l-.03-.011a9.18 9.18 0 0 1-.605-.208l-.31-.125a9.075 9.075 0 0 1-3.783-2.921h.004a10.26 10.26 0 0 1-.85-1.323c-1.096-2.048-1.512-4.157-.839-6.1a4.29 4.29 0 0 1 .604-1.123c-.22-.428-.415-.863-.586-1.303a13.253 13.253 0 0 1-.283-.821 13.6 13.6 0 0 1-.136-.434c-.096-.343-.178-.69-.246-1.04v-.022l2.502 2.082c.631 3.114 2.43 6.425 5.28 7.211 3.798 1.051 8.152-2.713 9.698-5.93h4.989c1.542 3.213 5.896 6.977 9.687 5.934 2.891-.793 4.709-4.184 5.31-7.332l3.912-3.265Zm-21.422 6.27-.023.011c-2.343 1.153-4.237 3.715-4.233 5.715 0 2.003 1.89 2.687 4.233 1.53l.027-.011.026.011c2.339 1.153 4.233.473 4.233-1.53 0-2.004-1.894-4.558-4.233-5.707l-.023-.016-.007-.003Zm21.301 8.367c3.142 1.516 6.34 2.91 9.588 4.18 1.027-1.541 3.15-2 4.811-1.039 1.734 1.002 2.365 3.203 1.399 4.876a3.49 3.49 0 0 1-2.771 1.715 3.491 3.491 0 0 1-.102 3.255c-.967 1.671-3.188 2.223-4.921 1.222l-.003-.002c-1.659-.958-2.322-3.021-1.504-4.679a137.028 137.028 0 0 0-9.041-6.64 10.4 10.4 0 0 0 2.544-2.888Zm-5.042-13.844c.48 0 .869.454.869 1.009v1.788c0 .559-.389 1.009-.869 1.009s-.862-.45-.862-1.009v-1.788c0-.555.382-1.005.862-1.005v-.004Zm-71.64-3.507h.004c2.264 0 4.129 1.647 4.131 3.651v.004c0 2.005-1.865 3.654-4.131 3.654h-.004c-2.266 0-4.13-1.649-4.13-3.654v-.004c.002-2.004 1.866-3.651 4.13-3.651ZM33.642 62.157h.008c2.264.002 4.127 1.651 4.127 3.655 0 2.004-1.865 3.654-4.131 3.654h-.004c-2.266 0-4.131-1.65-4.131-3.654v-.004c.003-2.004 1.867-3.651 4.131-3.651Zm.015-41.631c2.267 0 4.131 1.65 4.131 3.655s-1.864 3.655-4.131 3.655c-2.266 0-4.13-1.65-4.13-3.655s1.864-3.655 4.13-3.655Zm133.457 0c2.266 0 4.13 1.65 4.13 3.655s-1.864 3.655-4.13 3.655c-2.267 0-4.131-1.65-4.131-3.655s1.864-3.655 4.131-3.655ZM22.489 40.905c2.265 0 4.129 1.647 4.131 3.651v.004c0 2.005-1.865 3.654-4.131 3.654h-.004c-2.266 0-4.131-1.649-4.131-3.654v-.004c.003-2.005 1.869-3.653 4.135-3.651Zm133.456 0c2.265.002 4.127 1.651 4.127 3.655 0 2.003-1.862 3.653-4.127 3.654h-.007c-2.266 0-4.131-1.649-4.131-3.654s1.865-3.655 4.131-3.655h.007Zm21.57 0c2.266 0 4.131 1.65 4.131 3.655s-1.865 3.654-4.131 3.654h-.004c-2.266 0-4.131-1.649-4.131-3.654s1.865-3.655 4.131-3.655h.004Zm-10.413 21.252h.004c2.266 0 4.131 1.65 4.131 3.655 0 2.004-1.865 3.654-4.131 3.654h-.004c-2.266 0-4.131-1.65-4.131-3.654 0-2.005 1.865-3.655 4.131-3.655Z"
        style="fill: #e5b75b"
        transform="matrix(.90903 0 0 .98555 -5.655 -5.305)"
      />
    </g>
  </g>
</svg>
