<svg
  xmlns="http://www.w3.org/2000/svg"
  version="1.1"
  xmlns:xlink="http://www.w3.org/1999/xlink"
  width="180"
  height="180"
>
  <svg
    xmlns="http://www.w3.org/2000/svg"
    xml:space="preserve"
    style="fill-rule: evenodd; clip-rule: evenodd; stroke-linejoin: round; stroke-miterlimit: 2"
    viewBox="0 0 180 180"
  >
    <path
      d="M0 15.777C0 11.593 1.983 7.58 5.512 4.621 9.041 1.662 13.827 0 18.818 0h74.484c4.991 0 9.777 1.662 13.306 4.621 3.529 2.959 5.512 6.972 5.512 11.156v62.446c0 4.184-1.983 8.197-5.512 11.156C103.079 92.338 98.293 94 93.302 94H18.818c-4.991 0-9.777-1.662-13.306-4.621C1.983 86.42 0 82.407 0 78.223V15.777Z"
      style="fill: #402372"
      transform="scale(1.60543 1.91489)"
    ></path><path
      d="M112.12 22.656v45.313c0 12.504-12.56 22.656-28.03 22.656H28.03C12.56 90.625 0 80.473 0 67.969V22.656C0 10.152 12.56 0 28.03 0h56.06c15.47 0 28.03 10.152 28.03 22.656ZM56.065 3.488l-.018.009-.038.002c-7.704.01-15.396 3.01-21.128 8.545-2.81 2.711-5.125 6.083-6.764 9.827-.492-.372-.985-.736-1.473-1.114-.14-3.229-1.869-6.421-4.662-8.035-4.227-2.441-10.396-.979-12.884 3.332a9.086 9.086 0 0 0-1.133 3.563 9.084 9.084 0 0 0-2.518 2.755l-.002.005c-2.489 4.309-.669 10.38 3.557 12.819l.006.005c2.794 1.605 6.419 1.506 9.282.011a166.98 166.98 0 0 1 7.414 3.246c.22 1.745.581 3.47 1.081 5.156-1.112 4.113-.659 8.287.496 11.934a175.339 175.339 0 0 1-8.984 3.979c-2.866-1.495-6.495-1.596-9.289.018h-.003c-4.225 2.437-6.045 8.512-3.554 12.82l.002.004c.63 1.093 1.508 2.017 2.52 2.76a9.112 9.112 0 0 0 1.134 3.56c2.49 4.309 8.656 5.771 12.883 3.332l.005-.002c2.789-1.614 4.516-4.807 4.654-8.034a173.69 173.69 0 0 1 9.443-6.804c.324.178.637.363.975.516l1.031 2.253c1.113 2.422 2.38 3.138 3.568 3.844 1.191.705 2.448 1.195 3.88 1.61 2.86.828 6.393 1.299 10.515 1.299h.115c4.124 0 7.652-.471 10.514-1.299 1.43-.414 2.693-.905 3.879-1.61 1.19-.706 2.458-1.421 3.567-3.844l1.063-2.319c.286-.133.556-.298.83-.451a172.81 172.81 0 0 1 9.445 6.804c.139 3.23 1.864 6.42 4.652 8.032l.007.003c4.224 2.439 10.395.978 12.882-3.333a9.12 9.12 0 0 0 3.655-6.322l.002-.002c2.488-4.31.667-10.383-3.559-12.823-2.794-1.611-6.424-1.513-9.29-.017a172.057 172.057 0 0 1-8.985-3.98c1.157-3.652 1.608-7.83.492-11.949a32.2 32.2 0 0 0 1.08-5.141c2.447-1.14 4.92-2.222 7.417-3.245 2.866 1.493 6.489 1.595 9.281-.014l.007-.002c4.226-2.441 6.047-8.51 3.557-12.821l-.002-.008c-.631-1.089-1.508-2.014-2.519-2.755-.138-1.248-.502-2.47-1.132-3.562l-.002-.004c-1.583-2.744-4.658-4.519-7.779-4.614a9.681 9.681 0 0 0-5.105 1.286c-2.792 1.615-4.522 4.803-4.664 8.034-.487.381-.981.741-1.471 1.114-1.639-3.743-3.956-7.114-6.763-9.826-5.742-5.546-13.452-8.547-21.17-8.547Zm27.242 33.558a139.93 139.93 0 0 0-3.101-3.936 175.157 175.157 0 0 0 10.529-7.791c-1.043-2.111-.197-4.74 1.917-5.961a4.773 4.773 0 0 1 2.53-.64l.012.008c1.563.049 2.973.878 3.735 2.198.725 1.257.773 2.805.128 4.146 1.483.112 2.798.926 3.525 2.181 1.229 2.13.423 4.932-1.787 6.207-2.112 1.217-4.807.635-6.114-1.32a174.668 174.668 0 0 0-11.374 4.908Zm-53.124 1.167c.05-.18.103-.36.159-.54l-.003-.002c.048-.156.098-.311.151-.466 3.212-1.924 12.729-6.939 25.028-7.193 7.976-.165 17.118 1.671 26.466 7.658l.002.011-4.697 3.906c-.754-1.534-2.148-2.113-3.968-2.13-1.906-.017-4.273.568-6.823 1.275-3.641 1.006-6.728 2.006-8.039 3.842h-6.21c-1.31-1.836-4.396-2.836-8.04-3.841-2.547-.704-4.913-1.29-6.823-1.271-1.852.016-3.27.615-4.011 2.215l-3.358-2.792c.05-.225.106-.448.166-.672Zm.746-5.928a19.96 19.96 0 0 0-2.542 4.455 174.765 174.765 0 0 0-10.732-4.608c-1.307 1.955-4.003 2.537-6.116 1.319-2.208-1.277-3.012-4.079-1.782-6.208.727-1.255 2.042-2.069 3.523-2.181-.645-1.342-.598-2.889.127-4.148.819-1.417 2.381-2.261 4.064-2.195.772.03 1.53.251 2.205.64 2.114 1.221 2.959 3.85 1.917 5.96a174.407 174.407 0 0 0 9.336 6.966Zm25.23 39.383c-7.862-.001-13.295-1.479-14.19-3.023l-2.053-3.538a11.716 11.716 0 0 1-3.594-1.375l-.02.013a11.571 11.571 0 0 1-3.4-3.038l.012-.006a13.048 13.048 0 0 1-1.093-1.688c-1.398-2.599-1.935-5.29-1.068-7.76.185-.515.445-.997.772-1.433a18.263 18.263 0 0 1-.421-.854 16.64 16.64 0 0 1-1.183-3.759l3.196 2.658c.798 3.964 3.092 8.177 6.725 9.18 4.83 1.333 10.375-3.457 12.339-7.548h6.351c1.964 4.091 7.509 8.88 12.339 7.548 3.677-1.014 5.987-5.323 6.757-9.33l4.998-4.155c-.173 2.143-.792 4.253-1.832 6.247.341.453.603.941.777 1.438.864 2.473.33 5.164-1.069 7.766-.119.22-.245.441-.38.661-.216.347-.453.691-.71 1.03l.005.003a11.555 11.555 0 0 1-3.393 3.033l-.018-.012a11.623 11.623 0 0 1-3.255 1.302c-.069.017-.138.032-.207.047l-.003.001-2.068 3.568c-.896 1.545-6.331 3.023-14.195 3.024h-.119Zm-.806-20.127-.031.013c-2.978 1.472-5.391 4.73-5.39 7.277 0 2.546 2.413 3.418 5.39 1.949l.035-.015.032.015c2.977 1.469 5.39.598 5.39-1.948 0-2.545-2.412-5.803-5.39-7.272l-.031-.012-.005-.007Zm1.855-34.221c2.02.028 3.968.226 5.826.571 5.534 1.033 9.935 3.304 12.792 5.198 2.885 1.914 4.266 3.449 4.122 3.641-.192.252-1.89-.856-4.871-2.356-2.956-1.483-7.264-3.37-12.441-4.203a37.31 37.31 0 0 0-5.463-.472c-2.95-.035-5.895.25-8.784.85-4.245.871-7.71 2.226-10.189 3.305-2.52 1.292-4.072 1.95-4.205 1.731-.133-.218 1.177-1.285 3.534-2.929 2.377-1.447 5.905-3.153 10.368-4.261a36.695 36.695 0 0 1 9.311-1.075ZM29.854 62.201c.788 1.312 1.845 2.602 3.231 3.676a173.438 173.438 0 0 0-11.492 8.45c1.04 2.11.196 4.736-1.915 5.958-2.209 1.273-5.037.57-6.267-1.559-.724-1.258-.772-2.805-.129-4.146-1.482-.112-2.799-.927-3.525-2.183l-.001-.002c-1.229-2.13-.424-4.932 1.784-6.208 2.115-1.22 4.814-.637 6.12 1.321a172.809 172.809 0 0 0 12.194-5.307Zm49.395 3.674c1.383-1.072 2.439-2.361 3.226-3.671 3.94 1.89 7.987 3.671 12.202 5.31 1.306-1.958 4.005-2.542 6.118-1.322 2.209 1.275 3.015 4.078 1.785 6.209-.726 1.257-2.044 2.072-3.528 2.185.643 1.338.596 2.884-.126 4.14-1.23 2.13-4.06 2.834-6.27 1.559-2.112-1.223-2.956-3.849-1.915-5.96a173.438 173.438 0 0 0-11.492-8.45ZM76.053 44.57c.61 0 1.102.571 1.102 1.28v2.283c0 .71-.492 1.28-1.102 1.28-.611 0-1.101-.57-1.101-1.28v-2.282c0-.709.49-1.281 1.101-1.281Z"
      style="fill: #e5b75b"
      transform="matrix(1.46008 0 0 1.80638 8.148 8.148)"
    ></path>
  </svg><style>
  @media (prefers-color-scheme: light) {
    :root {
      filter: none;
    }
  }
  @media (prefers-color-scheme: dark) {
    :root {
      filter: none;
    }
  }
  </style>
</svg>
