<svg xmlns="http://www.w3.org/2000/svg" xml:space="preserve" fill-rule="evenodd" stroke-linejoin="round" stroke-miterlimit="2" clip-rule="evenodd" viewBox="0 0 190 80">
  <path fill="#ad43d2" d="M187.943 30.282v19.436c0 14.412-11.701 26.112-26.112 26.112H28.169c-14.411 0-26.112-11.7-26.112-26.112V30.282C2.057 15.87 13.758 4.17 28.169 4.17h133.662c14.411 0 26.112 11.7 26.112 26.112Z"/>
  <path fill="#c5698d" d="M129.735 22.059v35.777c0 9.873-7.687 17.889-17.156 17.889H76.683c-9.469 0-17.157-8.016-17.157-17.889V22.059c0-9.873 7.688-17.889 17.157-17.889h35.896c9.469 0 17.156 8.016 17.156 17.889Z"/>
  <path fill="#c59869" d="m121.188 31.85-16.197 11s.898 6.555 2.097 5.436c1.221-1.14 9.641-6.889 10.822-5.445 1.996 1.482 3.239 4.47 3.122 10.177l-8.334-.871-9.303 4.423 10.649 3.482c3.636-1.051 6.526-.897 7.108 2.985-.251 3.578-1.304 6.413-4.843 6.937l-7.378-4.903-15.775-4.421-15.077 6.257s-4.394 3.732-4.735 3.3c-1.638-2.072-1.87-1.855-2.88-4.592-1.033-2.801-3.293-3.238-.684-5.037.892-.615 4.959-.183 9.011-1.163 4.164-1.007 8.302-3.418 8.302-3.418s-5.378-2.633-10.015-3.418c-4.145-.701-7.605.48-7.605-.182-1.41-1.382 1.532-5.041 1.532-5.041l1.156-4.15c3.026-.851 7.11 2.994 12.045 6.202 0 .108 2.458-3.923-.32-6.505-4.724-4.391-9.673-15.206-7.141-16.168 12.672-4.813 27.574-4.9 36.69.053 3.07 1.667 7.753 5.062 7.753 5.062ZM95 47.529l-5.512.466.621 3.264L95 52.968l6.144-3.574L95 47.529Z"/>
  <path fill="#4b1d6c" d="M190 30.282v19.436c0 15.596-12.143 28.257-27.1 28.257H27.1C12.143 77.975 0 65.314 0 49.718V30.282C0 14.686 12.143 2.025 27.1 2.025h135.8c14.957 0 27.1 12.661 27.1 28.257Zm-4.115 0c0-13.228-10.299-23.967-22.985-23.967H27.1c-12.686 0-22.985 10.739-22.985 23.967v19.436c0 13.228 10.299 23.967 22.985 23.967h135.8c12.686 0 22.985-10.739 22.985-23.967V30.282Zm-41.882 23.757c2.329 0 4.22 1.737 4.22 3.876s-1.891 3.876-4.22 3.876c-2.329 0-4.22-1.737-4.22-3.876s1.891-3.876 4.22-3.876Zm28.536-18.02c2.329 0 4.22 1.737 4.22 3.876 0 2.14-1.891 3.877-4.22 3.877-2.329 0-4.22-1.737-4.22-3.877 0-2.139 1.891-3.876 4.22-3.876Zm-15.072 10.476c2.329 0 4.22 1.737 4.22 3.877 0 2.139-1.891 3.876-4.22 3.876-2.329 0-4.22-1.737-4.22-3.876 0-2.14 1.891-3.877 4.22-3.877Zm-26.274-33.634v55.352c0 1.248-.971 2.261-2.168 2.261s-2.168-1.013-2.168-2.261V12.861c0-1.248.971-2.261 2.168-2.261s2.168 1.013 2.168 2.261Zm26.274 48.511c2.329 0 4.22 1.737 4.22 3.877 0 2.139-1.891 3.876-4.22 3.876-2.329 0-4.22-1.737-4.22-3.876 0-2.14 1.891-3.877 4.22-3.877Zm0-50.497c2.329 0 4.22 1.737 4.22 3.876 0 2.14-1.891 3.877-4.22 3.877-2.329 0-4.22-1.737-4.22-3.877 0-2.139 1.891-3.876 4.22-3.876ZM143.4 36.019c2.329 0 4.22 1.737 4.22 3.876 0 2.14-1.891 3.877-4.22 3.877-2.329 0-4.22-1.737-4.22-3.877 0-2.139 1.891-3.876 4.22-3.876Zm28.536 18.02c2.329 0 4.22 1.737 4.22 3.876s-1.891 3.876-4.22 3.876c-2.329 0-4.22-1.737-4.22-3.876s1.891-3.876 4.22-3.876ZM63.153 12.861v55.352c0 1.248-.972 2.261-2.169 2.261-1.196 0-2.168-1.013-2.168-2.261V12.861c0-1.248.972-2.261 2.168-2.261 1.197 0 2.169 1.013 2.169 2.261ZM46.6 36.019c2.329 0 4.22 1.737 4.22 3.876 0 2.14-1.891 3.877-4.22 3.877-2.329 0-4.22-1.737-4.22-3.877 0-2.139 1.891-3.876 4.22-3.876Zm36.734 11.128v-3.536c-2.844-1.461-4.794-3.19-6.125-4.967a1.545 1.545 0 0 1-.506-.088c-9.059-3.194-9.79-6.721-9.79-6.721a1.54 1.54 0 0 1 .616-1.695 63.8 63.8 0 0 1 7.432-4.377l.498-6.053c.033-.406.227-.783.538-1.047 0 0 8.879-9.411 9.019-9.472C88.292 7.772 91.62 7.068 95 7.092c3.38-.024 6.708.68 9.984 2.099.14.061 9.019 9.472 9.019 9.472.311.264.505.641.538 1.047l.498 6.053a63.8 63.8 0 0 1 7.432 4.377 1.54 1.54 0 0 1 .616 1.695s-.731 3.527-9.79 6.721a1.371 1.371 0 0 1-.163.047c-1.331 1.792-3.289 3.536-6.155 5.008v3.415l3.367-1.299c.35-1.615 1.144-2.698 2.07-3.402 1.768-1.343 4.128-1.395 5.814-.814 2.121.73 3.715 2.711 2.724 5.237.148.083.299.174.447.275.703.475 1.344 1.137 1.61 1.977.275.87.194 1.969-.849 3.287-.951 1.203-2.07 1.757-3.161 1.967-1.09.209-2.189.062-3.167-.259a9.685 9.685 0 0 1-2.12-1.026l-8.194 3.147 8.047 3.091a9.686 9.686 0 0 1 2.12-1.025c.978-.322 2.077-.469 3.167-.26 1.091.21 2.21.764 3.161 1.968 1.043 1.318 1.124 2.416.849 3.286-.266.84-.907 1.503-1.61 1.978-.148.1-.299.192-.447.275.991 2.525-.603 4.506-2.724 5.237-1.686.58-4.046.528-5.814-.815-.926-.703-1.72-1.787-2.07-3.402L95 62.342l-15.199 4.107c-.35 1.615-1.144 2.699-2.07 3.402-1.768 1.343-4.128 1.395-5.814.815-2.121-.731-3.715-2.712-2.724-5.237a6.343 6.343 0 0 1-.447-.275c-.703-.475-1.344-1.138-1.61-1.978-.275-.87-.194-1.968.849-3.286.951-1.204 2.07-1.758 3.161-1.968 1.09-.209 2.189-.062 3.167.26a9.686 9.686 0 0 1 2.12 1.025l8.047-3.091-8.194-3.147a9.685 9.685 0 0 1-2.12 1.026c-.978.321-2.077.468-3.167.259-1.091-.21-2.21-.764-3.161-1.967-1.043-1.318-1.124-2.417-.849-3.287.266-.84.907-1.502 1.61-1.977a5.99 5.99 0 0 1 .447-.275c-.991-2.526.603-4.507 2.724-5.237 1.686-.581 4.046-.529 5.814.814.926.704 1.72 1.787 2.07 3.402l3.68 1.42Zm16.148 2.77-1.992-.092L95 48.224l-2.285 1.65-2.219.035L95 51.646l4.482-1.729ZM95 57.408h.001c1.769.464 17.267 7.02 17.267 7.02.25.098.454.244.603.419.149.174.248.383.276.611v.002c.148 1.211.575 2.024 1.208 2.505.772.587 1.807.592 2.543.338 1.049-.361 1.483-1.492.574-2.815a1.087 1.087 0 0 1-.102-1.085c.162-.356.508-.634.942-.758 0 0 .514-.151.991-.474.237-.16.486-.362.575-.644.106-.334-.045-.73-.444-1.235-.386-.488-.791-.771-1.233-.868-.707-.156-1.41.112-1.97.375-.779.365-1.316.812-1.316.812-.457.384-1.157.489-1.748.262l-11.432-4.96-6.735-3-6.735 3-11.432 4.96c-.591.227-1.291.122-1.748-.262 0 0-.537-.447-1.316-.812-.56-.263-1.263-.531-1.97-.375-.442.097-.847.38-1.233.868-.399.505-.55.901-.444 1.235.089.282.338.484.575.644.477.323.991.474.991.474.434.124.78.402.942.758.163.356.125.754-.102 1.085-.909 1.323-.475 2.454.574 2.815.736.254 1.771.249 2.543-.338.633-.481 1.06-1.294 1.208-2.505v-.002c.028-.228.127-.437.276-.611.149-.175.353-.321.603-.419 0 0 15.498-6.556 17.267-7.02H95Zm14.268-38.72-5.723-4.866c-2.801-1.184-5.645-1.777-8.533-1.755h-.024c-2.888-.022-5.732.571-8.533 1.755l-4.916 4.179C85.754 16.1 90.072 14.278 95 14.374c4.906.095 10.397 2.103 14.268 4.314Zm-27.385 4.226c4.372-1.421 8.745-2.123 13.117-2.085 3.933-.034 9.777 1.411 13.71 2.559-3.189-1.777-9.238-3.666-13.269-3.744-4.864-.094-9.679 1.11-13.558 3.27Zm5.785 31.701 4.037-1.619-14.12-5.248a1.506 1.506 0 0 1-.603-.418 1.16 1.16 0 0 1-.276-.611v-.003c-.148-1.21-.575-2.024-1.208-2.505-.772-.586-1.807-.591-2.543-.338-1.049.361-1.483 1.493-.574 2.816.227.331.265.728.102 1.085-.162.356-.508.634-.942.757 0 0-.514.151-.991.474-.237.16-.486.363-.575.645-.106.333.045.729.444 1.234.386.488.791.771 1.233.868.707.156 1.41-.111 1.97-.374.779-.366 1.316-.812 1.316-.812.457-.385 1.157-.49 1.748-.263 0 0 7.356 2.792 10.982 4.312Zm12.185-7.68 4.037.029v-4.315c0-.601.349-1.146.894-1.399 4.235-1.964 6.322-4.557 7.257-7.007 1.058-2.776.648-5.312.42-6.283-5.82-2.694-11.641-1.432-17.461-1.377-5.703-.054-11.405-1.371-17.108 1.215-.212.821-.743 3.497.381 6.445.934 2.45 3.021 5.043 7.257 7.007.545.253.893.798.893 1.399v4.19l4.315.031v-2.062s.193-.399 1.373-.399 1.272.399 1.272.399v2.081l3.824.027v-2.108s.193-.399 1.373-.399 1.273.399 1.273.399v2.127ZM95 39.98c-.603 1.207-1.81 1.207-2.413.603-.604-.603-.604-1.809 0-3.015.422-.905 1.609-2.104 2.413-2.104.804 0 1.991 1.199 2.413 2.104.604 1.206.604 2.412 0 3.015-.603.604-1.81.604-2.413-.603Zm2.907-6.115c-1.092-.091-1.988-1.007-1.952-2.12.126-3.838 9.922-6.912 11.06-4.023-1.222.41-2.566.698-3.968 1.925 9.281.244-2.724 12.285-5.14 4.218Zm-5.962 0c-2.416 8.067-14.421-3.974-5.14-4.218-1.402-1.227-2.746-1.515-3.968-1.925 1.138-2.889 10.934.185 11.06 4.023.036 1.113-.86 2.029-1.952 2.12Zm10.387 20.75c3.626-1.52 10.982-4.312 10.982-4.312.591-.227 1.291-.122 1.748.263 0 0 .537.446 1.316.812.56.263 1.263.53 1.97.374.442-.097.847-.38 1.233-.868.399-.505.55-.901.444-1.234-.089-.282-.338-.485-.575-.645-.477-.323-.991-.474-.991-.474-.434-.123-.78-.401-.942-.757a1.086 1.086 0 0 1 .102-1.085c.909-1.323.475-2.455-.574-2.816-.736-.253-1.771-.248-2.543.338-.633.481-1.06 1.295-1.208 2.505v.003a1.16 1.16 0 0 1-.276.611 1.506 1.506 0 0 1-.603.418l-14.12 5.248 4.037 1.619ZM17.461 36.019c2.329 0 4.22 1.737 4.22 3.876 0 2.14-1.891 3.877-4.22 3.877-2.329 0-4.22-1.737-4.22-3.877 0-2.139 1.891-3.876 4.22-3.876Zm15.072 10.476c2.329 0 4.22 1.737 4.22 3.877 0 2.139-1.891 3.876-4.22 3.876-2.329 0-4.22-1.737-4.22-3.876 0-2.14 1.891-3.877 4.22-3.877Zm0 14.877c2.329 0 4.22 1.737 4.22 3.877 0 2.139-1.891 3.876-4.22 3.876-2.329 0-4.22-1.737-4.22-3.876 0-2.14 1.891-3.877 4.22-3.877Zm0-50.497c2.329 0 4.22 1.737 4.22 3.876 0 2.14-1.891 3.877-4.22 3.877-2.329 0-4.22-1.737-4.22-3.877 0-2.139 1.891-3.876 4.22-3.876Zm-12.46 8.172c2.33 0 4.221 1.737 4.221 3.876 0 2.14-1.891 3.876-4.221 3.876-2.329 0-4.22-1.736-4.22-3.876 0-2.139 1.891-3.876 4.22-3.876Zm25.924 34.992c2.329 0 4.22 1.737 4.22 3.876s-1.891 3.876-4.22 3.876c-2.329 0-4.22-1.737-4.22-3.876s1.891-3.876 4.22-3.876Zm111.47-27.659c2.329 0 4.22 1.737 4.22 3.877 0 2.139-1.891 3.876-4.22 3.876-2.329 0-4.22-1.737-4.22-3.876 0-2.14 1.891-3.877 4.22-3.877Zm12.46-7.333c2.329 0 4.22 1.737 4.22 3.876 0 2.14-1.891 3.876-4.22 3.876-2.33 0-4.221-1.736-4.221-3.876 0-2.139 1.891-3.876 4.221-3.876ZM18.064 54.039c2.329 0 4.22 1.737 4.22 3.876s-1.891 3.876-4.22 3.876c-2.329 0-4.22-1.737-4.22-3.876s1.891-3.876 4.22-3.876Zm125.939-34.992c2.329 0 4.22 1.737 4.22 3.876 0 2.14-1.891 3.876-4.22 3.876-2.329 0-4.22-1.736-4.22-3.876 0-2.139 1.891-3.876 4.22-3.876Zm-98.006 0c2.329 0 4.22 1.737 4.22 3.876 0 2.14-1.891 3.876-4.22 3.876-2.329 0-4.22-1.736-4.22-3.876 0-2.139 1.891-3.876 4.22-3.876ZM32.533 26.38c2.329 0 4.22 1.737 4.22 3.877 0 2.139-1.891 3.876-4.22 3.876-2.329 0-4.22-1.737-4.22-3.876 0-2.14 1.891-3.877 4.22-3.877Z"/>
</svg>
