<svg xmlns="http://www.w3.org/2000/svg" xml:space="preserve" fill-rule="evenodd" stroke-linecap="round" stroke-linejoin="round" stroke-miterlimit="1.5" clip-rule="evenodd" viewBox="0 0 480 270">
  <path fill="#39285d" d="M442.405 141.345A25.593 25.593 0 0 1 468 166.94v22.383a25.595 25.595 0 0 1-25.595 25.595H37.595A25.593 25.593 0 0 1 12 189.323V166.94a25.595 25.595 0 0 1 25.595-25.595h404.81Z"/>
  <path fill="#352052" d="M374.781 141.931c32.258 6.327 55.277 26.261 51.373 44.487-3.904 18.227-33.262 27.887-65.52 21.56-32.257-6.327-55.276-26.261-51.372-44.488 3.904-18.226 33.262-27.886 65.519-21.559Z"/>
  <path fill="#2e1b46" d="M366.275 146.67c29.433 4.834 51.205 20.595 48.59 35.173-2.615 14.578-28.633 22.488-58.065 17.654-29.433-4.835-51.206-20.595-48.591-35.173 2.615-14.578 28.634-22.489 58.066-17.654Z"/>
  <path fill="#26183f" d="M310.776 162.951s47.275 48.411 80.9 24.236c22.403-16.107 3.242-28.247 3.242-28.247l-3.242.318-80.9 3.693Z"/>
  <path fill="#3a2a60" d="M338.934 170.884s3.313.404 5.686-.657c0 0 4.063 8.222 19.858-.145 0 0 8.521 1.424 7.557 3.661-8.435 8.017-19.849 8.986-33.152 5.488l.051-8.347Z"/>
  <path fill="#342256" d="M368.728 171.242s-5.602 9.815-24.933 5.889c0 0-1.42.982-.868 2.945 0 0 11.097 3.373 21.669-1.081l7.849-5.609s-1.903-3.125-3.717-2.144Z"/>
  <path fill="#3a2a60" d="m345.342 157.317-1.682-2.409c-6.471 5.432-11.732 5.718-16.864.821-.725.319-2.166.231-3.133-.034l-1.839 5.084c.502.837 1.325 3.271 6.718 3.395 6.816.158 15.543-.439 15.135-2.043l1.665-4.814Z"/>
  <path fill="#342256" d="m340.06 156.921 3.735-1.941 1.589 2.513s-1.656 3.634-2.221 5.258c0 0-5.478 3.247-16.967 1.237 0 0 2.246-1.044 1.963-2.668 0 0 6.632 1.585 11.901 0 0 0 4.992-3.039 0-4.399Z"/>
  <path fill="#4e2460" d="M352.497 122.205s-5.908 1.393-17.813-3.791l-.041 3.452 1.25.539s-1.628 3.263 1.26 6.544l.504 7.094s-2.81 6.531-1.78 10.764l-1.712 2.756s8.136 1.656 11.112 8.108l-2.432 8.013 6.61-2.96s4.166-.416 8.291 2.679c4.124 3.095 10.844 6.167 13.029 6.198 0 0 2.24 1.632 1.957 2.766l8.134-5.476-9.084-11.221-12.739-23.824-5.004-5.843s-1.645.447-1.792-1.621l.25-4.177Z"/>
  <path fill="#726699" d="m350.857 118.219-14.41-9.799-2.574 9.748s12.491 5.466 17.955 4.642l2.023-2.408-2.994-2.183Z"/>
  <path fill="#3a2a60" d="M375.467 129.367c.293-.212.469-.342.469-.342l6.261 1.395 2.473-2.248-.993-.848.666-1.387s3.006-.68 5.429-4.05c3.134-4.358-13.661-16.358-14.882-15.605 0 0-2.199 2.567-2.218 4.349 0 0-.727 1.103-.706 2.962l-.194 3.387s-3.019.354-6.944-.443c-3.924-.796-6.653.271-7.52.823l-6.313-4.467s5.43-10.402 10.798-13.881c0 0 2.652-2.739 6.35-.535l.783-1.438-3.871-5.667 3.152-1.774 2.626 2.44s-.106 1.876 1.566-2.904c1.671-4.781 2.966-11.753 1.583-12.952l.915-.904 10.759 4.024c7.428 8.544 12.866 18.579 17.446 29.257l-8.173 9.066c4.319 7.835 9.939 13.798 16.046 19.061l-8.956 4.543 3.701 3.162c-2.846 9.293-7.527 14.271-14.125 14.738-2.539 1.603-27.473-25.332-25.901-26.621 0 0 3.409.995 5.28-.104a.793.793 0 0 0 .039-.023l8.38 6.086s3.996 2.226 4.759 5.543c.302 3.919-5.833.282-5.833.282l-2.541-4.612-2.534.307s1.032 3.065 4.216 7.167c5.319 4.224 7.807 4.327 11.9 1.595 3.966-4.862-.796-10.673-.796-10.673-.704-2.784-3.306-2.182-3.306-2.182l-9.791-6.527Z"/>
  <path fill="#342256" d="m360.593 115.693-2.718 1.559-7.524-3.866s8.181-13.047 11.514-14.738c3.332-1.692 5.453-1.208 6.312-.483l.908-1.547s-3.433-4.687-4.241-5.315c-.808-.628 2.727-2.368 4.241-1.353l2.071 2.029s2.272-3.72 2.676-6.716l2.878 2.657s-3.545 3.775-2.878 13.137c0 0 1.472 2.014-1.254 6.073-2.727 4.06-4.401 5.799-4.401 5.799l-7.584 2.764Zm26.828-.806c2.888-.362 5.501-2.972 7.732-8.683-4.339-12.347-8.456-18.095-12.466-20.688 0 0 2.682-4.701 5.602-4.454l14.075 26.302-9.42 11.771-.805 2.477h-2.449s1.36-3.822-2.269-6.725Z"/>
  <path fill="#281a42" d="m374.853 128.396 7.607 1.708 1.674-1.857-1.057-1.238.956-1.524s5.731-2.96 5.86-3.909l2.756-.208s.658-3.45 2.126-3.589l2.402 4.857s-12.312 5.082-13.979 12.016l-8.345-6.256Zm4.728 9.781c-4.415-1.123-2.771 3.2-2.771 3.2l-.893-1.79-1.902-.199-3.622-.527c-2.126-2.387-4.302-6.701-4.302-6.701 2.596 1.819 5.368.222 5.368.222l8.122 5.795Z"/>
  <path fill="#726699" d="m339.044 50.943.243 3.467s-4.492 5.394-.109 9.182c0 0 4.041 6.748 3.595 11.852 0 0 .45 1.907 1.356 1.429 0 0-.106 3.261 2.838 1.206 0 0 1.41 4.896 4.674 1.929 0 0 5.639 3.127 14.5-4.284 6.995-7.354 5.471-12.133 5.471-12.133s.676 1.886 3.122 3.036c0 0 3.236-5.301 3.218-7.224-.018-1.922-.776-2.201-.776-2.201l1.209-1.253s-2.185-2.887-4.958-1.096c0 0-1.242-1.324-2.831 2.615l-1.744-.228s-.09-4.903-.73-5.367c0 0-7.412 3.091-14.524 2.939-7.112-.152-13.754-3.505-14.554-3.869Z"/>
  <path fill="#68529b" d="m349.233 60.584 2.525-4.954s14.638-2.324 16.254-4.208c0 0 1.363 3.817.606 5.992h2.02s.808 2.609.707 8.021c-.101 5.412-7.272 13.482-15.957 15.56-8.685 2.078-7.07-.58-7.07-.58l-.605-4.011s6.816-.048 2.272-2.368c0 0 4.544 1.885 8.887-1.981 4.343-3.866 8.181-10.244 8.181-10.244s-2.778 3.914-10.251 2.996l-5.044-.976s2.004-2.01 0-2.814l-2.525-.433Zm11.291-.651c-1.614.234-2.851.893-2.759 1.47.091.576 1.476.854 3.091.62 1.614-.235 2.851-.893 2.759-1.47-.091-.577-1.476-.855-3.091-.62Z"/>
  <path fill="#68529b" d="m346.65 61.368.739.531 1.313-.531c.834 1.21 2.182.186 3.975.405.388.934-.378 1.53-1.428 1.499-.523-.015-1.058-.376-1.638-.408-.951-.051-1.609.221-2.11.24 0 0-1.368-.901-.851-1.736Zm26.342-2.546s1.746-5.117 4.574-1.986c0 0-1.575-.348-.848 1.353 0 0-.606 7.152-2.868 5.451-2.263-1.701-.52-2.677-.166-3.1.417-.498.197-1.331-.692-1.718Z"/>
  <path fill="#3a2a60" d="M372.972 58.859s.48-.047.662.491c0 0 1.158-2.09 1.82-2.074.662.015 1.092-.634.43-1.014 0 0 .662.159.993.57l.546-.269s-1.26-1.313-2.714-.76c-1.208.459-1.654 2.724-1.737 3.056Z"/>
  <path fill="#724b84" d="M347.333 54.174c1.105.043 1.966.935 1.921 1.99-.045 1.055-.978 1.877-2.084 1.834-1.105-.043-1.965-.934-1.921-1.989.045-1.056.979-1.878 2.084-1.835Z"/>
  <path fill="#433b7b" d="M373.63 54.88s-1.65-1.493-2.98 2.696l-1.875-.252s.626-4.384-.927-5.559c0 0 7.253-5.613 11.023-3.756 0 0 2.965 2.798 1.865 7.981-.837 2.463-2.008 4.161-3.202 5.807 0 0 .948-3.384-.255-4.638l1.074-1.249s-2.123-2.824-4.723-1.03Zm2.412 9.599s1.497 3.468.298 5.456c0 0 3.058.727 3.484 2.673.426 1.946-1.417 4.358-4.067 3.242-2.65-1.116-2.953-3.412-3.118-3.769-.165-.357-1.916-2.873-1.916-2.873l1.1-5s1.668 2.313 2.826 2.47l1.393-2.199Z"/>
  <path fill="#988ea9" d="m364.539 170.178-10.27-7.036-6.214-.163s-9.093 3.592-9.216 8.012c0 0 4.459.205 5.726-.652 0 0 1.795 3.896 7.343 3.49 6.095-.907 12.631-3.651 12.631-3.651Z"/>
  <path fill="#897c9f" d="M343.772 155.058s-5.664-6.566-11.764-5.777c0 0-6.037 1.996-8.079 6.399 0 0 1.653.931 3.296-.081 0 0 5.681 8.018 16.547-.541Z"/>
  <path fill="#988ea9" d="M371.4 116.931s-1.039.197-2.66.082c-3.373-.239-9.035-.756-11.493.322-3.14 1.377-4.679 4.64-4.679 4.64s-1.068 5.42.654 6.12c1.525.243 2.061-2.63 1.911-3.531 0 0 2.005-1.927 2.197-3.219 0 0 2.481.74 3.308-.288 0 0-.372 3.735-1.328 5.689.674 1.512 2.797 3.131 2.797 3.131l.078 1.32 3.598 1.204c1.78.747 4.001.817 5.488.138l-.603-.677-1.384-.668-1.447-1.963.007-1.529c4.512 1.491 7.946 1.365 9.835-1.08.679-4.823-1.127-8.218-6.279-9.691Zm-84.855-27.385s.344-.287 1.654.597c1.31.884 6.586 2.351 6.586 2.351s.955 2.488-.746 2.701l2.123 1.38s.269 2.421-.943 2.8c0 0 .714 2.711-1.704 2.721 0 0 .966 1.419-4.785 1.345-3.366-.252-3.488-3.383-3.488-3.383s-1.344-1.507-.486-2.924c0 0-1.766-1.51.151-3.787-.527-.943-.9-2.304-1.041-4.29l2.227-1.404s.839 1.394.452 1.893Zm1.268-4.256-1.755-3.582c-.109-2.919 3.836-1.715 3.836-1.715l.736 2.854-2.817 2.443Z"/>
  <path fill="#a08025" d="m382.819 174.171-5.055 2.677s-.267-3.081-1.465-1.754c-.079 1.186-1.245 2.695-2.28 2.832 0 0-2.128-1.432-2.445.397.063 1.422-.871 2.898-1.461 2.278-.59-.619-2.159-1.247-1.916 1.428l-2.376 1.207s-1.984-1.888-2.026.64c.148 1.071-1.603 1.675-2.251 1.873-.648.198-2.171-2.163-3.381.773 0 0-5.48 2.383-12.852 1.589s-11.124-4.518-11.124-4.518l-.628-2.701 4.789-4.236s.091 4.171 7.385 4.522 23.256-1.885 26.325-7.619l1.555.172 7.3-4.748 1.906 5.188Zm-39.408-11.858-.274 3.329s-2.782 1.021-3.464 2.932l-2.669.443s-.473-1.767-1.724.12l-2.551.03s-.57-2.44-2.216-.043l-2.332-.58s-1.145-2.083-3.153-.046l-4.345-1.992s.376-2.762-1.53-2.849c0 0 .419-3.96 3.301-5.12 0 0-1.671 2.941 1.197 4.904 14.74 2.65 19.76-1.128 19.76-1.128Z"/>
  <path fill="#988ea9" d="m365.391 63.692.323.161s-3.103 7.409-10.321 10.26c0 0-6.469.751-10-1.507l-1.931-5.144.759-1.404s3.023.115 3.891 1.577c0 0 .779-1.332 2.599-.58 1.821.751 7.482 3.661 14.68-3.363Zm19.154-8.79c.296.807 1.376 2.39 1.184-.858-.192-3.247-3.758-8.682-7.851-9.529-4.094-.848-9.839 1.856-11 2.453-1.162.598-10.203 4.243-13.444 4.317-3.241.074-6.505-.251-9.047-1.852-2.679-1.688-6.832-7.139-7.303-9.252-.436-1.958-.023-4.721-.023-4.721l2.231-.841 7.077 3.087-.356-.845-8.343-7.221s-1.91 2.529-1.971 4.096l-2.899 2.21s1.406 8.655 5.793 13.27c4.387 4.614 14.182 5.794 16.905 5.448 2.723-.346 8.759-.872 13.772-3.967 5.012-3.095 11.342-6.538 15.275 4.205Z"/>
  <path fill="#726699" d="M349.51 170.546c2.833 1.545 5.483 1.522 7.888-.587.273-.552.094-1.071-.808-1.54-1.51 1.238-4.036 1.844-7.08 2.127Zm-17.494-14.849c2.083 1.244 4.081 1.199 5.965-.562.225-.457.108-.884-.556-1.26-1.181 1.035-3.105 1.558-5.409 1.822Z"/>
  <path fill="#3e2158" d="m375.944 172.275-.313-7.456-1.742.487c-10.307 0-15.388-8.752-15.388-8.752l.685-5.158c1.335-16.754-8.362-23.923-8.473-25.941l1.58-.314c-1.208 3.153 1.811 2.845 1.811 2.845l5.401 6.246 12.693 24.438 8.649 9.931-4.903 3.674Zm-31.219-46.593 3.639.296 2.723 14.066-1.106 13.776s-4.99 5.73 1.905 5.817c0 0-6.034 1.758-2.132 3.176l-6.615 2.664 1.932-8.251-2.527-3.378s5.649 1.671 2.342-3.877l1.475.765 1.961-10.503-.735-6.984-1.527-3.053-1.335-4.514Zm-6.894 10.769 2.229 10.358c-2.462 2.222-.975 4.667-.975 4.667-.883-1.156-4.646-2.178-4.646-2.178l1.673-2.534c-1.626-4.979 1.719-10.313 1.719-10.313Zm18.726-55.575 5.734-2.014s-5.173 11.091-5.464 24.914l-5.134 6.62 4.864-29.52Zm-13.697-7.56c-9.219 3.877-23.71.569-23.71.569l23.078-2.454.632 1.885Zm-4.779 50.126-1.522 4.711c-1.189-1.775-.357-5.508-.357-5.508l1.879.797Z"/>
  <path fill="#281a42" d="M373.786 95.75s-.632 3.322 0 6.886c.631 3.564-5.224 5.111-6.265 10.744 0 0-4.782-.778-9.516 3.39 0 0 12.482.144 13.646.267l.064-3.278.286-.379a16.709 16.709 0 0 1 2.813-7.284l2.509 1.473 3.038-2.845s-5.104-2.863-6.575-8.974Z"/>
  <path fill="#726699" d="m392.2 159.075-1.037 5.279 4.636.52s3 9.189-5.159 11.076c-6.631.511-7.393-.371-7.393-.371s.996-5.194-7.695-12.886c-6.347-9.27-11.516-18.723-15.776-28.318l-5.616-6.384s1.292-1.19 1.274-3.515c0 0 1.372-.854 1.689-1.929l3.101 2.06-.698 2.13 3.016 3.307-.016 1.35 3.588 1.148c2.988 3.021 4.518 5.76 5.347 7.921.107.279 1.214.074 1.37.322 6.782 10.799 13.875 15.828 19.369 18.29Z"/>
  <path fill="#988ea9" d="M342.628 74.837s-10.276 15.716-6.014 28.497l14.355 9.664 5.606-32.206s-11.359 6.291-13.947-5.955Z"/>
  <path fill="#4e2460" d="M370.532 69.345s5.954 12.242.806 22.649c0 0-6-5.88-5.567.513 1.893 2.019 3.239 4.677 3.239 4.677l-.926 1.136s-8.07-4.189-16.482 12.491c.86-9.006 2.273-18.675 5.481-30.498 0 0 11.344-3.075 13.449-10.968Z"/>
  <path fill="#5f2c75" d="M388.12 41.399c.438.401.757.914.898 1.506.414 1.736-.863 3.498-2.851 3.932-1.987.434-3.936-.624-4.35-2.361-.414-1.736.863-3.498 2.851-3.932.227-.05.454-.08.678-.092"/>
  <path fill="#4e2460" d="m341.881 69.182.7 4.289s-13.274 4.765-25.557 1.427c0 0 14.073-7.89 24.857-5.716Z"/>
  <path fill="#352052" d="m286.26 87.392-.005.004.005-.004Zm.319 1.36c-.174-.876-.286-1.363-.319-1.36.313-.27 18.303-15.694 33.457-11.491 15.288 4.241 22.974-3.558 22.974-3.558l-.294 3.05s-8.027 10.191-5.608 28.088l-11.351-7.465s-2.694 1.536-2.299 4.121l12.912 8.51-2.153 9.303s2.025-.48.616 3.859c0 0 .531 5.05 2.464 6.947 0 0-.477 3.647 1.028 7.495 0 0-3.016 4.019-2.197 10.017l-1.754 2.43s-9.381 1.209-11.611 10.007c0 0-2.193.4-2.813 3.124 0 0-7.123 2.965-11.751-.61-4.627-3.575-3.967-6.094-3.785-8.254 0 0 3.092-2.095 5.523-1.596l-15.626-19.48s-2.612-15.698-4.802-28.446c5.238-.005 4.325-1.347 4.325-1.347 2.418-.01 1.704-2.721 1.704-2.721 1.212-.379.943-2.8.943-2.8l-2.123-1.38c1.701-.213.746-2.701.746-2.701s-5.276-1.467-6.586-2.351c-.817-.551-1.258-.647-1.475-.641l-.083-.435a2.084 2.084 0 0 0-.062-.315Z"/>
  <path fill="#281a42" d="M336.307 140.841c.035 1.756-.096 6.912-2.759 8.272-3.225 1.646-7.374.163-10.935 9.659 0 0-2.67.615-3.196 3.175l-2.333.009-5.834.198s-5.675 1.897-7.421-8.901c0 0 5.017.553 4.335 3.592l2.755-1.267-2.696-3.976c2.929.793 16.057-3.692 23.292-7.416.471-1.663.507-4.033.059-6.688l-.055-.313a28.217 28.217 0 0 0-1.228-4.527c-2.05-5.675-5.142-6.685-2.931-24.169 2.211-17.484-1.605-14.324-.475-21.63 1.131-7.305-10.721-10.602-10.721-10.602 16.921 1.88 26.365-3.126 26.365-3.126l.47 1.447c-6.225 5.268-6.871 22.966-6.871 22.966 1.595 6.169-.586 14.765-.586 14.765-2.247 4.655-.593 6.135-.593 6.135l.374 5.279c.427.978 2.612 11.928 2.612 11.928-.581.946-1.183 3.218-1.628 5.19Z"/>
  <path fill="#23163a" d="m374.342 128.618 10.916 7.276s2.602-.602 3.306 2.182c0 0 4.815 5.624.849 10.486-4.093 2.732-6.634 2.816-11.953-1.408-2.477-2.801-3.733-5.004-4.606-6.34-.177-.271-1.243-.367-1.302-.579l-.316-.976 4.549-.019 2.534 5.052s6.516 3.962 6.213.043c-.763-3.317-5.139-5.868-5.139-5.868l-10.173-7.388s-1.552-1.714-1.494-1.717c.058-.004.123-1.652.123-1.652 2.214.711 4.398 1.175 6.493.908Zm-14.06-7.384s.556 2.307-.518 3.389l-3.014-2.203.609-1.007s1.533.773 2.923-.179Zm-2.905-4.028-3.722 3.415-30.207-20.981c-1.559-2.16 1.919-3.601 1.919-3.601l32.01 21.167Z"/>
  <path fill="#352052" d="m402.295 141.488 3.705 2.816s-4.196 16.198-14.22 14.459c0 0 2.852-14.211 10.515-17.275Z"/>
  <path fill="#988ea9" d="M371.746 117.046s-.368-3.814 1.014-6.61c.687-2.697 2.429-3.987 2.429-3.987s11.997 6.517 14.136 10.802c2.639 5.283-3.149 8.075-3.149 8.075l-1.982 1.132-.504 1.123.849.725-2.253 2.112s-6.803-.899-7.409-1.974c0 0 2.656-.1 3.006-2.862.623-4.908-3.935-8.599-6.137-8.536Z"/>
  <path fill="#3a2a60" d="M384.924 43.452s1.566-.314 2.307-1.133c.742-.818 2.748-4.018 2.748-4.018s1.728.348.859-1.083c.581-.353-16.369-20.633-34.388-16.606-7.351 4.142-10.79 9.814-10.105 17.099l-7.039-3.056s-3.066-.053-2.606 3.512c.459 3.565 4.648 10.389 9.586 12.34 4.937 1.95 11.304.246 14.479-1.07 3.174-1.317 11.22-4.972 14.282-5.03 3.062-.059 4.998.789 5.277 1.072 0 0 1.787-10.141 5.841-10.36l.677 2.339s-2.605 4.995-1.918 5.994Z"/>
  <path fill="#352052" d="M380.324 45.479s-.399-2.299 1.051-5.19c4.085-8.142-2.38-13.692-9.46-10.088-3.801 2.934-8.897 5.888-8.212 13.172l-4.593 1.475s-9.189-1.141-3.806 3.33c2.835 2.355-13.956.378-9.018 2.329 4.937 1.95 11.304.246 14.479-1.07 3.174-1.317 11.22-4.972 14.282-5.03 3.062-.059 4.998.789 5.277 1.072Z"/>
  <path fill="#3a2a60" d="M384.069 44.278s2.551 1.207 3.448-1.453c.269-.005 1.025 2.502-1.314 2.972-2.376.479-2.134-1.519-2.134-1.519Z"/>
  <path fill="#7b4f25" d="M381.97 39.965s-1.565 3.805-1.726 5.609c0 0-3.544-3.592-15.049 1.976-10.523-.89-17.185-3.916-18.93-10.09l1.102-6.453c4.608 9.379 15.721 12.753 34.603 8.958Z"/>
  <path fill="#23163a" d="M390.726 37.654c-.421.079-.498.132-.729-.056-.539-.438-5.716-10.107-18.343-14.302-8.208-2.728-14.425-1.811-14.973-1.448-7.438 4.93-9.802 8.724-10.074 15.042-.02.474.12.688-.357.696-.482.009-.353-.21-.378-.692-.295-5.548.96-10.653 9.455-16.996 2.388-1.783 19.907-3.543 31.904 11.693 1.53 1.944 2.887 4.253 3.369 5.096.65-.066.934-.147.997.619.117 1.392-.868 1.81-1.033 1.791-.107-.013-.526-.298-.558-.341-.128-.173-.124-.421-.252-.594l.708.159c.233-.25.287-.417.264-.667Z"/>
  <path fill="#23163a" d="M333.774 36.058c.954 6.308 4.628 14.863 13.533 16.889.608.138 3.048.901 10.375.256 12.192-1.074 12.155-5.531 18.535-6.173 6.035-.606 6.971 5.773 6.902 5.923-.062.132-.204.216-.266.348-.097-.107-.247-.157-.344-.264-.048-.053-1.051-6.937-8.132-4.326-4.805 1.77-5.875 6.344-21.915 7.064-15.432.693-19.96-12.887-20.524-19.759-.006-.077-.1-.541.21-.889.233-.261.27-.217 3.41-2.737-.518-.806-.597-.776-.638-1.116-.036-.301.125-.502.153-.537.114-.141 2.292-1.552 2.465-1.597.046-.012.321-.084.583.129 3.842 3.124 8.293 7.697 8.311 7.771.033.142-.031.294.002.435-.145.001-.328.101-.435.003-3.681-3.395-6.133-5.255-8.289-6.889l-1.057.772c.6.843.716.808.711 1.196a.783.783 0 0 1-.099.369c-.089.16-.115.148-3.491 3.132Z"/>
  <path fill="#23163a" d="M337.409 35.607c-.364.683-1.882 4.308 3.857 10.47 3.637 3.905 7.586 6.862 17.665 3.549 7.444-2.447 13.239-6.308 18.311-5.508 7.681 1.212 9.426 10.696 8.461 11.917-.919 1.161-2.802-2.603-3.039-3.045l.307-.158c.147.263 2.054 3.677 2.441 2.871.655-1.364-1.478-10.962-9.536-11.017-8.123-.055-23.096 13.499-33.462 3.574-.312-.299-7.216-6.535-5.845-11.914.111-.435.387-1.171.61-1.245 1.97-.654 1.965-.744 2.189-.678.041.012 7.109 3.24 7.111 3.242.033.036.251.467-.141.315-3.671-1.432-3.592-1.619-3.923-1.706-2.46-.654-2.586-.035-5.006-.667Z"/>
  <path fill="#23163a" d="M385.612 35.611c-1.024.72-2.912 2.497-4.292 6.846-.565 1.778-.751 3.054-.754 3.058-.076.099-.217.134-.293.233-.049-.115-.185-.18-.234-.295-.028-.066.648-7.819 4.897-10.894.426-.309 1.034-.813 1.479-.332.126.136 1.272 2.824 1.283 3.012a.667.667 0 0 1-.065.323c-1.499 3.087-1.572 3.049-1.669 3.331-.182.533-.217 1.106-.305 1.665.325-.045.655-.084.892-.286.937-.8 1.546-1.919 2.321-2.878.306-.379.564-.802.92-1.134.107-.099.316-.017.422-.116-.067.131.072.311.005.442-.007.013-3.283 4.747-3.385 4.83-.125.1-1.795.474-1.963.453a.528.528 0 0 1-.369-.228c-.123-.184-.248-1.866-.157-2.074.125-.284 1.121-2.48 1.748-3.815.077-.164.28-.316.234-.491-.151-.579-.467-1.103-.715-1.65Z"/>
  <path fill="#23163a" d="M381.529 39.918c-.129.139-.06.218-.246.266-18.207 4.761-30.602-.589-34.044-9.137-.031-.077-.094-.149-.091-.232.004-.094.106-.166.109-.259.069.063.191.045.26.109.241.223 2.231 7.361 14.236 9.697 9.936 1.934 19.345-.611 19.535-.59.093.01.147.136.241.146Zm-15.191 7.533c-.09.026-.113.169-.204.195-.007.002-2.071.052-4.285-.14-14.613-1.265-15.76-10.117-15.754-10.138.025-.09.119-.151.145-.241.057.074.184.07.241.145.111.145.938 6.616 13.277 9.17 2.912.603 5.347.744 6.322.803.171.01.119.095.258.206Zm-27.469 6.794-.251-4.228c.062-.101.165-.172.227-.273.027.141.259.182.285.323.016.087.536 4.312.515 4.411-.038.175-1.8 2.048-1.957 4.455-.154 2.359 1.173 3.301 2.228 4.978 2.972 4.724 4.799 11.586 1.198 16.089-.037.046-.056.115-.111.136-.111.043-.243.002-.354.046.013-.118-.057-.235-.044-.353.018-.168 3.932-4.152-.513-13.065-1.957-3.924-2.999-3.959-3.417-6.316-.521-2.944 1.593-5.524 2.194-6.203Z"/>
  <path fill="#23163a" d="M343.979 81.908c-.77-.06-2.751-.298-3.33-1.538a1.115 1.115 0 0 1-.054-.138c.069-.196.186-.371.255-.567.182.093.376.161.558.253.03.015.081.137.106.167.447.522 1.728.66 2.494.656.719-.004.64.229 1.477.77 3.831 2.478 6.647.415 7.105.079.949-.695 1.094-1.118 1.592-1.271 2.305-.711 14.776-3.921 16.689-14.557.197-1.097.188-1.906.189-1.908.106-.176.315-.273.421-.449.114.207.344.333.458.54 0 0 .051.657.004 1.489-.215 3.799-1.959 7.651-5.122 10.676-4.476 4.283-10.079 5.634-11.899 6.079-.782.707-2.893 2.456-5.906 2.153-2.601-.262-4.502-1.923-5.037-2.434Zm27.703-22.322c-.061-.054-.146-.089-.183-.162-.124-.242-.451-4.423 2.942-5.296 2.512-.646 4.035 1.734 4.038 1.768.028.246-.052.311-.277.204-.069-.032-1.748-2.191-4.154-.922-2.374 1.252-2.154 4.098-2.205 4.224-.03.076-.1.237-.161.184Z"/>
  <path fill="#23163a" d="M376.944 62.967c.035.018.064.04.072.076.06.268-.349.273-.447.133-.367-.522 2.437-2.811 3.65-6.953 1.521-5.192-1.859-8.34-1.934-8.567-.078-.236.022-.341.256-.234.134.061.759.835.821.911 5.431 6.725-1.415 13.292-2.418 14.634Zm-4.299-1.63c.067-.241.157-.17.598-.589 1.368-1.301-.402-1.749-.295-1.988.077-.173 1.515.409 1.238 1.407-.22.79-1.586 1.33-1.541 1.17Z"/>
  <path fill="#23163a" d="M377.483 57.12c2.286 2.962-1.611 8.187-2.39 9.499-.714 1.204-3.859-1.425-3.905-4.192-.001-.095-.027-.292.157-.296.199-.004.171.291.185.4.282 2.184 2.445 3.717 2.964 3.707 2.188-3.78 4.122-6.705 2.527-8.994-.056-.08-.034-.196.031-.262l1.136-1.141c.075-.014.447-.077.232.218-.278.381-.639.696-.937 1.061Zm-4.386 1.283c-.059-.12-.086-.137.168-.871 1.112-3.21 3.559-1.5 3.601-1.478.141.072.055.196-.06.179-.738-.114-2.063-1.274-3.525 1.96-.022.05-.029.11-.065.151-.029.033-.099.098-.119.059Z"/>
  <path fill="#23163a" d="M374.131 63.938c-.17-.025-.862-.034-1.281-.753-.492-.842.027-2.521.087-1.506.007.118.049.833.385 1.418.291.505.749.611.842.647l-.033.194Zm11.512-23.504c-.12.093-.206.226-.327.319-.002.001-1.952.184-2.752 1.935-1.22 2.672 2.682 4.746 5.079 2.738 1.22-1.022 1.325-2.625.346-3.736-.022-.025-.063-.042-.069-.076-.024-.136.007-.278-.017-.414.139.016.28-.032.419-.016.165.02 2.181 1.961.679 4.425-1.727 2.834-6.567 2.723-7.701-.565-.77-2.235.999-4.783 3.849-4.884.042-.001.09-.022.126-.001.134.074.234.201.368.275Z"/>
  <path fill="#68529b" d="M383.811 42.33a.829.829 0 0 1 0 .657c-.219.092-.449.081-.687 0a.833.833 0 0 1 0-.657c.248-.246.476-.239.687 0Z"/>
  <path fill="#23163a" d="M356.067 64.746c.134-.041.219-.188.353-.229.003-.001 3.453.322 7.066-.827.285-.09 2.067-.657 3.232-1.894.202-.215.228-.173.511-.241.006.132.086.254.092.386.006.157-1.774 2.979-5.516 3.576-2.572.41-5.468-.44-5.473-.444-.106-.093-.159-.235-.265-.327Zm11.724-7.32c-.13.016-.229.143-.359.159-.145.019-2.309-.947-6.775.294-2.151.597-3.642 1.472-4.095 1.728-.143.081-.147-.017-.415-.047.053-.12.011-.269.064-.389.01-.024 2.974-2.798 6.322-3.071.363-.03 2.563-.258 4.95.894.049.023.115.028.147.072.076.107.085.253.161.36Z"/>
  <path fill="none" d="M354.968 54.527c-2.35 1.763.833 5.542 6.592 1.219 5.759-4.324 4.677-1.583 4.663-.782"/>
  <path fill="#23163a" d="M379.206 47.793c.16-.278 2.646-.467 6.038 8.368 0 0-2.386 2.336-4.895 1.283 0 0 1.533-5.861-1.409-9.369l.266-.282Zm-22.132-6.328c.099.006.186-.095.286-.089.054.003 3.873 1.528 10.28 1.942 1.888.122 4.069.097 5.781-.161.109-.017.361-.105.412.105.053.22-.227.25-.334.276-5.964 1.479-11.342-.064-12.287-.336-1.971-.565-3.523-1.266-3.827-1.402-.054-.025-.123-.031-.164-.075-.068-.073-.079-.187-.147-.26Zm-.492 2.061c-.088-.002-.156.101-.244.1-.001-.001-2.682-.833-4.794-2.391-2.733-2.016-3.883-4.701-3.88-4.807.003-.087.096-.156.098-.243.069.054.175.043.243.097.088.069.653 1.48 3.535 3.79 2.969 2.379 4.857 3.128 4.941 3.211.063.061.039.181.101.243Zm-9.244 10.513c.012 0 .919-.049 1.608.681 1.678 1.777-.58 4.509-2.784 3.349-1.876-.987-1.537-4.062 1.176-4.03Zm-.01.269v.002c-2.718.23-2.102 3.563.113 3.347 1.853-.181 2.322-2.935-.113-3.349Z"/>
  <path fill="#23163a" d="M347.263 55.714c.407.015.726.309.711.654-.014.346-.357.613-.764.597-.407-.015-.725-.309-.711-.654.015-.346.357-.613.764-.597Z"/>
  <path fill="#23163a" d="M345.261 56.343s1.038-.851 1.613-.131c.369.462.896.245.896.245s.892-.593.894.572l.159.02s.55-1.102.048-1.47l-3.18-.63a1.983 1.983 0 0 0-.43 1.394Zm7.766 5.566c.021-.302.014-1.262-1.688-1.025-.099.014-.255.072-.306-.099-.06-.198.221-.257.331-.291 2.1-.652 2.798.978 2.32 2.029-.063.139-.455 1-1.496 1.197-1.145.217-2.284-.492-2.506-.611l.143-.312c1.12.329 2.567.746 3.202-.888Z"/>
  <path fill="#23163a" d="M349.188 57.558c-.07.091-.069.225-.14.316-.106.138-3.932 2.359-6.046-1.816-.713-1.41-.91-2.988-1.048-2.982-.201.007-.616.299-.97.666-.046.047-.074.117-.134.143-.098.041-.217.005-.314.046.016-.106-.062-.212-.046-.317.001-.007.483-.761.974-1.07 1.155-.726 1.506.849 1.77 1.472 1.093 2.574 2.358 4.573 5.436 3.511.063-.021.121-.07.188-.066.114.007.216.091.33.097Z"/>
  <path fill="#23163a" d="M343.119 57.302c-.082-.002-.146.093-.641-.445-.155-.169-1.048-1.14-.698-2.782.006-.028.002-.062.02-.084.324-.403.12.21.653 1.748.508 1.467.89 1.568.666 1.563Zm7.114 5.317a.669.669 0 0 0-.27.144c-.203.158-1.141.998-2.444 1.358-.101.028-.261.073-1.186-.563-1.38-.948-1.276-2.197-1.01-3.088.11-.369 1.289-.691 2.665-2.134 1.256-1.317 1.442-2.401 1.483-2.666-.102-.2.281-.331.34-.086.044.18-.019 1.212-.862 2.518-.968 1.499-2.337 2.408-2.854 2.738-.286 1.422.226 1.772 1.373 2.544 2.295-.581 2.36-1.816 3.504-.933.128.099.393.577-.443.446-.101-.016-.341-.027-.311-.226a.187.187 0 0 1 .015-.052Zm-.631-6.994.023-.006c-.009-.008-.016-.004-.023.006Zm25.479 8.137c-.016-.074-.064-.147-.048-.221.028-.122 1.995-3.88 1.329-5.622-.109-.285.135-.24.265-.176.098.048 1.232 1.969-.383 4.632-.075.124-1.078 1.777-1.163 1.387Zm-1.594-9.081c.025.016.044.034.043.06 0 .211-.228.186-.293.088-.031-.047.005-.041.043-.081-.167.056-.24-.074-.791.258-1.338.804-1.376 2.747-1.479 2.905a.376.376 0 0 1-.358.166c-1.819-.208-2.203-.252-2.324-.42-.209-.292.26-1.171.184-3.14-.049-1.28-.372-2.342-.372-2.347.008-.218.156-.286.301-.103.01.013.391.956.561 1.898.264 1.469.169 2.47.079 3.133l1.333.189c.174-.695.659-2.101 1.869-2.67 1.056-.496 1.202.008 1.235.053l-.031.011Zm-.114-.086-.002-.013.002.013Z"/>
  <path fill="#23163a" d="M350.339 65.741a2.366 2.366 0 0 1-.305.008c-.972-.038-1.813-.348-1.782-1.078.031-.73.622-1.735 1.594-1.697.523.02 1.287.339 1.598.624 1.371-.378 4.652-1.052 5.922.721 1.465 2.045 2.591 7.93 4.291 9.36.973-.243 1.431-1.145 1.477-2.234.054-1.271-.94-1.927-.797-1.922 1.645.064 2.336.906 2.266 2.542a2.988 2.988 0 0 1-3.106 2.848 2.97 2.97 0 0 1-1.887-.768c-1.136-.732-2.624-2.511-4.428-6.406-3.393-1.004-4.49-1.661-4.843-1.998Zm-7.366-2.17c.629-2.056 2.429-2.391 2.627-1.802-.294.311 2.076 2.146 2.345 2.057.433-.143-.031 1.267-.592 1.28-.06.001-.513.052-.57.042-1.003 1.275-.691.764-2.582 1.482-1.049 3.343-1.911 4.856-2.568 5.468-.29.383-.675.694-1.09.629-.954-.149-1.877-.653-1.913-2.074-.037-1.42.462-2.177 1.411-2.2.083-.002-.498.319-.47 1.424.024.945.322 1.545.882 1.776.984-1.206 1.647-6.289 2.496-8.034l.024-.048Z"/>
  <path fill="#23163a" d="M361.812 71.198c-1.99 2.424-3.043 4.349-5.435 5.71-.495.282-6.212 1.51-10.255-.968-1.674-1.026-1.945-2.106-2.016-2.399-.024-.1-.054-.245.122-.289.22-.056.153.088.372.517 1.383 2.711 7.283 3.354 11.413 2.364.026-.006.65-.353 1.09-.67 2.022-1.46 4.199-4.472 4.434-4.514.037-.007.57-.111.275.249Zm-21.928-11.047c.074.047.175.038.249.085.014.009.805 1.513 3.199 2.276.848.271 1.576.32 1.822.351.148.018.088.095.208.225-.281.202-.296.166-.637.209-2.25.288-3.991-.63-4.807-2.582a5.17 5.17 0 0 1-.118-.314c.006-.088.078-.162.084-.25Zm7.896 7.486c.023-.251-.094-.279.039-.423 1.448-1.566 3.582-.314 3.945-.193.636.212 6.265 2.123 11.856-2.208.779-.604.745-.651.825-.681.038-.014.585-.22.354.356-.006.014-.756.849-1.547 1.508-.403.335-4.586 4.126-10.46 2.4-2.222-.652-2.662-1.582-3.947-1.182-.365.113-.62.325-.667.364-.153.128-.18.027-.398.059Z"/>
  <path fill="#23163a" d="M341.067 62.1c.069.053.175.044.244.098.219.171 1.25 3.155 4.16 3.693.36.067 1.999.137 2.609 1.372.086.172-.001.173-.05.361-.146-.084-.186-.025-.286-.165-1.181-1.662-3.859.659-6.07-3.415-.348-.643-.706-1.676-.704-1.699.008-.088.089-.158.097-.245Z"/>
  <path fill="#23163a" d="M365.985 63.211c-.008.088.1.16.092.247 0 .003-.339.806-.754 1.61-3.098 5.998-8.231 9.334-10.521 9.581-2.694.292-9.334-.452-9.939-2.346-.767-2.405-.764-2.401-1.55-4.798-.057-.173.105-.542.322-.207.051.078 1.82 4.835 1.867 4.898 1.073 1.479 8.306 1.944 9.909 1.393 1.718-.59 6.887-3.456 10.17-9.965.053-.107.075-.235.158-.32.062-.063.185-.03.246-.093Z"/>
  <path fill="#23163a" d="M345.575 69.199c3.162 1.598 5.615 1.74 9.64 1.409 1.012-.083 7.729-3.431 9.972-6.9.053-.082.163-.346.345-.239.16.093.057.241.007.327-2.24 3.936-8.887 7.546-10.292 7.649-1.976.145-6.098.536-10.034-1.864-.449-.274.161-3.201.262-3.333.151-.199.289-.154.327.085.043.266-.406.874-.227 2.866Z"/>
  <path fill="#23163a" d="M343.333 67.392c.05.007.109-.006.15.023.125.088 1.994 2.007 2.073 2.079.75.688-.818.139-1.652-1.002a7.426 7.426 0 0 1-.3-.441c-.371-.603-.327-.668-.271-.659Zm4.009-.402.85 1.294.611-1.201-.841.127-.62-.22Zm6.395 1.102.575 1.426.84-1.067-.851-.029-.564-.33Zm-2.274 6.214.716-1.366.728 1.14-.85-.05-.594.276Zm-3.516-4.856c-.222.431-.26.501-.495.915.383-.129.56.104.989.231l-.29-.571-.204-.575Zm.956 4.329-.854-1.609-.602 1.41.799.072.657.127Zm3.27-2.578-.472-1.373c-.135.757-.571.823-.984 1.175l.799.072.657.126Z"/>
  <path fill="#23163a" d="m345.128 69.561.22 1.299.237-1.157-.457-.142Zm-4.288 10.364-.002-.005s1.93-2.062 1.881-5.709c0 0 .421 2.89 2.018 1.501 0 0-.573 4.609 2.819.776 0 0 .481 3.111 1.851 3.077 1.543-.037 2.43-.869 2.592-1.35.162-.481.168 4.056 3.498-.037 0 0 1.88 1.432-.703 3.248-2.146 1.508-6.504 3.266-10.391.219l-.333.282c-3.938-.328-3.483-1.966-3.463-2.001.079-.003.157-.004.233-.001Zm30.937 11.403c-.057-.268-.253-.492-.311-.759-.004-.022 1.869-5.173.838-13.494-.356-2.87-1.194-5.47-1.944-6.969-.24-.481-.07-.502.016-1.032.266.07.549.064.815.134.067.018 3.926 4.539 4.233 10.891.265 5.489-2.817 10.87-2.887 10.915-.23.149-.53.164-.76.314Zm-20.376 20.86c-.101-.237-.394-.358-.494-.596a63.77 63.77 0 0 1-.093-2.834c-.091-10.085 1.466-16.647 4.23-24.648.362-1.048 1.203-3.227 1.219-3.235.21-.104.408-.387.63-.312.598.201.365.41.215 1.02-1.232 5.008-1.764 8.625-3.534 18.289-1.491 8.135-1.625 11.663-1.66 11.737-.109.233-.403.346-.513.579Z"/>
  <path fill="#23163a" d="M366.203 91.494c1.059 1.27 3.024 3.866 3.075 5.769.001.04.023.087.001.12-.1.148-.252.255-.351.402-.121-.127-.276-.219-.397-.347-.036-.039.025-.336-.565-1.31-1.019-1.684-3.664-4.071-3.75-4.193-.501-.704.22-1.346.817-1.876 1.529-1.36 3.502-1.827 5.043.002.491.583.753 1.06 1.014 1.356l1.043-1.609c.025-.038.037-.014.533-.197-.049.184.184.371.135.555-.028.105-.873 2.078-1.001 2.206-1.004 1.002-2.131-.566-2.604-1.03-1.052-1.031-1.672-.979-2.993.152Zm4.747.139a.677.677 0 0 1-.013.019l.013-.019Z"/>
  <path fill="#23163a" d="m368.141 97.748.967-.626c-.082.224.105.492.023.717-.027.072-.651.932-.722.982-.556.39-1.21-.718-3.305-.423-.787.111-3.549.291-9.776 8.747a66.282 66.282 0 0 0-3.865 5.857c-.012.019-.013.05-.034.059-.298.129-.31.091-.607.219-.004-.216-.215-.393-.219-.609-.002-.063 2.795-7.287 6.708-11.539 2.863-3.11 6.298-4.869 9.214-4.08a5.83 5.83 0 0 1 1.616.696Zm2.289-10.414c-.017-.098-.144-.153-.161-.25-.009-.05.565-2.879.278-8.258-.173-3.232-.735-4.883-.732-4.896.018-.097.098-.176.116-.273.079.061.196.058.275.118.026.021 1.356 2.948 1.443 6.793.071 3.108-.937 6.557-.969 6.604-.055.082-.195.079-.25.162Zm12.724-7.997-5.185-2.608c-.111-.228-.173-.479-.284-.707.271.058.521-.313.793-.255.08.017 7.651 2.658 7.91 2.808.549.321 1.017 1.526-.317 2.051-1.554.611-6.311 3.815-10.754 11.817-.085.152-.117.348-.252.457-.214.172-.532.174-.746.346-.018-.273-.236-.509-.254-.782-.009-.136 2.459-7.694 6.706-11.392.189-.166 1.197-1.043 2.383-1.735Z"/>
  <path fill="#23163a" d="M385.744 80.354a19.421 19.421 0 0 0-.904-.116c.064-.37.058-.749.122-1.119.004-.02.189-.132.191-.133 1.474-.835 3.811 1.323 9.14 9.1 4.468 6.519 9.452 15.572 9.705 16.378.069.22.603 4.059.596 4.295-.021.768-.312 1.077-2.811 3.611-.6.609-4.149 4.208-7.875 7.232-.106.086-.277.12-.328.247-.052.13.01.144-.401 1.699-.019.076-.149.567-.687.694-1.744.414-1.74.442-1.895.439-.652-.012-.507-.484-1.157-.496l2.001-1.529c.182-1.527.064-1.57.344-1.971.145-.208 3.858-3.898 9.083-10.385-.168-.865-.234-1.755-.483-2.601-.102-.346-.225-.281-2.194-3.933-5.678-10.536-10.11-19.71-12.45-21.323l.003-.089Zm-9.736-15.759c-.079-.133-.127-.317-.267-.351.432-.301.46-.596.866-.259 1.261 1.047 2.804 6.161-1.599 7.783-1.353.498-2.892.364-2.94.361-.059-.003-.127.018-.177-.013-.276-.172-.224-.237-.502-.41.166-.137.243-.362.409-.499.066-.055 3.892-.773 4.279-4.419.162-1.532-.194-2.064-.124-2.134l.055-.059Zm.142-.186.038-.056c-.032-.007-.041.017-.038.056Z"/>
  <path fill="#23163a" d="M373.923 70.473c2.939-2.862 7.946 1.075 6.54 4.495-1.348 3.277-6.542 2.114-7.383-1.493a3.458 3.458 0 0 1-.001-1.611c.224-.887.79-1.338.844-1.391Zm.417.422.003.003c-.007.01-.743.749-.45 1.998.663 2.83 4.978 3.596 5.369 1.013.345-2.282-2.826-4.5-4.765-3.13l-.157.116Z"/>
  <path fill="#a08025" d="M406.062 51.703c4.172 3.235 4.839 9.075 1.488 13.032-3.35 3.958-9.458 4.544-13.63 1.309-4.172-3.234-4.839-9.074-1.489-13.031 3.351-3.958 9.458-4.544 13.631-1.31Z"/>
  <path fill="#23163a" d="M406.36 51.318c7.624 5.81 3.884 16.638-4.953 17.857-7.836 1.08-14.195-6.238-11.675-13.452 2.338-6.694 10.89-8.948 16.427-4.568.068.053.134.109.201.163Zm-.597.771c-7.506-5.103-16.312 1.6-13.989 8.912 2.124 6.686 11.585 8.22 15.713 2.274 1.79-2.578 2.591-7.397-1.724-11.186Z"/>
  <path fill="#a08025" d="M393.919 69.845c2.807.838 4.458 3.444 3.684 5.818-.773 2.373-3.68 3.62-6.486 2.782-2.807-.837-4.458-3.444-3.685-5.817.774-2.374 3.68-3.62 6.487-2.783Z"/>
  <path fill="#23163a" d="M394.06 69.373c6.096 1.55 6.042 8.752.543 10.279-5.627 1.563-10.499-4.265-7.492-8.457 1.006-1.402 3.488-3.021 6.949-1.822Zm-.282.945c-5.419-1.001-7.459 4.439-3.207 6.601 3.803 1.934 7.834-1.131 5.795-4.509-.919-1.521-2.489-2.053-2.586-2.092h-.002Z"/>
  <path fill="#a08025" d="M382.39 66.38c.221-.904 1.119-1.477 2.005-1.279.886.198 1.426 1.092 1.206 1.996-.22.904-1.119 1.477-2.005 1.279-.886-.198-1.426-1.092-1.206-1.996Z"/>
  <path fill="#23163a" d="M382.224 66.34c.709-2.772 4.369-1.575 3.787.857-.512 2.144-3.651 2.037-3.865-.118-.039-.398.077-.733.078-.739Zm.331.079h.002c-.195 2.23 2.664 2.027 2.676.261.008-1.356-1.951-1.996-2.678-.261Z"/>
  <path fill="#a08025" d="M379.971 58.417c.73-.989 2.112-1.259 3.085-.602.973.657 1.171 1.994.442 2.983-.729.989-2.111 1.259-3.085.602-.973-.657-1.171-1.994-.442-2.983Z"/>
  <path fill="#23163a" d="M379.765 58.265c.005-.007.565-.999 1.827-1.202 2.847-.459 4.102 3.365 1.583 4.868-2.388 1.425-5.042-1.126-3.636-3.361.101-.161.111-.15.226-.305Zm.413.302.001.001c-1.253 2.455 1.894 3.537 2.943 1.647.875-1.574-1.141-3.389-2.944-1.648Zm-32.689 23.546c.001.002.869.766.763 1.991-.235 2.718-4.286 2.971-5.205.282-.848-2.481 2.248-4.724 4.442-2.273Zm-.365.329-.001.001c-2.171-1.768-4.118.799-2.425 2.27 1.42 1.234 3.793-.128 2.426-2.271Zm34.349-46.822c-.037.18-.03.19-.178.296-4.762 3.434-7.322 1.178-5.474-.599.933-.898 2.696-1.439 4.144-1.693.122-.021.242-.072.365-.062.198.017.226.179.059.273-.051.029-2.524.573-3.896 1.738-.941.799-.71 1.453.528 1.479 1.834.039 4.104-1.378 4.112-1.383.048-.028.089-.079.145-.087.065-.009.208-.027.195.038Zm-7.93 60.349c-.053.02-.102.03-.142 0-.33-.247.009-.491.043-.515.947-.681 1.506 3.172 5.406 7.377 1.313 1.415 2.017 1.44 1.919 2.04-.036.224-.605 1.121-1.361 1.754-.908.761-1.851.979-2.089 1.056l-.207-.547c1.207-.61 1.723-1.037 2.309-2.13-.847-.52-2.143-1.455-3.374-3.395-1.491-2.349-2.023-4.675-2.504-5.64Z"/>
  <path fill="#23163a" d="M388.81 102.078c-.041.14.02.296-.02.436-.016.054-1.688 2.266-3.806 2.931-2.772.87-5.009-.572-5.029-.612-.062-.123-.058-.272-.121-.395.136-.018.257-.105.393-.123.172-.022 1.306.605 3.901-.119 2.695-.752 4.187-2.087 4.246-2.102.14-.038.295.021.436-.016Zm-16.211 12.166-.549.024.05 2.527c.004.202-.104.146-.265.372-.034-.154-.292-.189-.326-.343-.032-.146-.387-2.989-.372-3.064a.462.462 0 0 1 .362-.353c1.32-.225 1.347-.258 2.622.146 5.121 1.623 6.536 6.223 6.764 6.965.275.892.905 3.183.518 6.791-.011.096.017.206-.033.289-.072.118-.239.158-.31.276-.058-.125-.216-.185-.274-.31-.044-.095.283-4.974-2.187-8.763-.731-1.121-2.546-3.583-6-4.557Z"/>
  <path fill="#23163a" d="M372.692 110.889c-.243.408-.469 1.714-.556 2.358-.018.131-.003.27-.051.393-.069.176-.242.171-.279-.024-.004-.022.11-2.375.487-3 .152-.252.299-.511 2.646.592 4.013 1.887 8.428 5.081 8.623 6.369.012.078.024.192-.118.208-.144.017-.19-.265-.241-.353-.336-.574-1.395-1.702-7.235-4.96-2.535-1.414-3.086-1.54-3.276-1.583Z"/>
  <path fill="#23163a" d="M374.958 106.817c-.625.853-1.552 2.142-1.918 3.533-.012.046 0 .106-.035.14-.098.096-.244.135-.342.231-.053-.127-.178-.216-.231-.344-.004-.01.094-.593.245-1.059.163-.506.475-1.445 1.736-3.399a.492.492 0 0 1 .609-.173c8.534 3.656 12.035 7.634 12.852 8.561 1.793 2.038 3.622 5.192 1.881 8.106-.041.069-.06.16-.128.204-.133.087-.313.082-.447.169.009-.158-.071-.313-.062-.471.007-.127 1.821-2.503-1.29-6.204-3.44-4.093-11.078-8.328-12.87-9.294Zm3.096 19.709 2.024 2.026c-.101-.049-.236.054-.337.005-.003-.001-2.31-1.64-2.372-1.723-.224-.3.385-1.776-.198-4.191-1.114-4.62-5.986-5.518-6.007-5.535-.079-.06-.101-.176-.179-.236.094-.033.145-.147.24-.18.027-.009 4.241.37 6.201 3.775 1.37 2.38.85 5.046.628 6.059Z"/>
  <path fill="#23163a" d="m384.456 126.503-.312.726c.848.763.904.726.985.964.143.422-.345.725-.347.727-2.284 1.961-2.348 1.965-2.49 1.975-.219.015-6.901-1.706-6.924-1.716-.105-.045-.113-.219-.217-.264.113.001.189-.153.302-.153.337.001 5.819.985 6.324 1.076.112.02.238.122.335.063.184-.113.165-.161 1.763-1.56l-.724-.682c-.364-.475.501-1.696.589-1.821.235-.33.494-.027 1.842-.705 1.818-.915 3.624-2.649 3.631-2.652.315-.149.375.033.304.29-.006.024-1.66 1.878-3.315 2.929-.852.541-1.418.724-1.746.803Z"/>
  <path fill="#23163a" d="M383.435 120.531c.062.078.192.078.254.156.034.043.706 1.688.804 2.591.183 1.673-.308 2.857-.317 2.864-.531.405-.322-.209-.511-1.428-.301-1.947-.256-1.948-.384-3.915-.007-.103.102-.179.154-.268Zm27.935 17.005c-.336-.199-.806-.063-1.142-.263-.351-.209-.552-.603-.825-.907-.449-.498-.828-1.068-1.342-1.498-.053-.044-.084.071-.828-.215-6.739-2.59-10.29-7.502-12.217-14.36-.355-1.263-.636-3.053-.624-3.082.145-.341.442-.603.587-.944.288.231.654.351.942.581.109.088 1.41 4.17 6.364 9.767 4.795 5.419 6.931 5.879 7.349 6.317.132.138 1.069 1.875 1.158 2.04.249.462.625.879.74 1.391.087.385-.249.788-.162 1.173Z"/>
  <path fill="#23163a" d="M391.84 159.367c-.081-.221-.333-.351-.413-.573-.002-.005.09-.995.203-1.773.972-6.712 4.121-13.896 12.099-18.104 3.754-1.98 7.025-2.424 7.048-2.41.201.122.54.161.586.391.12.606-.172.506-.761.697-5.62 1.823-14.442 7.937-17.758 19.683-.287 1.015-.432 1.672-.435 1.676-.146.183-.423.23-.569.413Zm-6.068-39.07c2.211-.167 2.283 3.536.216 3.581-1.92.041-2.332-3.407-.216-3.581Zm.037.421c-1.174.425-.58 2.087.108 2.112.859.032 1.143-1.866-.108-2.112Zm-10.197.375a.577.577 0 0 1 .008.05c-.09 1.123-3.721 1.112-3.383-.247.284-1.145 3.348-.844 3.385.15a.096.096 0 0 1-.01.047Zm-.229-.019a.082.082 0 0 1-.012-.025c-.185-.56-2.25-.515-2.547-.025l-.011.016.004.001c.005.002-.002.001-.002.003.066.428 2.39.727 2.564.043l.004-.013Zm-2.726-.072a.53.53 0 0 0-.08-.022.727.727 0 0 0 .08.022Zm1.791-1.826a.617.617 0 0 1 .004.047c-.08.962-3.355.918-2.881-.279.359-.905 2.851-.589 2.882.196a.08.08 0 0 1-.005.036Zm-.234-.012a.153.153 0 0 1-.016-.022c-.209-.362-1.651-.341-2.033-.015a.066.066 0 0 1-.016.011c.404.375 1.928.426 2.062.035l.003-.009Zm-8.471-64.517c-.26.023-.259.128-.496.043-1.806-.642-6.455 4.938-9.689 3.545-1.232-.531-1.487-1.896-.594-2.827.167-.175.213-.04.476-.09-.006.255.112.27-.011.468-.547.878-.034 2.37 2.829.858 2.292-1.21 5.773-3.474 7.273-2.492.031.02.077.029.092.063.059.137.062.295.12.432Zm5.467 14.907c.205-.28.267-.187.691-.322 2.12-.675 3.726-2.243 4.239-3.839.025-.078.041-.217.182-.195.17.027.109.245.096.326-.432 2.777-2.789 3.63-3.159 3.764a6.813 6.813 0 0 1-1.678.365c-.071.007-.143.036-.211.018-.064-.018-.199-.064-.16-.117Zm4.24 6.223c.027-.096-.009-.201.018-.297.027-.1.897-.797 1.198-2.953.183-1.305-.092-2.249-.091-2.252.017-.098.089-.18.106-.277.205.097.25.046.36.245.979 1.781.897 3.909-1.016 5.357-.012.009-.26.19-.276.193-.098.017-.201-.034-.299-.016ZM357.589 95.86c-.066-.073-.16-.13-.198-.221-.008-.02-.049-4.669 1.456-9.431 1.113-3.525 2.571-6.248 2.957-6.98.052-.099.111-.233.302-.144.45.212-.4.299-2.977 9.954-.465 1.741-.849 3.473-1.08 4.891-.288 1.769-.151 2.278-.46 1.931Zm23.214-43.951c-.138-.002-.268.086-.406.083-.187-.004-1.505-1.378-7.257.066-1.887.473-2.997.979-3.013.979-.137.003-.262-.107-.4-.104.064-.124.043-.279.107-.403.006-.013 2.414-1.783 4.991-2.295 3.676-.731 5.881 1.234 5.893 1.267.048.13.037.277.085.407Zm-.528 5.018c-.154-.133-.171-.128-.218-.328-.016-.072-.3-2.401-3.337-2.723-.703-.074-.707-.009-.764-.03-.23-.085-.252-.186-.056-.334.207-.157 4.312-.955 4.531 2.781.003.053.048.812-.156.634Zm-71.633 99.356 2.052-.961c.105-.024.212.087.318.063-.074.079-.033.227-.107.306-.015.016-2.504 1.686-2.614 1.731a.443.443 0 0 1-.587-.287c-.081-.272.415-2.629-2.612-3.144-.77-.131-1.199-.099-1.21-.104-.091-.039-.142-.145-.233-.184.156-.159.109-.22.239-.244 1.698-.313 4.659-.102 4.754 2.824Zm39.505-3.212c.553-3.522.655-4.7 2.131-11.869.122-.592.003-.591-.401-2.898-.78-4.454-2.081-12.649-2.076-12.659.108-.208.156-.541.385-.589.23-.048.509.164.59.385.072.198 3.884 14.971 3.875 15.507-.01.675-2.2 12.681-2.516 13.262-.307.566-1.333.659-3.015 2.628-3.175 3.715-3.545 8.634-3.598 8.695-.172.202-.383.369-.556.571-.108-.243-.339-.418-.447-.662 0 0 .043-1.817.447-3.653.176-.801 1.305-5.925 5.181-8.718Zm16.365-11.85c-.103-.059-.241-.033-.344-.092-.161-.093.012-.245-3.197-3.995-3.774-4.41-3.687-4.477-7.259-9.049-.081-.103-.19-.23-.009-.392.088-.079.251-.037.355.02.002.002 3.649 3.577 5.872 6.281 2.511 3.055 4.671 6.703 4.673 6.882.001.119-.093.226-.091.345Z"/>
  <path fill="#23163a" d="M382.836 176.233c-.111-.161-.301-.256-.412-.417-.013-.019.065-2.373-1.79-5.83-2.432-4.532-5.548-6.312-5.781-6.506-2.986-2.488-8.063-12.237-8.651-13.366-.967-1.857-3.561-6.884-7.313-15.19-.044-.1-.14-.19-.133-.298.019-.298.169-.256.188-.557.154.172.467.135.621.308.002.002.787 1.464 2.134 3.896 12.911 23.325 14.053 23.591 14.415 23.906.004.003 3.717 2.418 5.971 7.946.853 2.092 1.207 3.974 1.177 5.486-.002.069.032.15-.007.206-.169.247-.251.17-.419.416Z"/>
  <path fill="#23163a" d="m395.026 165.717-4.299-.654c-.164-.168-.295-.366-.458-.534.256-.028.368-.43.625-.457.013-.002 4.963.037 5.201.118.489.167.59.674.865 1.661 1.683 6.065-.209 13.266-13.722 10.556l-.391-.081c-.023-.004-.054.004-.07-.014-.233-.266-.197-.291-.431-.559.217-.087.34-.342.557-.429.17-.068 7.614.733 10.655-2.122 2.045-1.918 1.848-5.007 1.468-7.485Z"/>
  <path fill="#23163a" d="M392.896 170.236c-.853-2.63-.042-5.313 2.491-5.092.099.009.354-.003.348.193-.006.192-.248.165-.348.174-.997.083-2.434.464-1.849 4.285.06.388.29 1.005-.166 1.043-.074.007-2.457-.235-2.46-.237-.054-.051-.383-.306.013-.338.655-.054 1.314-.01 1.971-.028Z"/>
  <path fill="#23163a" d="M390.3 159.707c-2.809-1.853-7.188-4.953-13.145-11.475-.023-.024-.063-.04-.067-.072-.02-.195.019-.393-.001-.588l.588-.001c8.283 7.415 14.087 10.44 14.522 10.984.445.556.117.646-.41 5.899-.476 4.742-.319 8.513.939 8.239.552-.121 1.243-.773 1.248-.773.193-.029.393.032.587.003-.035.194.03.397-.005.59-.017.094-2.431 2.778-3.763-.08-.991-2.127-1.119-7.269-.493-12.726Zm-17.131 13.381 6.785-4.191c.212-.098.486.135.698.038-.17.159-.059.501-.229.66-.028.026-7.568 5.458-7.693 5.519a.75.75 0 0 1-1.062-.778c.089-1.188-.176-2.245-4.478-2.83-2.497-.339-3.09-.09-7.168-2.966-2.087-1.473-4.836-3.706-5.446-4.226-.046-.039-.074-.11-.133-.121-.64-.12-1.291-.176-1.936-.267-1.14-.161-2.27-.554-3.419-.49-.652.036-1.196.522-1.796.78l-4.102 1.761c-.191-.043-.363-.153-.554-.196.194-.122.115-.492.309-.614.046-.029 5.757-3.039 5.911-3.075.182-.043 6.039.396 6.249.475.336.128 8.068 6.12 10.104 6.609 2.293.551 7.281.709 7.96 3.912Z"/>
  <path fill="#23163a" d="M357.252 158.185c-3.006 1.58-7.919 2.059-10.15 2.566-1.137.259-2.746 2.738-3.764 4.755-.033.067-.039.156-.099.201-.095.071-.238.052-.333.123.013-.133-.113-.255-.1-.388.005-.049 1.189-2.681 2.35-4.101 1.197-1.464 1.583-1.344 4.476-1.982 5.022-1.106 6.232-1.693 7.371-2.372.469-.28.708.091 1.869.967 7.794 5.885 11.67 6.6 12.812 6.81 2.568.473 3.744-.438 3.982-.429a.414.414 0 0 1 .396.401c.048 2.478.132 7.379.131 7.393-.011.155-.229.245-.24.4l-.657-7.142c-1.131.48-3.013.888-6.68-.372-4.893-1.681-9.909-5.64-11.364-6.83Z"/>
  <path fill="#23163a" d="M339.824 178.543c6.755 3.196 21.057 1.303 27.149-1.844 2.948-1.524 4.453-3.516 4.627-3.532.287-.027.574-.045.861-.071-.085.273-.017.579-.101.852-.025.081-1.129 1.269-1.23 1.377-1.13 1.216-4.639 5.051-15.725 6.973-1.558.27-7.758 1.348-13.765-.499-.792-.243-3.421-1.17-3.839-1.941-.228-.419-.835-5.004.157-8.617.141-.513.921-3.648 3.548-5.46.739-.51 1.331-.691 1.333-.69.237.093.446.247.683.34-.131.215-.201.463-.331.679-.051.084-2.094.746-3.218 4.154-1 3.031-.425 6.797-.149 8.279Z"/>
  <path fill="#23163a" d="M345.39 186.698c3.311.126 10.804.41 12.425-.503.058-.033.059.002.841.031-.033.273-.018.551-.051.825a2.517 2.517 0 0 1-.554.39c-3.002 1.572-12.931 1.975-13.382 1.905-.798-.125-.567-.711-3.53-1.572-3.61-1.049-7.161-1.376-7.513-1.532-.382-.169-1.116-.858-.522-1.851.46-.767-.679-2.645-.801-2.847-.057-.093-.499-.822.221-1.345.755-.549 5.434-3.868 5.443-3.868.273.007.542.088.815.095l-4.369 4.572c.834 1.196 1.149 2.153 1.186 2.949 5.738.454 8.336 1.607 9.791 2.751Z"/>
  <path fill="#23163a" d="M364.234 183.168v.002c-.097.376.685 1.041.62 1.442a.506.506 0 0 1-.305.386c-.275.113-3.353 1.381-3.45 1.385-.484.019-.742-1.083-1.379-1.044-.411.025-.875.672-1.175 1.422-.018.044-.013.105-.051.134-.109.084-.258.104-.368.188-.027-.146-.148-.263-.176-.41-.002-.009.674-2.422 2.158-2.032.469.123.86.516 1.091.792l2.357-1.076c-.388-.561-.784-1.471.073-2.17.08-.065 1.543-1.14 2.483.359l1.336-.546c-.321-.624-.516-1.555.404-2.43.308-.294 1.64-1.244 2.608.042l.547-.235c-.21-1.533-.266-1.533-.211-1.817.101-.515 1.249-1.214 2.044-1.108.558.074.876.44 1.057.802l1.675-.733c.099-1.385.034-1.406.175-1.632.141-.224 1.056-.874 1.759-.414.533.349.61 1.135.586 1.757l5.078-2.119c-.143.097-.102.36-.245.456-.014.01-5.154 2.788-5.235 2.816a.458.458 0 0 1-.598-.393c-.005-.052.105-1.207-.123-1.6l-.008-.015c-.018.01-.167.067-.173.07l-.02.011c-.033 1.48.022 1.505-.101 1.738a.612.612 0 0 1-.111.147c-.122.119-2.844 1.431-3.01 1.449-.737.083-.712-.825-.883-1.009v-.005c-.037.016-.138.014-.424.212.274 1.751.341 1.778.236 2.073a.72.72 0 0 1-.391.418c-.147.066-1.7.751-1.864.765-.888.075-.663-1.123-1.228-.771-1.217.758.678 1.416.003 2.245a.668.668 0 0 1-.279.202c-.229.088-2.739 1.049-2.876 1.054-.868.03-.542-1.395-1.391-.961-.067.034-.144.13-.209.152l-.006.001Zm12.737-7.851a.196.196 0 0 0 .006-.014.035.035 0 0 0-.006.014Zm-32.703-4.382c-.966.223-2.886.594-5.331.406-.126-.009-.266.025-.379-.033-.042-.021-.617-.318.028-.584.067-.027 2.401.146 5.516-.839.049-.016.501-.159.634-.131.611.127.269 1.055 1.767 2.102 3.038 2.122 9.269.743 11.267.284 2.735-.629 5.891-1.734 6.395-1.911.347-.121.111.199.289.518-3.062 1.387-9.333 4.112-14.437 3.643-4.023-.369-5.322-2.41-5.749-3.455Zm-24.231-10.15c.069.471.205.504-.015.805-.653.895-2.967 1.865-4.93 1.972-1.781.097-4.182-.328-4.19-.333-.168-.101-.42-.211-.424-.407-.01-.528.228-.383.743-.497 2.86-.635 3.507-.83 5.172-.932 1.242-.077 2.411-.133 2.98-.431.098-.051.102-.04.664-.177Zm22.073-91.296c-.199.082-.346.263-.545.346-.157.065-2.183-.629-7.935.482-1.874.362-10.836 2.435-16.64 4.48-.136.047-.263.156-.407.144-.214-.017-.515-.03-.604-.226-.089-.196.095-.434.226-.605.026-.035 7.804-4.249 14.3-5.36.86-.147 6.452-1.178 11.034.127.074.021.169.009.222.066.223.239.125.306.349.546Z"/>
  <path fill="#23163a" d="M304.508 153.485c.582 3.247 1.688 7.051 6.294 8.976.06.025.138.024.18.074.088.105.102.261.191.366-.134.034-.235.157-.369.191-.112.028-1.062-.305-1.153-.337-6.286-2.205-6.324-8.586-6.369-9.401-.01-.173-.033-.589 1.579-1.489a6.317 6.317 0 0 1 2.943-.82c.053-.001.113-.028.159-.002.12.068.192.203.312.271-.107.086-.163.226-.27.312-.048.039-.611.008-1.704.529-.804.384-1.465.995-1.793 1.33Zm2.037-79.247c5.46-2.469 12.868-.513 15.408-.114 6.115.96 13.913 1.088 19.842-1.29.097-.039.188-.137.291-.12.496.085.444.246.937.33-.164.289-.167.652-.332.94 0 .001-.671.369-1.521.749-5.062 2.264-13.025 3.629-22.396 2.182-.839-.13-6.684-1.032-10.614.267-.133.044-.257.118-.388.161-.928.301-3.713.904-8.524 2.924-6.957 2.921-12.091 7.049-12.557 7.4l-.915-1.068c6.492-6.019 12.229-9.485 20.769-12.361Z"/>
  <path fill="#23163a" d="M310.252 162.929c.084-.38.071-.776.155-1.156.034-.154 2.815-1.485-.869-7.407-4.697-7.548-14.226-15.817-16.849-22.228-.059-.145-3.361-6.799-3.858-26.389a120.065 120.065 0 0 1-.036-2.004c.222-.321.552-.556.774-.876.221.376.676.577.897.954.063.107-.043.399.919 6.544 2.938 18.757 5.845 21.946 6.918 23.434 6.539 9.073 20.38 24.065 13.206 29.217-.031.022-.056.068-.094.066-.589-.042-.576-.114-1.163-.155Zm29.697-16.695c-.153-.149-.358-.239-.511-.388-.207-.201-.894-5.752-1.936-9.009-.758-2.368-1.692-3.272-1.205-7.404.351-2.976 1.573-6.284 1.601-6.31.436-.417.692-.357.797.235.053.3-.214.274-.562 3.763-.229 2.295-.221 5.205.466 6.808 1.852 4.323 1.338 8.541 1.647 11.611.005.046.034.095.016.137-.127.296-.187.262-.313.557Zm64.94-1.75-3.185-3.545c.217.1.499-.108.715-.009.003.001 3.851 2.767 3.983 2.948.132.18.296.405-.282 2.774-2.386 9.775-10.551 13.369-14.04 12.894-.066-.009-.147.013-.197-.031-.241-.218-.157-.288-.4-.507.184-.111.321-.29.505-.401.1-.06 2.053.312 5.52-2.474 2.658-2.137 4.435-5.136 4.565-5.345 1.746-2.801 2.436-4.979 2.816-6.304Z"/>
  <path fill="#23163a" d="M401.946 146.064c.514.217 1.46.619 1.506.65.043.028.469.13-.223 1.344-1.375 2.411-4.667 2.967-5.158 2.733-.128-.061-.673-.321-.349-1.742.526-2.31 3.258-4.583 7.437-4.78.076-.004.159-.041.228-.009.125.058.194.205.319.263-.11.082-.152.236-.262.319-.025.018-1.766.218-3.498 1.222Zm-.403.25a7.541 7.541 0 0 0-.454.323c-1.353 1.039-1.799 2.035-1.94 2.696 2.279-.391 3.174-1.581 3.522-2.177l-1.128-.842Z"/>
  <path fill="#23163a" d="M395.626 148.761c.141-.009.278-.059.419-.067.041-.003 1.092.232 1.406.466.386.288.723.827.787.925.296.451.205.574.245.687-.1 0-.226.122-.729.001-1.118-.271-1.327-.467-1.966-1.459-.029-.045-.069-.085-.084-.136-.039-.136-.038-.282-.078-.417Z"/>
  <path fill="#7b4f25" d="M404.479 35.64c2.451.391 4.13 2.487 3.748 4.678-.382 2.19-2.682 3.65-5.132 3.259-2.451-.392-4.13-2.488-3.748-4.678.382-2.19 2.682-3.651 5.132-3.259Z"/>
  <path fill="#23163a" d="m404.519 35.393.001-.005c.355.064 2.483.29 3.699 2.401 2.044 3.549-1.98 7.841-6.443 6.055-3.456-1.383-4.261-6.121-.547-8.027.634-.325 1.288-.436 1.404-.456.997-.169 1.818.022 1.886.032Zm-.078.489-.001.005c-4.767-.337-6.173 4.596-2.716 6.576 2.789 1.597 6.724-.376 6.002-3.628-.219-.987-.924-1.671-1.043-1.786-.946-.919-2.05-1.117-2.242-1.167Z"/>
  <path fill="#a08025" d="M327.249 56.272c-2.389.653-3.81 2.917-3.172 5.052.638 2.135 3.095 3.338 5.483 2.685 2.389-.654 3.811-2.918 3.173-5.053-.638-2.135-3.095-3.338-5.484-2.684Z"/>
  <path fill="#23163a" d="M327.183 56.032c.394-.105 1.402-.451 2.887-.07 3.804.973 4.595 5.851 1.039 8.043-3.854 2.375-8.835-.951-7.399-4.985a4.575 4.575 0 0 1 1.224-1.82c1.014-.92 2.153-1.141 2.249-1.168Zm.13.475c-.351.134-1.111.366-1.901 1.184-2.491 2.582-.172 6.558 3.691 5.797 3.444-.678 4.588-4.892 1.293-6.622-.629-.33-1.286-.417-1.402-.433-.905-.121-1.634.07-1.68.079l-.001-.005Z"/>
  <path fill="#a08025" d="M400.848 29.229c2.094.334 3.537 2.075 3.221 3.885-.316 1.81-2.272 3.007-4.365 2.673-2.093-.334-3.536-2.075-3.221-3.885.316-1.81 2.272-3.008 4.365-2.673Z"/>
  <path fill="#23163a" d="M400.888 28.982c.007.001 1.184.088 2.209.873 3.131 2.398.977 7.079-3.379 6.558-3.631-.435-5.222-4.823-2.165-6.83a4.325 4.325 0 0 1 1.518-.614c.954-.189 1.728-.001 1.817.013Zm-.079.494c-4.269-.318-5.21 4.332-1.655 5.54 3.273 1.113 6.06-2.206 3.49-4.615-.685-.643-1.676-.886-1.835-.925Z"/>
  <path fill="#68529b" d="M408.314 30.823c1.329.212 2.234 1.379 2.02 2.603-.213 1.225-1.465 2.047-2.794 1.835-1.329-.213-2.234-1.379-2.02-2.604.213-1.224 1.465-2.046 2.794-1.834Z"/>
  <path fill="#23163a" d="M408.341 30.657c.014.003 1.118.075 1.842 1.028 1.685 2.219-1.118 5.045-3.639 3.671-2.493-1.359-1.385-4.932 1.403-4.752.198.013.193.026.394.053Zm-.053.33.001.002c-3.171-.114-3.149 3.565-.579 3.877 2.371.288 3.56-3 .578-3.879Z"/>
  <path fill="#4e2460" d="M415.506 40.718c1.105.176 1.865 1.104 1.696 2.069-.168.966-1.202 1.607-2.307 1.43-1.104-.176-1.865-1.103-1.696-2.069.168-.966 1.202-1.607 2.307-1.43Z"/>
  <path fill="#23163a" d="M415.527 40.585c.015.002.925.064 1.53.818 1.479 1.844-1.101 4.123-3.172 2.779-1.772-1.149-1.083-3.977 1.642-3.597Zm-.042.264v.002c-2.757-.111-2.538 2.986-.273 3.064 1.894.065 2.666-2.373.273-3.066Z"/>
  <path fill="#7b4f25" d="M320.263 55.025c-1.077.295-1.723 1.298-1.442 2.24.281.941 1.384 1.466 2.461 1.172 1.077-.295 1.723-1.298 1.442-2.24-.281-.941-1.384-1.466-2.461-1.172Z"/>
  <path fill="#23163a" d="M320.227 54.896c.002 0 .855-.324 1.746.108 2.157 1.045.85 4.183-1.629 3.815-2.12-.314-2.732-3.145-.117-3.923Zm.071.257c-2.655 1.094-.791 3.946 1.373 2.766 1.448-.79.996-3.119-1.373-2.764v-.002Z"/>
  <path fill="#68529b" d="M412.549 48.351c.634.101 1.067.654.966 1.234-.101.58-.698.968-1.332.867-.635-.102-1.067-.655-.966-1.234.101-.58.698-.968 1.332-.867Z"/>
  <path fill="#23163a" d="M412.563 48.262c.057-.105 1.438.413 1.084 1.541-.459 1.46-2.848.951-2.617-.552.166-1.076 1.487-1.084 1.533-.989Zm-.018.165a.03.03 0 0 1-.01.013c-.007.004-.253.002-.271.004-1.369.181-1.003 2.063.38 1.775.937-.196.943-1.473-.002-1.751a.27.27 0 0 1-.097-.041Z"/>
  <path fill="#68529b" d="M326.48 45.822c.634.102 1.067.655.965 1.234-.101.58-.698.969-1.332.867-.634-.101-1.067-.654-.966-1.234.101-.58.698-.968 1.333-.867Z"/>
  <path fill="#23163a" d="M326.494 45.734c.057-.105 1.437.413 1.083 1.541-.458 1.46-2.848.95-2.616-.553.166-1.075 1.487-1.083 1.533-.988Zm-.018.165a.025.025 0 0 1-.011.012c-.006.005-.253.002-.271.005-1.368.18-1.002 2.063.381 1.774.937-.195.943-1.472-.003-1.75a.304.304 0 0 1-.096-.041Zm8.254 76.812c-.51-.341-.58-.364-.705-.609-.733-1.431.289-3.272.51-3.751.07-.15.17-.328.433-.244.419.135.159.306.003 1.636-.1.848.026 1.233.172 1.498.978.54 1.026.498 1.234.749.383.459.034 1.019-.03 1.038-.032.009-.052-.061-.084-.052l.079.06c-.415 1.288-.489 3.89.75 5.48.025.033.071.056.077.097.027.154-.007.315.019.47-.157-.018-.317.035-.474.017-.029-.003-1.557-1.045-2.063-3.435-.305-1.444-.15-2.377.079-2.954Zm1.089-10.848.1.471c-.513.087-.564.15-.945-.204-.231-.215-1.579-1.888.842-3.551.063-.043.119-.103.192-.123.153-.041.318-.015.471-.056-.014.157.068.312.054.469-.011.125-.078.107-.401 1.514-.117.507-.464.907-.349 1.355.027.102-.007.099-.014.2l.05-.075Zm49.028-78.727c-.051.085-.027.202-.078.287-.04.066-1.112.695-2.376 2.384-2.463 3.29-1.735 3.99-2.247 3.932-.437-.049.034-1.768.075-1.916.182-.664.854-3.169 4.131-4.672.069-.032.131-.09.206-.092.1-.003.189.08.289.077Z"/>
  <path fill="#23163a" d="M335.299 117.881c1.927 1.422 13.415 4.999 16.353 4 .044-.015.084-.058.129-.049.173.033.326.138.499.171-.081.159-.094.346-.175.504-.018.036-.225.106-.265.122-3.511 1.389-16.748-1.794-18.072-3.7-.264-.38-1.035-1.698 1.398-6.254.007-.013.327-.922 1.05-.869.46.033.445.104 5.324 2.221a1642.24 1642.24 0 0 1 9.083 3.982c.091.152.12.335.21.487-.198-.053-.393.225-.591.173-.978-.26-10.675-3.82-13.632-4.908-.524 1.115-1.447 3.233-1.314 4.096a.112.112 0 0 1 .003.024Zm0 .004c.002.086-.077.046-.159.127.049-.042.13-.03.179-.072.013-.011-.003-.047-.02-.055Zm41.195 28.596c.225.065.467.056.692.121.009.003 1.256 1.633 4.152 2.646 4.397 1.539 8.934-.1 8.822-4.814-.074-3.129-1.919-5.689-1.921-5.751-.009-.234.107-.462.098-.697.223.077.477.024.7.1 0 .001.415.465.829 1.025 4.899 6.628 1.504 13.253-5.045 12.955-3.43-.156-6.927-2.458-8.365-4.751-.028-.045-.085-.084-.082-.137.016-.357.104-.342.12-.697Zm-39.879-44.191c-.167-.168-.409-.249-.575-.417a17.065 17.065 0 0 1-.509-2.127c-1.113-6.48.304-12.17.559-13.196 1.844-7.402 5.826-11.871 5.897-11.881l.64-.087c-.03.213.117.426.088.639-.039.28-3.065 3.438-5.278 15.952-1.264 7.144-.485 10.438-.497 10.487-.061.229-.265.402-.325.63Zm-2.812-4.722c-.613.299-.728.483-1.187-.021-.049-.054-1.858-4.568-1.466-8.511.504-5.069 3.672-8.203 3.779-8.227.211-.048.438.019.648-.028-.016.214.048.43.032.644-.004.056-2.047 2.443-2.387 10.256-.113 2.601.124 4.437.275 5.588.024.18.115.112.306.299Z"/>
  <path fill="#23163a" d="m337.593 116.85.589-1.034c.751.368 3.07 1.598 6.143 2.516 2.959.883 3.784 1.185 6.963 1.556l-.014.504c-.589.013-4.151.091-7.309-.864-3.74-1.131-5.896-2.398-6.372-2.678Z"/>
  <path fill="none" stroke="#614b88" stroke-width=".98" d="m384.776 135.658-10.066-6.824"/>
  <path fill="#614b88" d="M323.43 99.282c2.57 1.794 9.534 6.626 30.285 21.232.05.036.31.158.21.303-.035.049-.128.064-.179.031-.079-.051-14.509-9.921-22.931-15.713-.182-.125-7.887-5.418-7.947-5.498-.107-.141-.249-2.271 1.035-3.192.758-.543 1.74-.495 2.218-.444.24.025.211.093 1.927 1.248a7811.596 7811.596 0 0 1 29.487 19.967c.049.033.321.154.221.303-.179.267-.262-.017-7.174-4.584-21.285-14.065-24.084-15.993-24.599-16.32-.08-.051-.19-.014-.285-.017-2.315-.057-2.23 1.978-2.268 2.684Zm49.06 40.519c.419.063.477.077.601.179.141.116 2.986 4.94 3.66 6.376.558 1.188 5.051 5.988 10.795 4.791 5.194-1.082 5.584-8.639 1.337-12.425-.069-.061-.168-.098-.209-.18-.045-.089.013-.207-.031-.296.097.021.2-.051.297-.03.009.002.461.375.753.673 4.768 4.867 3.4 14.234-5.375 13.185-4.296-.513-7.715-3.774-8.526-5.445-.405-.834-2.405-4.188-2.986-5.162-.122-.205-.173-.474-.367-.613-.044-.032-1.436-.157-1.655-.38a.521.521 0 0 1-.148-.367c0-.091.002-1.009.069-1.134a.531.531 0 0 1 .483-.271c1.318.068 4.606.232 4.736.287a.506.506 0 0 1 .249.23c2.376 4.509 2.271 4.584 2.472 4.724 1.373.964 3.17 1.198 4.57 2.118.638-.259 2.269-1.172.019-3.922-.15-.183-.705-.866-1.625-1.67-.153-.134-10.283-7.849-10.288-7.86-.044-.088.001-.205-.043-.294.13.089.335-.008.465.082.039.026 10.059 7.309 10.324 7.531 2.634 2.202 4.354 4.973 2.126 6.552-1.286.912-1.42.365-2.856-.283-3.169-1.431-3.193-1.391-3.361-1.547-.082-.076-.067-.086-2.558-4.708l-2.928-.141Z"/>
  <path fill="#4f3a73" d="M386.033 135.56c3.805.15 3.855 5.213.546 5.944-3.196.706-5.181-3.434-2.521-5.399.801-.592 1.811-.551 1.975-.545Zm-.016.42c-3.154.182-3.032 4.421-.197 4.56 1.209.06 2.31-.881 2.359-2.154.007-.202.009-2.087-2.162-2.406Z"/>
  <path fill="#23163a" d="M345.302 157.606c-.127-.092-.318-.064-.445-.156-.238-.173-.888-2.085-4.367-4.406-4.148-2.767-7.366-3.234-7.409-3.268-.123-.097-.182-.261-.305-.359.141-.072.222-.234.362-.306.036-.018 4.232-.008 7.634 2.154 3.43 2.18 4.693 5.84 4.686 5.894-.023.156-.134.291-.156.447Z"/>
  <path fill="#23163a" d="M327.024 156.215c-.951.42-2.512.756-3.189-.603a1.139 1.139 0 0 1-.06-.151c.044-.151.148-.28.192-.432.14.078.297.125.437.203.034.019.194.477.849.488.521.009 1.287-.45 1.632-.675.306-.44.986-.136 1.036.313 1.98 3.76 8.506 2.552 14.24.136.912-.384 1.356-.588 1.36-.587.153.035.298.103.452.138-.092.128-.048.324-.14.452-.072.101-1.762 1.031-1.918 1.116-9.802 5.393-13.913 1.673-14.891-.398Zm16.116 6.235c-.019.157.012.318-.008.476-.001.013-.312.33-.758.576-3.109 1.712-11.376 2.049-16.644 1.086-2.889-.528-3.336-1.588-3.981-3.182-.051-.126-.152-.243-.151-.379.002-.157.158-.287.159-.445.136.109.34.106.476.215.207.167.603 1.753 1.999 2.226 1.374.466 4.723.408 8.309.466 3.32.054 8.491.171 10.079-1.005.017-.013.028-.039.049-.04.157-.01.314.016.471.006Zm-3.481-15.678c-1.741-.041-3.738.08-4.871 2.256-.026.051-.029.122-.077.155-.13.088-.3.102-.43.19-.034-.154-.157-.279-.191-.433-.016-.074.236-.658.26-.714 1.414-3.271 5.709-3.027 5.88-2.966.762.27 6.632 5.66 8.277 6.405.026.011.063.01.079.033.088.129.137.283.225.412-.147.057-.27.17-.417.227-.094.036-1.52-.454-4.151-2.152-2.641-1.704-4.032-2.923-4.584-3.413Z"/>
  <path fill="#23163a" d="M335.231 146.448c-.18-1.61-.432-5.1 2.012-10.303.053-.112.066-.256.161-.336.12-.102.319-.072.439-.174.009.157.165.282.174.439.012.208-2.23 4.835-1.338 10.143.012.076.162.52-.058.859-1.51 2.321-1.508 2.328-1.699 2.474-.369.282-2.637.366-5.335 1.627-6.119 2.859-7.152 9.37-7.357 9.636-.111.144-.314.196-.424.339-.036-.177-.199-.312-.235-.49-.001-.005.471-3.045 1.924-5.64 3.037-5.424 8.049-6.468 10.495-6.852l1.241-1.722Z"/>
  <path fill="#23163a" d="M331.861 168.854a.302.302 0 0 1-.043.026c-.528.279-.596.799-1.196.784-2.527-.062-2.631-.122-2.828-.234-.571-.325-.404-1.578-2.025-.655-.334.189-.655.594-1.202.376-.335-.134-4.441-1.881-4.568-1.963a.742.742 0 0 1-.223-1.008c.197-.336.95-1.245-.572-1.633-.567-.145-.741-.276-.45-1.828.574-3.068 2.667-4.164 3.268-4.468.069-.035.132-.105.209-.101.157.01.294.131.451.14-.09.156-.126.34-.216.496-.025.043-1.276.627-2.024 2.113-.48.953-.59 1.933-.616 2.534.475.134 1.149.434 1.49 1.088.298.573.217 1.178.065 1.641l3.373 1.31c.482-.32 1.344-.772 2.258-.657.918.116 1.441.749 1.698 1.185l1.692.157c.37-.334 1.052-.824 1.755-.662.629.144.914.698 1.045 1.135l1.903-.095c.292-.291.898-.806 1.485-.656.415.107.601.47.686.767l2.51-.234c-.172.074-.181.362-.353.436-.031.013-2.454.714-2.567.707-.437-.027-.403-.535-.509-.716-.015.015-.037.029-.07.05-.402.256-.507.68-.891.727-2.641.322-2.641.341-2.866.29-.553-.126-.449-.717-.669-1.052Zm21.495-41.209c1.512.119 1.404-3.351 1.415-3.379.053-.128.23-.177.282-.305.076.116.23.167.305.284.061.094.039 1.072.037 1.165-.082 3.601-2.301 3.318-2.626 3.011-.164-.154-1.118-1.132-1.118-1.565-.001-.42-.007-2.992.346-5.236a.687.687 0 0 1 .185-.377c.324-.337 3.768-3.912 4.136-4.13 3.274-1.943 9.543-.894 10.362-.757 1.322.221 3.577.662 4.56.482.044.051.069.117.114.169.02.022.056.025.076.048l.005.29.001-.587c.136.046.242.062.283.218.279 1.039-4.237.378-5.953.248-5.816-.442-8.165.802-8.655 1.088-.549.543-1.092 1.093-1.642 1.636-1.981 1.956-2.014 1.921-2.183 2.094a38.094 38.094 0 0 0-.362 2.391c-.141 1.175-.13 1.221-.206 2.309.259.436.303.508.638.903Z"/>
  <path fill="#23163a" d="M362.531 130.243c-.228.034-.224.164-.43.063-.222-.108-3.521-2.049-3.33-3.932.148-1.453 1.51-3.21 1.383-4.424-.028-.262-.156-1.482 1.909-2.681.069-.04.129-.112.208-.117.119-.008.228.09.347.082-.054.106-.027.241-.081.346-.003.006-1.547 1.164-1.417 2.146.085.645.349.993-.74 3.59-.508 1.212-.626 1.36-.167 2.13.575.962 1.657 2.054 2.151 2.413.021.015.054.02.064.044.048.109.056.232.103.34Z"/>
  <path fill="#23163a" d="M357.487 122.056c-.365.728-1.106 1.991-2.126 2.602-.159.095-.167-.008-.361-.017.036-.092.018-.2.054-.293.059-.152.527-.198 1.414-2.42.265-.661.355-1.455 1.195-.916.963.616 2.279-.069 2.994-.615.031-.023.054-.064.092-.072.097-.019.201.014.298-.006-.04.21.062.24-.077.402-1.456 1.698-2.764 1.591-3.483 1.335Zm5.281 8.859c2.81 1.121 2.827 1.132 3.364 1.332.099.037.216.042.298.109.234.194.197.363-.112.407-.072.01-4.177-.931-4.422-1.198-.115-.125-.201-.18-.064-2.066.14-1.937.618-5.631.626-5.652.037-.102.19-.132.227-.235.026.106.173.152.199.257.005.019.05 2.547.034 4.015-.019 1.641-.096 2.459-.15 3.031Z"/>
  <path fill="#23163a" d="M371.68 132.304c-.088.064-.076.217-.163.281-.02.014-1.431.606-1.556.658-.077.033-2.577.354-2.804.264-.144-.057-1.709-1.424-1.797-1.652-.114-.293-.328-4.457-.348-4.845-.007-.135.068-.1.181-.268.037.1.206.111.243.212.003.01.516 2.382.777 3.889.073.423-.013.466.192.646 1.095.962 1.039 1.028 1.133 1.067.009.004.358-.014 1.968.018.617.013.603-.076 1.343-.263.177-.045.35-.13.532-.132.108-.001.191.126.299.125Z"/>
  <path fill="#23163a" d="m369.332 130.88 2.257 1.53c-.11-.032-.228.098-.337.065a186.078 186.078 0 0 1-2.467-1.163c-.318-.222.218-.706-1.152-1.584-.629-.404-.174-.583-.157-.893.037-.694-.791-1.214-.242-1.635.387-.297.997.252 3.785.822 5.283 1.08 6.541-1.597 6.594-1.619.092-.038.198-.034.29-.072-.013.113.06.224.047.336-.012.101-1.437 2.981-6.359 2.451a15.694 15.694 0 0 1-3.222-.706 1.37 1.37 0 0 1-.066.761c.87.709 1.028 1.258 1.029 1.707Z"/>
  <path fill="none" stroke="#23163a" stroke-width=".99" d="m359.964 124.652-3.101-2.06"/>
  <path fill="#23163a" d="M364.691 122.07c-.332.378-.44.243-.79.604-.701.721-.929 1.027-1.001 1.124-.634.852-.475-.878.204-1.484.192-.172.545-.384.978-.421.675-.057.642.139.609.177Zm-12.057 3.081c-.094.128-.128.294-.222.421-.084.113-4.931 2.015-12.711-1.196-1-.412-2.016-.837-3.466-1.568-.53-.267-.455-.658.136-.68.266-.01.594.391 8.085 2.032 1.647.361 5.015 1.252 7.511.82.083-.015.166-.069.248-.048.153.039.266.18.419.219Zm-65.931-42.883c-.02.401.058 1.384 1.374 2.972.1.121.019.314.029.471-.159-.012-.318.04-.477.028a8.32 8.32 0 0 1-1.142-1.026c-1.638-1.823-1.193-2.906-1.091-3.153.851-2.07 3.051-2.781 5.346-1.39.437.264.336.888.337.976.002.212.027 2.609.015 2.655-.042.163-.257.245-.3.409-.079-.148-.295-.189-.374-.338l-.53-2.606c-1.046-.336-2.314-.499-3.187 1.002Zm7.676 12.335c.234-.175.558-.614.244-1.65-.023-.077-.085-.15-.072-.229.024-.156.151-.284.176-.44.142.07.298.109.441.179 0 0 .183.349.3.711.062.193.53 1.646-.716 2.428-.189.119-.24.151-2.78-.093-.527-.051-4.045-.389-6.504-1.282-.216-.079-2.207-1.506-2.325-1.677a.714.714 0 0 1-.123-.418c.015-3.081-.018-3.094.091-3.337.097-.217.432-.36.49-.392l2.212-1.219c.156.021.378-.029.462.105.084.133.011.354-.105.461-.927.854-1.092.641-2.019 1.496.333.763-.081 1.721.251 2.485.175.401.752.45 1.126.678.481.293.472.312.623.352 3.512.929 5.287 1.293 8.228 1.842Z"/>
  <path fill="#23163a" d="M352.355 122.337c-5.274.096-11.085-1.213-17.343-3.689l-.598 2.925c5.863 2.815 11.772 4.054 17.723 3.86l.218-3.096Zm-66.223-32.552c.086-.183-.01-.243.162-.346.789-.475 1.523-.076 1.638-.013.554.3 2.047.557 5.134 1.952.159.072 1.972.89 1.988.906.157.153.236.43-.139.399-.017-.002-2.447-.582-3.987-1.103-.969-.327-2.754-1.075-3.486-1.656-.246-.196-.644-.19-.911-.104-.038.012-.073.042-.112.039-.098-.009-.189-.065-.287-.074Z"/>
  <path fill="#23163a" d="M286.758 89.741c-.043-.093-.119-.168-.162-.26-.031-.065.053-.087-.261-.864-.11-.273-.113-.603-.33-.944-.486-.767.402-.382.444-.363.708.306 1.121 1.031.749 1.903-.216.504-.392.486-.44.528Zm8.952 6.893-2.154-1.517c.131.039.272-.116.403-.077a192.18 192.18 0 0 1 2.344 1.106c.099.068.232.16.263 1.479.066 2.89-2.081 2.357-4.494 1.922-2.369-.427-7.692-1.737-8.109-2.413-1.077-1.748.416-4.732 1.394-3.677.129.14.006.165.014.408-.202-.032-.225.061-.393-.061-.2-.146-1.108 1.389-.306 2.775.642.241.972.354 8.498 1.967.833.178 1.862.441 2.203.156.376-.315.352-1.57.337-2.068Z"/>
  <path fill="#23163a" d="M285.058 100.451c-.133.01-.307-.051-.523-.34-.204-.274-.783-1.074-.209-2.829.02-.061.017-.136.062-.183.09-.094.234-.126.324-.22.024.128.145.224.169.352.003.018-.251 1.067-.002 1.788.089.259.228.429.331.532.183.018.458.073.916.176 6.311 1.417 7.961 2.386 8.617 1.513.438-.583.199-1.559.202-1.568.033-.115.137-.2.169-.315.09.088.234.107.324.195.024.024.778 2.119-.894 2.812-1.854.769-8.906-1.73-9.486-1.913Z"/>
  <path fill="#23163a" d="m286.483 102.388.002-.001c1.059.377 6.06.982 6.83-.01.102-.13.142-.059.351-.146.074.275.184.292.027.531-1.17 1.791-7.509 1.628-8.095.009-.319-.879-.424-2.465-.419-2.482.038-.113.17-.177.208-.29.078.099.219.136.298.235.016.021.345 1.336.798 2.154Zm.02.036.015.026c.005.008-.004-.031-.013-.027l-.002.001Zm7.307-8.564c.082-.212.215-.591.135-.941-.14-.609.624.224.15 1.201a.177.177 0 0 1-.192.097c-1.03-.206-1.064-.238-1.051-.325.014-.098.649-.056.958-.032Zm-.53 7.395c-.3-.028-.481-.482-.483-.718-.004-.572.831-1.063.551-.59-.439.744.044 1.319-.068 1.308Zm.665-3.141c-.3-.028-.481-.482-.483-.718-.005-.572.831-1.063.551-.59-.439.745.044 1.319-.068 1.308Zm-7.045-1.368c.01-.207.413-.601.123-1.305-.2-.487.455.047.466.522.013.61-.593.858-.589.783Zm88.291 28.096c-.027.255.072.277-.044.428-.363.47-2.309 2.694-6.298.624-.096-.05-1.103-.573-1.157-.702-.046-.109-.162-.235-.106-.34.156-.297.243-.134.56-.032.488.158 4.098 1.191 5.882.496.058-.022.353-.137.68-.371.037-.026.064-.071.108-.081.122-.026.252.004.375-.022Z"/>
  <path fill="#23163a" d="M287.009 102.325c.073-.136.486-.225.399-.816-.053-.362.316.141.172.506-.13.33-.603.372-.571.31Z"/>
  <path fill="#68529b" d="M356.958 160.292c-.934.489-2.799.995-6.884 1.098-.144.004-.628.008-.629.008-.181-.098-.282-.311-.463-.409.18-.098.226-.364.407-.463.262-.143.323.111 3.676-.69 3.233-.772 3.312-1.404 3.52-1.545a.942.942 0 0 1 1.104.054c.395.364.994 1.106 3.392 2.77 5.423 3.764 10.419 4.595 11.393 4.757.746.124 1.531.212 1.664.228.023.002.053-.009.07.007.229.213.195.239.423.451-.189.084-.264.338-.453.422-.1.045-10.452.736-17.22-6.688Zm-7.923-27.623c-.145-.038-.304.05-.449.012-.076-.019-2.748-1.782-3.015-2.09-.362-.415-1.021-4.158-1.009-4.184.059-.13.054-.338.189-.385.135-.046.291.081.384.189.013.015.728 1.329 1.04 1.981.527 1.1.566 1.453.668 1.552.783.762 1.847 2.101 1.914 2.184.08.097.191.177.235.295.053.14-.01.306.043.446Zm-1.514 20.475c-.142.022-.264.121-.406.142-.097.015-2.446-.896-4.137-2.078-1.742-1.217-3.588-3.351-3.918-3.722-.099-.113-.22-.251-.043-.449.095-.107.309-.104.428-.024 2.98 1.992 3.05 1.892 5.834 4.147 1.95 1.58 2.026 1.479 2.099 1.581.083.116.06.288.143.403Zm52.057-45.934c-.114-.116-.318-.112-.432-.228-.033-.033-1.52-3.38-7.559-14.373-3.081-5.608-4.901-8.234-5.89-9.651-.135-.193.004-.211.009-.488.136.09.34.023.475.114.132.088 5.393 6.293 8.904 13.399.374.757 2.204 4.39 4.458 10.32.055.145.159.28.165.436.006.162-.136.308-.13.471Zm-.822 32.69c-2.551-.891-8.207-2.746-10.249-8.568a12.161 12.161 0 0 1-.413-1.652c.071-.124.078-.334.216-.37.138-.036.32.082.369.216.27.723 1.015 3.536 6.46 7.446 1.874 1.346 3.788 2.335 3.853 2.371l-.236.557ZM367.762 24.187c4.224.556 3.471.81 3.471.81-5.773 3.973-10.924 12.244-10.924 12.244-2.983.359-3.758-.525-3.758-.525 4.444-9.487 11.211-12.529 11.211-12.529ZM349.421 43.4c1.309 1.483 2.675 2.008 2.675 2.008-2.076 2.95-6.238 3.469-6.238 3.469-2.135-.667-3.922-3.213-3.922-3.213 5.815 1.496 7.485-2.264 7.485-2.264Zm24.416 53.24-2.243-.912s1.558-12.918 11.607-16.413c0 0-10.973 5.822-9.364 17.325Zm-4.132.287s2.778.253 3.113 1.916c.335 1.662-2.295 7.478-6.156 8.881 0 0 5.773-5.597 4.939-8.89 0 0-.753 2.455-2.957 3.176 0 0 3.762-2.931 1.061-5.083Zm-20.818-64.601c-.007-.143-.14-.261-.146-.404-.001-.016.85-2.615 2.49-4.832 2.288-3.092 5.819-4.619 5.847-4.619.143.003.266.124.409.126-.062.128-.062.281-.124.409-.042.085-1.047.583-3.364 3.135-3.719 4.096-4.709 6.037-4.71 6.038-.114.086-.288.061-.402.147Zm8.742 123.706c.146-.625 2.34-7.712-1.35-19.357-.187-.591-1.3-4.105-2.969-7.147-.062-.114-.173-.212-.19-.341-.007-.048-.098-.727.507-.33.116.076 4.79 6.936 5.796 14.748.847 6.578-.722 11.131-1.214 12.6l-.58-.173Zm-17.984-10.739c-.942-8.241-.744-12.491.312-20.467.027-.207.129-.132.331-.338.036.138.244.186.28.324.004.015-.016 8.247-.018 8.964-.008 3.292-.236 5.873-.3 11.429-.004.38-.231.034-.605.088Z"/>
  <path fill="#2b2046" d="m318.147 125.59-2.278-.7a1.757 1.757 0 0 1-1.037-.842 1.634 1.634 0 0 1-.112-1.298l3.261-9.768a1.72 1.72 0 0 1 .878-.994 1.843 1.843 0 0 1 1.353-.108l2.279.7c.448.138.821.441 1.037.842.215.401.256.868.112 1.298l-3.261 9.768c-.144.43-.459.787-.878.994a1.845 1.845 0 0 1-1.354.108Zm-7.083-2.025-2.248.789c-.442.155-.93.135-1.357-.055a1.731 1.731 0 0 1-.919-.959l-3.673-9.633a1.64 1.64 0 0 1 .057-1.301 1.75 1.75 0 0 1 1-.882l2.248-.788c.442-.155.93-.135 1.357.055.427.19.757.535.919.959l3.673 9.632c.162.424.141.892-.057 1.302a1.751 1.751 0 0 1-1 .881Z"/>
  <path fill="#23163a" d="M313.155 122.596a1.844 1.844 0 0 1-1.356-.075 1.734 1.734 0 0 1-.903-.973l-3.511-9.688a1.642 1.642 0 0 1 .079-1.301 1.761 1.761 0 0 1 1.015-.866l2.26-.753a1.843 1.843 0 0 1 1.356.076c.424.196.749.546.903.973l3.511 9.688c.155.426.126.894-.079 1.3-.205.406-.57.718-1.014.866l-2.261.753Z"/>
  <path fill="#23163a" d="m318.031 123.865-2.388-.136a1.803 1.803 0 0 1-1.222-.569 1.658 1.658 0 0 1-.445-1.231l.635-10.238c.028-.451.241-.872.593-1.172a1.82 1.82 0 0 1 1.284-.426l2.388.136c.47.027.91.231 1.222.569.313.338.473.78.445 1.231l-.635 10.238a1.677 1.677 0 0 1-.593 1.172 1.82 1.82 0 0 1-1.284.426Zm-7.386-.277-1.973 1.298a1.84 1.84 0 0 1-1.329.27 1.783 1.783 0 0 1-1.138-.711l-6.049-8.458a1.649 1.649 0 0 1-.281-1.275c.087-.443.353-.836.741-1.091l1.974-1.298a1.831 1.831 0 0 1 1.329-.27c.462.083.872.338 1.138.711l6.048 8.458c.266.372.368.831.281 1.274a1.694 1.694 0 0 1-.741 1.092Z"/>
  <path fill="#988ea9" d="M346.954 55.643c.261.01.464.205.454.436-.009.23-.229.409-.489.399-.261-.01-.464-.206-.454-.436.009-.23.229-.409.489-.399Z"/>
  <path fill="#9e99a9" d="M326.834 100.845c.779-.534 1.278-1.37 1.476-1.934l.736.492c-.453 1.022-1.101 1.604-1.542 1.904a35.645 35.645 0 0 1-.67-.462Zm50.755 35.439c1.622-.944 2.34-3.176 2.077-3.387l1.055.692c-.59 2.04-1.78 2.952-2.318 3.273l-.814-.578Zm1.578 1.115c1.581-.833 2.353-2.887 2.244-3.357l.992.65c-.641 2.153-1.95 3.029-2.411 3.279a99.893 99.893 0 0 1-.825-.572Zm-50.897-35.561c.773-.586 1.24-1.47 1.394-2.021l.748.5c-.411 1.039-1.033 1.651-1.474 1.978a15.991 15.991 0 0 1-.668-.457Zm19.806 20.492c.099 1.173-.174 2.37-.693 3.584-1.664.106-3.21-.108-4.577-.812-.08-1.267.114-2.47.693-3.583l4.577.811Zm-.765.664-3.353-.594c-.41.739-.537 1.297-.464 2.147 1.007.487 2.139.647 3.352.594.365-.807.551-1.36.465-2.147Zm-21.3-26.627c.455.017.81.379.791.806-.018.428-.402.76-.857.743-.455-.018-.809-.379-.791-.807.018-.427.402-.76.857-.742Z"/>
  <path fill="#3a2a60" d="m318.496 123.157-2.382-.216a1.801 1.801 0 0 1-1.201-.61 1.657 1.657 0 0 1-.399-1.245l1.006-10.211c.045-.449.273-.863.636-1.151.363-.288.83-.425 1.298-.383l2.382.216c.469.042.901.262 1.201.61.3.347.443.795.399 1.245l-1.006 10.21c-.044.45-.273.864-.636 1.152a1.83 1.83 0 0 1-1.298.383Zm-7.371-.524-2.02 1.231a1.84 1.84 0 0 1-1.338.225 1.772 1.772 0 0 1-1.111-.748l-5.738-8.656a1.646 1.646 0 0 1-.234-1.283c.102-.44.383-.824.78-1.066l2.02-1.231a1.838 1.838 0 0 1 1.337-.225c.46.098.86.367 1.112.748l5.737 8.656c.253.38.337.842.235 1.283-.102.44-.383.824-.78 1.066Z"/>
  <path fill="#4e2460" d="M312.347 121.915c-.459.1-.941.02-1.339-.221a1.708 1.708 0 0 1-.783-1.065l-2.352-10.005a1.638 1.638 0 0 1 .231-1.283c.251-.382.65-.652 1.11-.751l2.334-.505c.459-.1.94-.02 1.338.221.398.241.68.624.784 1.065l2.352 10.005c.103.44.02.902-.231 1.283a1.774 1.774 0 0 1-1.11.751l-2.334.505Z"/>
  <path fill="#a08025" d="m319.694 119.509-4.044-.366a.497.497 0 0 1-.462-.536l.51-5.176a.508.508 0 0 1 .558-.443l4.044.367a.497.497 0 0 1 .462.535l-.51 5.176a.506.506 0 0 1-.558.443Zm.708-3.04v-.003a1.667 1.667 0 0 0-.381-1.221 1.79 1.79 0 0 0-.533-.428l.073-.076a.585.585 0 0 0 .492-.217.531.531 0 0 0-.123-.734.533.533 0 0 0-.2-.082.526.526 0 0 0-.146-.155.587.587 0 0 0-.764.131.53.53 0 0 0-.052.517 9.192 9.192 0 0 1-.229.395c-.044-.046-.116-.065-.223.02l-.082.013a1.293 1.293 0 0 0-.695-.035 9.736 9.736 0 0 1-.182-.521.527.527 0 0 0 .05-.517.58.58 0 0 0-.724-.265.509.509 0 0 0-.174.126.538.538 0 0 0-.213.044.536.536 0 0 0-.264.699.575.575 0 0 0 .441.302c.116.176.226.356.33.54a.568.568 0 0 0-.039.078l-.12.04c-.147.049-.195.116-.242.178a.867.867 0 0 0-.115.207 1.58 1.58 0 0 0-.076.239l-.295.129-.368.161.33.226.265.18c.003.081.013.162.028.242a.898.898 0 0 0 .072.225c.035.069.069.144.204.218l.108.06a.593.593 0 0 0 .021.083c-.137.16-.279.316-.426.467a.582.582 0 0 0-.491.217.531.531 0 0 0 .122.734c.06.041.129.069.201.082a.502.502 0 0 0 .146.155.586.586 0 0 0 .764-.131.529.529 0 0 0 .052-.516c.088-.163.182-.322.28-.479.206.083.446.13.69.09.057.022.114.041.172.057.023.022.039.024.055.014l.066.016c.052.142.102.285.147.43a.53.53 0 0 0-.05.516.581.581 0 0 0 .725.266.54.54 0 0 0 .174-.125.534.534 0 0 0 .523-.454.519.519 0 0 0-.046-.29.575.575 0 0 0-.441-.302l-.057-.088a1.82 1.82 0 0 0 .608-.324 1.7 1.7 0 0 0 .612-1.134Zm-1.099 2.097a.248.248 0 0 1-.148.196.267.267 0 0 1-.241-.014.253.253 0 0 1-.146.185.272.272 0 0 1-.35-.133.25.25 0 0 1 .11-.333 9.623 9.623 0 0 0-.225-.658c.083-.049.166-.101.248-.153.123.213.255.423.394.627a.272.272 0 0 1 .335.138c.022.045.03.096.023.145Zm-.445-2.183c-.047.423-.208.89-.582 1.349l-.201-.283c.093-.033.134-.108.145-.209a1.386 1.386 0 0 0-.037-.386c-.038-.208-.079-.385-.179-.468l.034-.345c.115-.064.189-.23.268-.428a1.51 1.51 0 0 0 .111-.373c.009-.103-.018-.185-.107-.235l.18-.17.028.008.016.005.017.007.035.014c.094.188.332.745.28 1.43l-.008.084Zm-1.719-1.681a.78.78 0 0 0-.231.161 9.902 9.902 0 0 0-.427-.685.272.272 0 0 1-.335-.138.251.251 0 0 1 .124-.34.267.267 0 0 1 .241.014.25.25 0 0 1 .147-.184.271.271 0 0 1 .35.131.252.252 0 0 1-.11.334c.071.239.151.475.241.707Zm-.288 2.928c-.134.212-.26.429-.376.651a.25.25 0 0 1 .043.348.275.275 0 0 1-.37.066.244.244 0 0 1-.107-.208.267.267 0 0 1-.24-.029.25.25 0 0 1-.056-.357.275.275 0 0 1 .356-.075c.193-.191.378-.39.554-.596a.76.76 0 0 0 .196.2Zm1.08.106a1.22 1.22 0 0 1-.087-.019l-.012-.004a.746.746 0 0 1-.08-.026l-.021-.008a1.037 1.037 0 0 1-.152-.078.398.398 0 0 1-.041.021l-.005.002a.527.527 0 0 1-.378-.028.862.862 0 0 1-.158-.093l-.03-.026a.637.637 0 0 1-.194-.274l-.006-.017a.575.575 0 0 1-.026-.105l-.003-.017v-.002l-.196-.134c-.031-.022-.06-.079-.079-.165a1.347 1.347 0 0 1-.029-.209 3.073 3.073 0 0 1 .011-.432l.001-.007c.01-.101.024-.194.04-.278l.004-.021c.009-.042.019-.085.03-.126l.013-.043.02-.067c.011-.03.022-.061.036-.09.036-.081.075-.132.11-.148l.216-.096.02-.053.001-.002.019-.042.012-.021a.66.66 0 0 1 .346-.299c.159-.064.317-.08.456-.019a.34.34 0 0 1 .079.05c.033-.012.067-.023.1-.032l.063-.015.033-.007c.026-.004.052-.008.078-.01h.002l-.171.163c-.235.024-.492.129-.57.326-.104.262.144.596.371.727l-.035.353c-.248.088-.557.371-.506.647.038.21.276.361.504.425l.214.299Zm-.314-1.559v-.002c-.069-.174-.245-.325-.393-.338-.148-.014-.211.115-.142.289v.002l-.001.002c-.101.158-.064.297.084.31.148.014.35-.104.451-.262l.001-.001Zm.291 1.188c-.003.034-.039.059-.08.055l-.132-.012c-.041-.004-.072-.034-.069-.068.004-.034.04-.059.081-.055l.132.012c.041.004.072.034.068.068Zm1.685-.905a1.845 1.845 0 0 1-.065.321c-.076.25-.202.482-.372.685-.127.15-.223.219-.234.21-.014-.012.061-.101.164-.259.102-.156.235-.386.311-.67.027-.099.047-.2.058-.301.018-.164.018-.33-.001-.493a2.746 2.746 0 0 0-.136-.585c-.061-.147-.091-.237-.077-.243.013-.006.068.073.15.212a2.002 2.002 0 0 1 .202 1.123Zm.139-2.237-.002.018a.274.274 0 0 1-.406.195 9.921 9.921 0 0 0-.454.486 1.122 1.122 0 0 0-.25-.169c.117-.187.227-.378.331-.572a.25.25 0 0 1-.043-.347.275.275 0 0 1 .37-.067.249.249 0 0 1 .107.208.27.27 0 0 1 .24.028c.072.05.113.133.107.22Zm-1.064-1.91c-.016.161-.151.282-.299.269-.148-.014-.257-.157-.241-.318.016-.16.151-.281.299-.268.148.014.257.157.241.317Zm-1.497-.88c-.016.16-.151.282-.299.268-.148-.013-.257-.156-.241-.317.016-.161.151-.282.299-.268.148.013.256.157.241.317Zm3.075.28c-.016.16-.151.281-.299.268-.148-.014-.257-.157-.241-.317.016-.161.151-.282.299-.268.148.013.257.156.241.317Zm-.932 9.455c-.016.16-.151.281-.299.268-.148-.014-.257-.157-.241-.317.016-.161.151-.282.299-.269.148.014.257.157.241.318Zm-.496-10.383c-.015.16-.15.281-.298.268-.148-.013-.257-.157-.241-.317.015-.161.15-.282.299-.268.148.013.256.156.24.317Zm-.931 9.455c-.016.16-.151.281-.299.268-.148-.014-.257-.157-.241-.317.016-.161.15-.282.299-.269.148.014.256.157.241.318Zm-.151 1.528c-.016.16-.151.282-.299.268-.148-.013-.257-.157-.241-.317.016-.161.151-.282.299-.268.148.013.257.156.241.317Zm-1.497-.88c-.016.161-.151.282-.299.268-.148-.013-.257-.156-.241-.317.016-.16.151-.282.299-.268.148.013.257.157.241.317Zm-5.564-2.444a.515.515 0 0 1-.613-.372l-1.192-5.071a.492.492 0 0 1 .387-.588l3.963-.857c.276-.06.55.107.612.372l1.193 5.071a.492.492 0 0 1-.387.588l-3.963.857Zm-1.105-2.93c.102.43.373.807.757 1.05.196.122.415.206.645.248l-.044.094a.564.564 0 0 0-.397.353.516.516 0 0 0-.008.294.542.542 0 0 0 .58.386.552.552 0 0 0 .189.103.574.574 0 0 0 .683-.352.533.533 0 0 0-.118-.506c.026-.149.056-.297.09-.445l.062-.024c.017.008.033.004.053-.02.056-.024.11-.049.163-.078.248.01.48-.066.673-.174.118.144.232.291.341.442a.535.535 0 0 0 .12.506c.193.2.562.225.775.036a.51.51 0 0 0 .125-.171.564.564 0 0 0 .188-.106.53.53 0 0 0 .024-.744.59.59 0 0 0-.516-.155 9.56 9.56 0 0 1-.485-.411.598.598 0 0 0 .01-.085l.1-.072a.415.415 0 0 0 .172-.242.86.86 0 0 0 .042-.231 1.654 1.654 0 0 0-.004-.244l.239-.211.297-.264-.386-.115-.31-.092a1.619 1.619 0 0 0-.107-.227.89.89 0 0 0-.141-.192c-.055-.056-.112-.116-.264-.147l-.124-.025a.929.929 0 0 0-.049-.073c.079-.195.164-.387.255-.576a.568.568 0 0 0 .398-.353.542.542 0 0 0-.355-.661.548.548 0 0 0-.217-.018.538.538 0 0 0-.189-.104.573.573 0 0 0-.683.352.528.528 0 0 0 .118.506 8.879 8.879 0 0 1-.112.539 1.283 1.283 0 0 0-.684.12l-.083-.003c-.118-.071-.187-.044-.224.007a8.179 8.179 0 0 1-.28-.364.532.532 0 0 0-.12-.506c-.193-.2-.561-.225-.775-.036a.511.511 0 0 0-.124.171.527.527 0 0 0-.188.105.53.53 0 0 0-.024.744.59.59 0 0 0 .516.155l.082.067a1.658 1.658 0 0 0-.687 1.746l.001.003Zm1.367 1.946a.25.25 0 0 1 .004-.146.27.27 0 0 1 .314-.178c.111-.22.214-.443.307-.67.089.042.178.083.268.122a9.27 9.27 0 0 0-.137.679.254.254 0 0 1 .154.317.271.271 0 0 1-.33.175.253.253 0 0 1-.169-.166.268.268 0 0 1-.238.044.253.253 0 0 1-.173-.177Zm1.224-1.361c-.007-.033.019-.067.059-.076l.13-.028c.04-.008.079.011.087.044.008.034-.019.068-.059.077l-.129.028c-.041.008-.08-.012-.088-.045Zm-1.79-.692a1.994 1.994 0 0 1 .051-1.139c.063-.148.107-.233.121-.228.014.004-.003.097-.045.25-.04.197-.06.396-.057.596a2.196 2.196 0 0 0 .162.782c.113.272.276.483.397.626.124.144.209.223.197.237-.009.01-.114-.046-.26-.18a1.963 1.963 0 0 1-.459-.634 1.804 1.804 0 0 1-.107-.31Zm2.2-2.043c.059-.242.107-.485.146-.731a.254.254 0 0 1-.154-.317.27.27 0 0 1 .33-.174.255.255 0 0 1 .17.165.268.268 0 0 1 .237-.043c.137.04.213.186.169.322a.27.27 0 0 1-.314.178 9.42 9.42 0 0 0-.333.731.782.782 0 0 0-.251-.131Zm-2.635-.159a.244.244 0 0 1 .077-.231.27.27 0 0 1 .234-.058.244.244 0 0 1 .079-.219.277.277 0 0 1 .376.021.25.25 0 0 1 .003.35c.129.18.264.355.404.526a1.16 1.16 0 0 0-.226.199c-.166-.148-.338-.29-.514-.427a.277.277 0 0 1-.429-.143l-.004-.018Zm2.252 3.265.173-.323c.218-.091.433-.27.444-.483.013-.28-.33-.523-.588-.58l-.081-.346c.207-.158.409-.519.271-.766-.104-.186-.373-.259-.609-.254l-.191-.141h.081l.033.003.064.007c.035.005.07.012.104.02a.315.315 0 0 1 .072-.059c.129-.077.289-.082.455-.038a.845.845 0 0 1 .11.039.659.659 0 0 1 .273.216l.014.02.025.039.001.002.026.05.228.068c.037.012.082.058.129.134.017.028.033.056.047.085l.029.064.019.041c.016.04.032.08.046.122l.006.02c.028.082.054.172.078.271l.001.006a2.803 2.803 0 0 1 .068.428c.005.07.005.14-.001.21-.008.088-.028.148-.056.174l-.177.157v.018a.661.661 0 0 1-.012.108l-.003.018-.017.061a.641.641 0 0 1-.139.234l-.028.03a.788.788 0 0 1-.144.111.52.52 0 0 1-.371.074l-.005-.001c-.015-.005-.029-.009-.043-.016a.941.941 0 0 1-.141.095l-.019.011a1.078 1.078 0 0 1-.077.036l-.011.005a1.038 1.038 0 0 1-.084.03Zm.105-1.585.001.001c.122.145.337.236.482.205.145-.031.164-.174.042-.318l-.001-.002v-.002c.046-.18-.035-.301-.18-.27-.144.032-.299.203-.344.384v.002Zm-1.203.356-.02-.083a2.847 2.847 0 0 1 .088-1.453l.033-.018.016-.008.015-.007.027-.012.201.148c-.082.06-.098.144-.075.246.024.104.087.226.16.356.104.186.2.342.322.391l.079.339c-.087.094-.105.275-.115.485-.008.148-.011.284.015.388.024.099.075.168.172.19l-.162.305a2.574 2.574 0 0 1-.756-1.267Zm2.156.991a.742.742 0 0 0 .167-.222c.202.183.412.358.628.524a.277.277 0 0 1 .364.031.25.25 0 0 1-.008.361.266.266 0 0 1-.234.058.243.243 0 0 1-.079.219.276.276 0 0 1-.376-.02.25.25 0 0 1-.003-.351 10.13 10.13 0 0 0-.459-.6Zm-2.508-5.051c-.037-.157.052-.313.197-.344.145-.032.295.072.332.229.037.158-.052.313-.197.345-.145.031-.295-.073-.332-.23Zm1.368-1.056c-.036-.157.052-.312.197-.344.145-.031.296.072.333.23.036.157-.052.312-.198.344-.145.031-.294-.073-.332-.23Zm-3.013.653c-.037-.158.052-.313.197-.344.146-.032.295.072.332.229.037.158-.052.313-.197.344-.145.032-.295-.072-.332-.229Zm2.179 9.264c-.037-.157.052-.312.197-.344.145-.031.295.072.332.23.037.157-.052.312-.197.344-.146.031-.295-.073-.332-.23Zm-.886-10.359c-.037-.157.052-.312.197-.344.145-.031.295.073.332.23.037.157-.052.313-.197.344-.145.031-.295-.072-.332-.23Zm2.178 9.265c-.037-.158.052-.313.197-.345.146-.031.295.073.332.23.037.157-.052.313-.197.344-.145.031-.295-.072-.332-.229Zm.352 1.497c-.037-.157.052-.313.197-.344.146-.031.295.072.332.23.037.157-.051.312-.197.344-.145.031-.295-.073-.332-.23Zm1.369-1.055c-.037-.158.052-.313.197-.344.145-.032.295.072.332.229.037.158-.052.313-.197.344-.145.032-.295-.072-.332-.229Zm-4.548-.342-3.427 2.09a.526.526 0 0 1-.708-.151l-2.908-4.388a.479.479 0 0 1 .157-.678l3.428-2.09a.526.526 0 0 1 .708.151l2.908 4.388a.479.479 0 0 1-.158.678Zm-1.386-2.818-.001-.002a1.784 1.784 0 0 0-1.081-.74 1.868 1.868 0 0 0-.695-.024l.008-.103a.544.544 0 0 0 .25-.461.56.56 0 0 0-.567-.508.544.544 0 0 0-.21.054.524.524 0 0 0-.215-.036.554.554 0 0 0-.519.552c.008.18.126.348.289.438.028.149.052.298.072.447-.063-.01-.133.017-.163.148l-.056.058a1.244 1.244 0 0 0-.572.381 10.119 10.119 0 0 1-.476-.304.547.547 0 0 0-.292-.438c-.252-.126-.608-.03-.742.217a.493.493 0 0 0-.056.202.519.519 0 0 0-.14.159c-.134.247-.014.582.239.708a.597.597 0 0 0 .541-.021c.204.071.406.149.606.232a.804.804 0 0 0 .019.085l-.069.102c-.084.125-.08.207-.077.283a.836.836 0 0 0 .042.232c.024.079.055.157.092.233l-.15.275-.187.344.404-.016.325-.014c.054.062.114.121.177.175.065.055.129.1.201.135.071.035.146.073.3.053l.124-.017a.612.612 0 0 0 .07.053 9.868 9.868 0 0 1-.038.62.546.546 0 0 0-.25.46.56.56 0 0 0 .567.508.57.57 0 0 0 .211-.053.56.56 0 0 0 .215.036.555.555 0 0 0 .519-.553.546.546 0 0 0-.289-.438 9.144 9.144 0 0 1-.086-.543c.216-.056.436-.159.603-.335a1.92 1.92 0 0 0 .172-.056c.033.003.047-.004.053-.022l.062-.025c.132.081.263.165.391.252a.55.55 0 0 0 .291.437c.252.126.608.031.742-.216a.495.495 0 0 0 .058-.201.511.511 0 0 0 .139-.161.511.511 0 0 0-.016-.505.545.545 0 0 0-.223-.202.594.594 0 0 0-.541.02l-.1-.035c.131-.186.223-.395.271-.614a1.658 1.658 0 0 0-.242-1.256Zm-1.965-1.379.01.016a.26.26 0 0 1-.196.392 9.404 9.404 0 0 0-.047.651 1.213 1.213 0 0 0-.307.013 9.537 9.537 0 0 0-.104-.646.262.262 0 0 1-.256-.248.261.261 0 0 1 .467-.17.262.262 0 0 1 .433-.008Zm.57 3.554c.019.029.006.069-.029.091l-.112.068c-.035.021-.078.015-.097-.014-.019-.029-.007-.069.028-.09l.112-.068c.035-.021.079-.016.098.013Zm.751-1.706a1.89 1.89 0 0 1 .298 1.051c-.003.194-.036.305-.05.304-.018-.001-.017-.115-.036-.301a2.343 2.343 0 0 0-.183-.712 2.04 2.04 0 0 0-.147-.272c-.09-.14-.196-.27-.316-.389a2.91 2.91 0 0 0-.481-.381c-.143-.08-.224-.134-.217-.147.006-.012.1.018.255.079.195.094.375.216.533.361.132.121.248.258.344.407Zm-.63.372c.234.362.406.826.404 1.407l-.34-.104c.052-.081.037-.165-.019-.251a1.604 1.604 0 0 0-.276-.284c-.163-.141-.309-.257-.44-.263l-.194-.293c.049-.118.001-.293-.063-.495a1.47 1.47 0 0 0-.151-.36c-.058-.087-.132-.136-.234-.123l.032-.24.028-.011.016-.005.017-.004.037-.01c.195.094.739.393 1.136.965l.047.071Zm-2.432-.316a.737.737 0 0 0-.08.263 10.152 10.152 0 0 0-.775-.289.275.275 0 0 1-.353.088c-.132-.066-.186-.221-.119-.343a.26.26 0 0 1 .199-.13.242.242 0 0 1-.002-.232c.066-.122.229-.168.361-.102a.253.253 0 0 1 .126.329c.209.146.423.285.643.416Zm4.181 1.777a.243.243 0 0 1 .008.243.256.256 0 0 1-.2.13.24.24 0 0 1 .003.232c-.067.122-.23.168-.361.102-.126-.063-.182-.208-.127-.328a9.844 9.844 0 0 0-.598-.387 6.11 6.11 0 0 0 .098-.268c.234.097.472.185.713.264a.275.275 0 0 1 .353-.088.282.282 0 0 1 .111.1Zm-2.536.704c.03.247.07.492.12.736.137.003.25.112.256.249a.26.26 0 0 1-.467.169.262.262 0 0 1-.48-.131.26.26 0 0 1 .233-.269c.03-.264.048-.53.056-.796.09.031.186.045.282.042Zm.921-.551a1.173 1.173 0 0 1-.081.036l-.012.004c-.026.01-.053.019-.08.027l-.021.005a1.098 1.098 0 0 1-.17.029.49.49 0 0 1-.019.04l-.003.004a.501.501 0 0 1-.316.201.887.887 0 0 1-.185.019l-.04-.002a.69.69 0 0 1-.328-.102l-.017-.011a.636.636 0 0 1-.087-.068l-.013-.011-.001-.002-.24.01c-.04.001-.098-.027-.169-.084a1.365 1.365 0 0 1-.156-.148 2.906 2.906 0 0 1-.268-.347l-.004-.006a2.955 2.955 0 0 1-.146-.244l-.01-.019a2.121 2.121 0 0 1-.058-.117l-.016-.041-.027-.065a.76.76 0 0 1-.03-.092c-.023-.086-.025-.149-.008-.182l.11-.203-.019-.053v-.003l-.011-.044-.005-.023a.642.642 0 0 1 .082-.44c.084-.144.2-.25.348-.284a.336.336 0 0 1 .095-.006.847.847 0 0 1 .058-.085l.04-.049.022-.024.055-.055.002-.001-.031.23c-.17.157-.306.391-.242.593.086.268.495.386.758.356l.198.299c-.139.215-.202.621.014.808.165.144.45.124.671.039l.36.111Zm-1.245-1.047-.002-.001c-.165-.097-.401-.113-.526-.036-.126.076-.093.216.072.312l.002.001.001.002c.02.185.138.273.264.196.125-.076.21-.288.189-.472v-.002Zm-1.642-3.669c.09.136.061.311-.064.388-.126.076-.304.027-.394-.109-.09-.136-.061-.311.065-.388.125-.076.303-.027.393.109Zm-1.745.186c.09.136.061.311-.065.387-.125.077-.303.028-.393-.108-.09-.136-.061-.312.064-.388.126-.076.303-.027.394.109Zm2.607-1.589c.09.136.061.311-.065.388-.125.076-.303.027-.393-.109-.09-.136-.061-.311.065-.387.125-.077.303-.028.393.108Zm5.312 8.015c.091.136.061.311-.064.387-.126.077-.303.028-.393-.108-.091-.136-.061-.311.064-.388.126-.076.303-.027.393.109Zm-7.033-7.908c.09.136.061.311-.064.388-.126.076-.303.027-.394-.109-.09-.136-.061-.311.065-.387.126-.077.303-.028.393.108Zm5.313 8.015c.09.136.061.311-.065.388-.125.076-.303.027-.393-.109-.09-.136-.061-.311.064-.388.126-.076.303-.027.394.109Zm.858 1.295c.09.137.061.312-.064.388-.126.077-.303.028-.393-.109-.091-.136-.062-.311.064-.387.125-.077.303-.028.393.108Zm-1.745.187c.09.136.061.311-.064.387-.126.077-.303.028-.394-.108-.09-.136-.061-.312.065-.388.125-.077.303-.027.393.109Z"/>
  <path fill="#68529b" d="m345.03 173.068-.357 1.89c-1.643.083-3.103-.189-4.409-.762l.356-1.89a8.462 8.462 0 0 1 4.41.762Zm-16.859-14.76-.438 1.232c-1.32-.172-2.466-.559-3.465-1.129l.438-1.231a8.207 8.207 0 0 1 3.465 1.128Z"/>
  <path fill="#3a2a60" d="M329.86 143.669c-.098.069-.114.221-.211.289-.026.018-1.664.296-6.096 1.832-3.969 1.376-6.092 1.949-9.574 3.183-.162.057-.146-.045-.375-.116.092-.093.08-.26.173-.353.008-.009 3.822-1.962 7.123-3.121.647-.227 4.206-1.476 8.356-1.894.105-.011.213-.06.314-.03.114.034.175.176.29.21Zm-4.986-25.721 1.754 7.773a3.9 3.9 0 0 1-3.024 4.693l-17.036 3.521a4.074 4.074 0 0 1-4.778-3.081l-1.754-7.773a3.899 3.899 0 0 1 3.024-4.693l17.036-3.521a4.074 4.074 0 0 1 4.778 3.081Z"/>
  <path fill="#301e4f" d="m326.766 126.333.493 2.183c.136.603-.265 1.198-.895 1.328l-22.556 4.661c-.63.13-1.251-.253-1.387-.856l-.493-2.183c-.136-.603.265-1.198.894-1.328 5.977.338 13.39.171 22.557-4.661.63-.13 1.251.253 1.387.856Z"/>
  <path fill="#23163a" d="M301.999 121.136v1.925h-.403v-1.925h.403Zm.4 4.406.192 1.916-.401.037-.191-1.916.4-.037Zm.705 4.234.587 1.841-.384.113-.588-1.841.385-.113Zm20.106-12.639.385-.109.573 1.845-.386.109-.572-1.845Zm.926 4.333.395-.074.386 1.889-.395.074-.386-1.889Zm.583 4.251.402.003-.015 1.925-.402-.003.015-1.925Z"/>
</svg>
