<svg xmlns="http://www.w3.org/2000/svg" xml:space="preserve" width="144" height="192" fill-rule="evenodd" stroke-linecap="round" stroke-linejoin="round" stroke-miterlimit="1.5" clip-rule="evenodd">
  <path fill="#352052" d="M92.793 123.521c32.491 6.333 55.677 26.284 51.744 44.526-3.932 18.242-33.502 27.911-65.993 21.579-32.49-6.333-55.676-26.284-51.744-44.526 3.932-18.243 33.503-27.911 65.993-21.579Z"/>
  <path fill="#2e1b46" d="M84.226 128.264c29.645 4.839 51.575 20.613 48.941 35.204-2.634 14.59-28.84 22.508-58.485 17.669-29.646-4.839-51.575-20.613-48.942-35.203 2.634-14.591 28.841-22.508 58.486-17.67Z"/>
  <path fill="#26183f" d="M28.325 144.559s47.617 48.454 81.485 24.258c22.565-16.121 3.266-28.272 3.266-28.272l-3.266.319-81.485 3.695Z"/>
  <path fill="#3a2a60" d="M56.687 152.5s3.337.404 5.727-.658c0 0 4.093 8.23 20.002-.145 0 0 8.582 1.425 7.611 3.664-8.496 8.024-19.992 8.994-33.391 5.493l.051-8.354Z"/>
  <path fill="#342256" d="M86.696 152.858s-5.643 9.824-25.113 5.894c0 0-1.43.983-.874 2.947 0 0 11.177 3.377 21.826-1.082l7.905-5.613s-1.916-3.128-3.744-2.146Z"/>
  <path fill="#3a2a60" d="m63.141 138.921-1.694-2.412c-6.517 5.438-11.817 5.724-16.986.823-.73.318-2.181.231-3.155-.035l-1.852 5.089c.505.838 1.334 3.274 6.766 3.398 6.865.157 15.655-.44 15.245-2.045l1.676-4.818Z"/>
  <path fill="#342256" d="m57.821 138.524 3.762-1.942 1.601 2.515s-1.668 3.637-2.238 5.262c0 0-5.517 3.25-17.089 1.238 0 0 2.262-1.044 1.977-2.67 0 0 6.681 1.587 11.987 0 0 0 5.028-3.042 0-4.403Z"/>
  <path fill="#4e2460" d="M70.348 103.779s-5.951 1.393-17.941-3.795l-.042 3.455 1.259.539s-1.64 3.266 1.269 6.55l.508 7.101s-2.83 6.536-1.793 10.773l-1.725 2.758s8.196 1.657 11.193 8.115l-2.45 8.02 6.658-2.962s4.196-.417 8.351 2.68c4.154 3.098 10.923 6.173 13.123 6.204 0 0 2.257 1.633 1.971 2.768l8.193-5.48-9.149-11.231-12.831-23.844-5.041-5.848s-1.657.447-1.805-1.623l.252-4.18Z"/>
  <path fill="#726699" d="m68.697 99.789-14.515-9.808-2.592 9.757s12.58 5.47 18.084 4.646l2.038-2.41-3.015-2.185Z"/>
  <path fill="#3a2a60" d="M93.484 110.947c.295-.213.472-.343.472-.343l6.307 1.396 2.49-2.249-1-.85.671-1.388s3.027-.68 5.468-4.053c3.157-4.361-13.759-16.372-14.99-15.618 0 0-2.214 2.569-2.233 4.353 0 0-.733 1.103-.712 2.964l-.195 3.39s-3.041.354-6.994-.443c-3.953-.798-6.701.271-7.574.823l-6.358-4.471s5.469-10.411 10.875-13.893c0 0 2.672-2.741 6.396-.535l.789-1.439-3.899-5.673 3.175-1.775 2.645 2.443s-.107 1.877 1.576-2.908c1.684-4.784 2.989-11.763 1.596-12.962l.921-.906 10.837 4.028c7.481 8.552 12.958 18.596 17.572 29.282l-8.232 9.074c4.35 7.842 10.01 13.81 16.161 19.078l-9.02 4.547 3.728 3.165c-2.867 9.301-7.581 14.282-14.228 14.75-2.557 1.604-27.671-25.354-26.087-26.644 0 0 3.433.996 5.317-.103a1.41 1.41 0 0 0 .04-.024l8.44 6.091s4.025 2.228 4.794 5.548c.304 3.922-5.875.282-5.875.282l-2.56-4.616-2.553.308s1.04 3.067 4.248 7.173c5.357 4.228 7.863 4.33 11.985 1.596 3.995-4.866-.802-10.681-.802-10.681-.708-2.787-3.329-2.185-3.329-2.185l-9.862-6.532Z"/>
  <path fill="#342256" d="m78.502 97.261-2.737 1.56-7.578-3.869s8.239-13.059 11.596-14.751c3.357-1.693 5.493-1.209 6.358-.484l.915-1.548s-3.458-4.691-4.272-5.32c-.814-.628 2.747-2.369 4.272-1.354l2.086 2.032s2.288-3.724 2.695-6.723l2.899 2.66s-3.571 3.778-2.899 13.148c0 0 1.483 2.016-1.263 6.079-2.747 4.062-4.433 5.803-4.433 5.803l-7.639 2.767Zm27.022-.807c2.91-.363 5.541-2.975 7.788-8.69-4.37-12.358-8.517-18.111-12.556-20.706 0 0 2.702-4.705 5.642-4.459l14.178 26.325-9.489 11.782-.811 2.479h-2.466s1.369-3.825-2.286-6.731Z"/>
  <path fill="#281a42" d="m92.865 109.975 7.662 1.709 1.687-1.859-1.065-1.239.963-1.525s5.773-2.962 5.902-3.912l2.776-.208s.663-3.454 2.142-3.592l2.419 4.86s-12.402 5.087-14.08 12.028l-8.406-6.262Zm4.763 9.789c-4.447-1.123-2.791 3.203-2.791 3.203l-.9-1.792-1.915-.199-3.649-.528c-2.141-2.389-4.333-6.706-4.333-6.706 2.615 1.821 5.407.222 5.407.222l8.181 5.8Z"/>
  <path fill="#726699" d="m56.797 32.455.245 3.469s-4.524 5.4-.109 9.19c0 0 4.07 6.754 3.621 11.863 0 0 .453 1.909 1.366 1.43 0 0-.108 3.264 2.858 1.207 0 0 1.421 4.9 4.708 1.931 0 0 5.679 3.13 14.604-4.287 7.046-7.361 5.511-12.145 5.511-12.145s.681 1.889 3.145 3.039c0 0 3.259-5.306 3.241-7.23-.018-1.923-.781-2.203-.781-2.203l1.217-1.253s-2.2-2.89-4.993-1.097c0 0-1.251-1.326-2.852 2.617l-1.756-.228s-.092-4.908-.736-5.372c0 0-7.466 3.093-14.629 2.941-7.163-.152-13.854-3.508-14.66-3.872Z"/>
  <path fill="#68529b" d="m67.061 42.104 2.543-4.959s14.744-2.325 16.371-4.211c0 0 1.373 3.821.61 5.997h2.035s.814 2.612.712 8.028c-.102 5.417-7.324 13.494-16.072 15.573-8.748 2.08-7.121-.58-7.121-.58l-.61-4.014s6.866-.048 2.289-2.37c0 0 4.577 1.886 8.951-1.983 4.374-3.869 8.24-10.253 8.24-10.253s-2.798 3.918-10.325 2.999l-5.08-.977s2.018-2.012 0-2.817l-2.543-.433Zm11.372-.652c-1.626.235-2.871.894-2.779 1.471.092.578 1.487.856 3.113.621 1.626-.234 2.872-.894 2.78-1.471-.092-.577-1.487-.855-3.114-.621Z"/>
  <path fill="#68529b" d="m64.459 42.889.744.532 1.322-.532c.841 1.21 2.198.186 4.004.405.391.935-.381 1.531-1.438 1.501-.527-.016-1.066-.377-1.65-.409-.958-.051-1.62.221-2.125.24 0 0-1.378-.901-.857-1.737Zm26.532-2.548s1.759-5.122 4.607-1.988c0 0-1.587-.348-.854 1.354 0 0-.61 7.158-2.889 5.455-2.279-1.702-.524-2.678-.167-3.102.42-.499.198-1.332-.697-1.719Z"/>
  <path fill="#3a2a60" d="M90.971 40.378s.483-.048.667.491c0 0 1.166-2.092 1.833-2.076.667.016 1.1-.634.433-1.014 0 0 .667.158 1 .57l.55-.269s-1.269-1.314-2.733-.761c-1.217.46-1.667 2.726-1.75 3.059Z"/>
  <path fill="#724b84" d="M65.146 35.689c1.113.043 1.981.935 1.935 1.991-.045 1.056-.985 1.879-2.098 1.836-1.113-.043-1.98-.935-1.935-1.991.045-1.057.985-1.879 2.098-1.836Z"/>
  <path fill="#433b7b" d="M91.633 36.395s-1.662-1.495-3.001 2.698l-1.889-.252s.631-4.388-.933-5.564c0 0 7.305-5.617 11.103-3.759 0 0 2.986 2.801 1.878 7.988-.843 2.466-2.023 4.165-3.225 5.813 0 0 .955-3.388-.257-4.643l1.082-1.25s-2.139-2.826-4.758-1.031Zm2.43 9.607s1.507 3.471.3 5.461c0 0 3.08.728 3.509 2.675.429 1.948-1.427 4.362-4.096 3.245-2.669-1.116-2.975-3.414-3.14-3.772-.166-.358-1.931-2.875-1.931-2.875l1.109-5.005s1.68 2.315 2.846 2.472l1.403-2.201Z"/>
  <path fill="#988ea9" d="m82.477 151.792-10.345-7.041-6.258-.163s-9.159 3.595-9.283 8.018c0 0 4.492.206 5.768-.652 0 0 1.808 3.899 7.396 3.494 6.139-.909 12.722-3.656 12.722-3.656Z"/>
  <path fill="#897c9f" d="M61.56 136.66s-5.705-6.572-11.849-5.782c0 0-6.08 1.998-8.137 6.404 0 0 1.664.932 3.319-.08 0 0 5.722 8.024 16.667-.542Z"/>
  <path fill="#988ea9" d="M89.388 98.5s-1.047.197-2.68.082c-3.397-.24-9.1-.756-11.576.322-3.162 1.378-4.712 4.645-4.712 4.645s-1.076 5.424.658 6.124c1.536.244 2.077-2.632 1.925-3.533 0 0 2.02-1.929 2.213-3.223 0 0 2.499.742 3.332-.287 0 0-.374 3.738-1.338 5.694.679 1.512 2.817 3.133 2.817 3.133l.079 1.321 3.624 1.205c1.792.748 4.03.818 5.528.138l-.608-.677-1.394-.668-1.457-1.965.007-1.531c4.545 1.493 8.004 1.366 9.906-1.081.684-4.827-1.135-8.225-6.324-9.699ZM3.919 71.091s.347-.287 1.666.598c1.32.884 6.634 2.353 6.634 2.353s.962 2.49-.751 2.703l2.138 1.381s.271 2.424-.95 2.803c0 0 .72 2.713-1.716 2.723 0 0 .972 1.42-4.819 1.346-3.391-.252-3.514-3.386-3.514-3.386s-1.353-1.508-.489-2.926c0 0-1.779-1.511.151-3.79-.53-.945-.906-2.307-1.048-4.294l2.243-1.406s.846 1.396.455 1.895Zm1.278-4.259-1.768-3.586c-.11-2.921 3.864-1.716 3.864-1.716l.741 2.856-2.837 2.446Z"/>
  <path fill="#a08025" d="m100.89 155.79-5.092 2.678s-.269-3.083-1.476-1.754c-.08 1.186-1.254 2.696-2.296 2.834 0 0-2.143-1.434-2.463.397.063 1.423-.878 2.901-1.472 2.28-.594-.62-2.175-1.248-1.93 1.429l-2.393 1.209s-1.998-1.89-2.04.639c.149 1.073-1.615 1.677-2.268 1.875-.653.198-2.186-2.165-3.405.774 0 0-5.519 2.385-12.944 1.591-7.426-.795-11.206-4.523-11.206-4.523l-.631-2.702 4.823-4.24s.091 4.174 7.438 4.526c7.347.351 23.424-1.887 26.516-7.626l1.565.172 7.353-4.752 1.921 5.193Zm-39.693-11.869-.276 3.332s-2.803 1.022-3.49 2.934l-2.688.444s-.477-1.768-1.736.12l-2.57.03s-.574-2.442-2.232-.043l-2.349-.58s-1.153-2.085-3.175-.047l-4.376-1.993s.378-2.765-1.542-2.852c0 0 .422-3.963 3.325-5.124 0 0-1.683 2.943 1.206 4.908 14.847 2.652 19.903-1.129 19.903-1.129Z"/>
  <path fill="#988ea9" d="m83.335 45.215.325.161s-3.124 7.415-10.395 10.269c0 0-6.516.752-10.072-1.509l-1.945-5.148.764-1.405s3.046.115 3.919 1.578c0 0 .785-1.333 2.618-.581 1.834.752 7.536 3.665 14.786-3.365Zm19.293-8.797c.297.806 1.385 2.391 1.192-.859-.193-3.251-3.785-8.69-7.908-9.538-4.123-.848-9.909 1.858-11.08 2.456-1.17.598-10.276 4.246-13.54 4.32-3.264.074-6.552-.251-9.112-1.854-2.699-1.689-6.882-7.145-7.356-9.259-.439-1.96-.024-4.726-.024-4.726l2.248-.842 7.128 3.09-.359-.845-8.403-7.227s-1.924 2.53-1.985 4.099l-2.92 2.211s1.416 8.663 5.835 13.282c4.419 4.619 14.285 5.8 17.027 5.453 2.742-.346 8.822-.872 13.871-3.97 5.048-3.098 11.424-6.544 15.386 4.209Z"/>
  <path fill="#726699" d="M67.339 152.161c2.854 1.547 5.523 1.524 7.946-.587.275-.552.094-1.073-.815-1.542-1.52 1.24-4.064 1.846-7.131 2.129Zm-17.62-14.862c2.098 1.246 4.11 1.2 6.009-.562.226-.458.108-.885-.561-1.262-1.189 1.036-3.127 1.561-5.448 1.824Z"/>
  <path fill="#3e2158" d="m93.964 153.892-.315-7.462-1.755.486c-10.381 0-15.499-8.759-15.499-8.759l.69-5.162c1.345-16.769-8.422-23.945-8.534-25.964l1.591-.314c-1.216 3.156 1.825 2.847 1.825 2.847l5.439 6.251 12.785 24.46 8.712 9.939-4.939 3.678ZM62.52 107.259l3.666.296 2.741 14.078-1.113 13.788s-5.027 5.735 1.919 5.822c0 0-6.078 1.759-2.148 3.179l-6.663 2.665 1.947-8.257-2.546-3.382s5.69 1.673 2.359-3.879l1.486.765 1.974-10.512-.739-6.99-1.539-3.056-1.344-4.517Zm-6.944 10.778 2.246 10.366c-2.48 2.225-.983 4.672-.983 4.672-.889-1.157-4.679-2.18-4.679-2.18l1.684-2.536c-1.637-4.983 1.732-10.322 1.732-10.322Zm18.861-55.624 5.776-2.016s-5.211 11.102-5.503 24.936l-5.171 6.626 4.898-29.546Zm-13.795-7.566c-9.287 3.88-23.882.57-23.882.57l23.245-2.456.637 1.886Zm-4.814 50.169-1.533 4.716c-1.198-1.777-.359-5.513-.359-5.513l1.892.797Z"/>
  <path fill="#281a42" d="M91.79 77.301s-.635 3.325 0 6.892c.636 3.566-5.261 5.115-6.31 10.752 0 0-4.815-.777-9.584 3.394 0 0 12.572.144 13.744.267l.065-3.281.288-.38a16.674 16.674 0 0 1 2.833-7.29l2.527 1.475 3.06-2.848s-5.14-2.865-6.623-8.981Z"/>
  <path fill="#726699" d="m110.338 140.68-1.044 5.284 4.669.521s3.022 9.196-5.197 11.085c-6.678.512-7.446-.372-7.446-.372s1.004-5.198-7.75-12.897c-6.393-9.277-11.599-18.739-15.891-28.342l-5.656-6.389s1.301-1.192 1.283-3.518c0 0 1.382-.855 1.701-1.931l3.124 2.061-.703 2.132 3.037 3.31-.016 1.352 3.615 1.149c3.009 3.023 4.55 5.764 5.385 7.927.108.279 1.223.074 1.38.322 6.831 10.809 13.976 15.843 19.509 18.306Z"/>
  <path fill="#988ea9" d="M60.408 56.369s-10.351 15.73-6.057 28.522l14.458 9.673 5.647-32.234s-11.442 6.296-14.048-5.961Z"/>
  <path fill="#4e2460" d="M88.514 50.872s5.996 12.253.811 22.669c0 0-6.043-5.885-5.607.514 1.906 2.02 3.263 4.681 3.263 4.681l-.933 1.137S77.92 75.68 69.446 92.375c.867-9.015 2.29-18.692 5.522-30.525 0 0 11.425-3.077 13.546-10.978Z"/>
  <path fill="#5f2c75" d="M106.229 22.902c.441.402.762.915.904 1.507.417 1.738-.87 3.502-2.871 3.936-2.002.434-3.966-.625-4.382-2.363-.417-1.738.869-3.501 2.871-3.935.229-.05.458-.08.684-.092"/>
  <path fill="#4e2460" d="m59.656 50.71.705 4.293s-13.37 4.769-25.742 1.427c0 0 14.174-7.896 25.037-5.72Z"/>
  <path fill="#352052" d="m3.632 68.936-.004.003c.001-.002.002-.003.004-.003Zm.322 1.36c-.175-.876-.288-1.364-.322-1.36.316-.271 18.436-15.709 33.699-11.502 15.399 4.245 23.14-3.561 23.14-3.561l-.296 3.053s-8.085 10.2-5.648 28.113l-11.434-7.472s-2.712 1.537-2.315 4.124l13.005 8.518-2.168 9.311s2.039-.481.62 3.862c0 0 .535 5.054 2.482 6.953 0 0-.481 3.65 1.036 7.502 0 0-3.038 4.022-2.213 10.025l-1.767 2.432s-9.449 1.21-11.695 10.016c0 0-2.209.4-2.834 3.126 0 0-7.174 2.968-11.835-.61-4.661-3.578-3.996-6.099-3.812-8.261 0 0 3.114-2.097 5.562-1.598l-15.738-19.496S8.79 97.759 6.584 85.001c5.276-.006 4.356-1.349 4.356-1.349 2.436-.01 1.716-2.723 1.716-2.723 1.221-.379.95-2.803.95-2.803l-2.138-1.381c1.713-.213.751-2.703.751-2.703s-5.314-1.469-6.634-2.353c-.822-.552-1.267-.648-1.485-.642a61.108 61.108 0 0 0-.084-.435 2 2 0 0 0-.062-.316Z"/>
  <path fill="#281a42" d="M54.041 122.43c.036 1.758-.097 6.919-2.779 8.28-3.248 1.647-7.427.163-11.013 9.667 0 0-2.691.616-3.22 3.178l-2.35.009-5.876.198s-5.716 1.898-7.474-8.909c0 0 5.052.554 4.366 3.596l2.775-1.269-2.716-3.979c2.95.793 16.173-3.696 23.461-7.422.474-1.665.51-4.037.059-6.694-.018-.104-.036-.209-.056-.314a28.162 28.162 0 0 0-1.236-4.531c-2.066-5.679-5.18-6.691-2.952-24.19 2.227-17.498-1.617-14.336-.479-21.648C45.69 61.09 33.753 57.79 33.753 57.79c17.042 1.882 26.555-3.128 26.555-3.128l.474 1.448c-6.271 5.272-6.921 22.986-6.921 22.986 1.606 6.174-.59 14.777-.59 14.777-2.264 4.66-.598 6.141-.598 6.141l.377 5.284c.43.978 2.631 11.938 2.631 11.938-.585.947-1.191 3.221-1.64 5.194Z"/>
  <path fill="#23163a" d="m92.351 110.197 10.995 7.282s2.621-.602 3.329 2.185c0 0 4.851 5.628.855 10.494-4.122 2.734-6.681 2.819-12.038-1.409-2.495-2.803-3.76-5.008-4.64-6.345-.178-.271-1.252-.368-1.311-.58l-.319-.976 4.582-.02 2.553 5.056s6.562 3.966 6.258.043c-.769-3.32-5.177-5.873-5.177-5.873l-10.246-7.394s-1.563-1.716-1.505-1.719c.059-.003.124-1.653.124-1.653 2.23.712 4.43 1.176 6.54.909Zm-14.161-7.39s.559 2.309-.522 3.392l-3.036-2.205.613-1.008s1.544.773 2.945-.179Zm-2.927-4.032-3.748 3.418-30.426-20.999c-1.57-2.162 1.933-3.604 1.933-3.604l32.241 21.185Z"/>
  <path fill="#352052" d="m120.506 123.078 3.731 2.819s-4.225 16.211-14.322 14.471c0 0 2.873-14.223 10.591-17.29Z"/>
  <path fill="#988ea9" d="M89.736 98.615s-.371-3.818 1.022-6.616c.691-2.699 2.446-3.991 2.446-3.991s12.083 6.524 14.238 10.812c2.658 5.288-3.171 8.082-3.171 8.082l-1.997 1.133-.507 1.124.855.726-2.27 2.113s-6.852-.9-7.462-1.975c0 0 2.675-.1 3.028-2.865.627-4.912-3.964-8.606-6.182-8.543Z"/>
  <path fill="#3a2a60" d="M103.009 24.957s1.578-.314 2.324-1.134c.747-.819 2.767-4.021 2.767-4.021s1.741.348.866-1.084c.585-.353-16.487-20.651-34.636-16.62-7.405 4.145-10.869 9.822-10.179 17.113l-7.089-3.058s-3.088-.054-2.625 3.514c.462 3.568 4.681 10.399 9.655 12.351 4.973 1.952 11.386.247 14.583-1.071 3.198-1.318 11.302-4.976 14.386-5.034 3.084-.059 5.034.79 5.316 1.073 0 0 1.799-10.149 5.883-10.369l.681 2.341s-2.623 4.999-1.932 5.999Z"/>
  <path fill="#352052" d="M98.377 26.986s-.403-2.301 1.058-5.195c4.114-8.148-2.397-13.703-9.529-10.096-3.828 2.936-8.961 5.893-8.271 13.184l-4.626 1.476s-9.255-1.142-3.833 3.333c2.855 2.356-14.058.378-9.084 2.33 4.973 1.952 11.386.247 14.583-1.071 3.198-1.318 11.302-4.976 14.386-5.034 3.084-.059 5.034.79 5.316 1.073Z"/>
  <path fill="#3a2a60" d="M102.148 25.784s2.57 1.208 3.473-1.454c.271-.005 1.032 2.504-1.324 2.975-2.393.478-2.149-1.521-2.149-1.521Z"/>
  <path fill="#7b4f25" d="M100.034 21.467s-1.576 3.809-1.739 5.614c0 0-3.57-3.595-15.157 1.978-10.6-.891-17.31-3.92-19.066-10.099l1.109-6.459c4.641 9.387 15.835 12.765 34.853 8.966Z"/>
  <path fill="#23163a" d="M108.855 19.156c-.426.079-.502.132-.735-.056-.296-.24-5.93-10.121-18.146-14.204-9.021-3.014-15.036-1.808-15.417-1.557-7.483 4.927-9.871 8.72-10.143 15.051-.005.113.04.238-.012.339-.076.147-.27.211-.346.359-.08-.147-.279-.202-.359-.349-.001 0-.059-.826-.055-1.694.017-4.55 1.205-9.465 9.562-15.667 2.38-1.765 19.193-3.41 31.202 10.578 2.259 2.632 3.852 5.379 4.324 6.228.65-.066.935-.147.999.622.118 1.395-.874 1.813-1.038 1.794-.107-.013-.53-.298-.562-.342-.129-.173-.126-.422-.254-.595l.713.158c.235-.25.29-.416.267-.665Z"/>
  <path fill="#23163a" d="M51.487 17.559c.964 6.341 4.68 14.875 13.631 16.897.609.138 3.074.903 10.453.257 12.289-1.076 12.242-5.535 18.669-6.176 6.075-.606 7.02 5.779 6.95 5.929-.062.133-.205.217-.266.35-.098-.107-.248-.158-.346-.265-.048-.052-1.058-6.943-8.194-4.328-4.842 1.774-5.917 6.351-22.072 7.073-15.533.694-20.099-12.897-20.668-19.78-.008-.096-.099-.544.212-.894.233-.263.271-.217 3.432-2.737-.588-.952-.62-.939-.641-1.115-.037-.304.126-.506.154-.541.114-.141 2.308-1.554 2.481-1.598a.655.655 0 0 1 .583.128c3.88 3.135 8.355 7.706 8.373 7.78.034.141-.031.295.003.436-.145.002-.329.102-.436.004-3.709-3.399-6.179-5.26-8.35-6.895l-1.066.773c.602.84.719.804.714 1.195a.788.788 0 0 1-.1.373c-.09.16-.116.148-3.516 3.134Z"/>
  <path fill="#23163a" d="M55.148 17.106c-.385.712-2.035 4.677 4.768 11.381 3.563 3.51 7.715 5.919 18.049 2.261 7.511-2.659 12.7-6.032 17.676-5.06 7.448 1.454 9.145 10.761 8.126 11.895-.061.067-.428.476-1.111-.184-.84-.813-1.702-2.48-1.921-2.893-.038-.073 0-.198.073-.235.073-.038.177.016.234.074.016.017.402.787 1.075 1.769.081.118 1.087 1.585 1.361 1.147.731-1.164-1.36-11.012-9.582-11.067-7.816-.053-23.356 13.194-33.373 3.885-9.159-8.512-5.851-13.356-5.642-13.465.115-.059 2.152-.71 2.207-.702.065.009 5.654 2.552 6.993 3.159.09.041.385.118.295.322-.033.076-.154.117-.23.088-1.337-.518-2.562-1.34-3.948-1.706-1.642-.433-3.405-.251-5.05-.669Z"/>
  <path fill="#23163a" d="M103.703 17.11c-1.031.718-2.934 2.495-4.325 6.852-.568 1.78-.756 3.056-.759 3.06-.076.1-.218.135-.294.234-.049-.116-.186-.18-.235-.296-.028-.068.655-7.828 4.934-10.907.433-.311 1.04-.811 1.485-.33.127.136 1.282 2.826 1.292 3.016a.664.664 0 0 1-.066.325c-1.512 3.095-1.585 3.057-1.683 3.339-.182.531-.217 1.101-.304 1.656.329-.045.663-.083.903-.287.943-.799 1.557-1.92 2.337-2.878.307-.379.568-.803.926-1.134.108-.1.317-.016.424-.116-.068.132.071.313.003.444-.006.013-3.307 4.752-3.41 4.835-.125.1-1.807.475-1.975.454a.529.529 0 0 1-.371-.23c-.123-.185-.249-1.869-.156-2.079.123-.28 1.128-2.482 1.757-3.811.079-.166.284-.319.238-.496-.151-.581-.471-1.104-.721-1.651Z"/>
  <path fill="#23163a" d="M99.589 21.42c-.129.14-.06.219-.247.267-18.349 4.769-30.823-.596-34.289-9.145-.031-.077-.094-.149-.091-.232.003-.094.105-.167.108-.261.07.064.192.046.261.109.31.286 2.363 7.921 15.83 9.961 9.508 1.44 17.959-.871 18.186-.846.094.01.148.137.242.147Zm-15.301 7.54c-.09.026-.113.169-.204.196a43.56 43.56 0 0 1-4.316-.139c-14.715-1.265-15.873-10.128-15.867-10.149.025-.09.119-.151.144-.242.058.075.185.071.243.145.111.146.941 6.62 13.373 9.177 2.935.604 5.388.746 6.368.805.172.01.12.095.259.207Zm-27.665 6.799c-.254-4.228-.256-4.227-.254-4.231.392-.64.496-.086.503-.046.017.092.551 4.412.529 4.512-.038.176-1.812 2.05-1.971 4.458-.155 2.359 1.18 3.3 2.243 4.979 2.994 4.728 4.837 11.599 1.209 16.107-.037.046-.057.115-.112.136-.111.043-.244.002-.355.045.013-.118-.057-.236-.044-.354.019-.17 3.96-4.156-.515-13.073-1.97-3.927-3.021-3.962-3.442-6.324-.526-2.947 1.603-5.529 2.209-6.209Z"/>
  <path fill="#23163a" d="M61.771 63.449c-.774-.061-2.771-.298-3.354-1.54a1.14 1.14 0 0 1-.055-.139c.069-.196.186-.373.255-.569.183.092.377.16.56.253.091.046.078.598 1.894.789.861.091.946-.153 1.492.292 1.127.918 3.817 2.42 6.474 1.366 1.857-.736 2.358-1.849 3.011-2.049 2.337-.717 14.887-3.928 16.808-14.566.199-1.097.189-1.907.19-1.909.107-.176.317-.274.423-.451.115.208.346.335.46.542.01.017.232 2.621-.817 5.556-3.449 9.651-14.132 12.186-16.327 12.71-.764.687-2.801 2.364-5.707 2.171-2.741-.183-4.753-1.931-5.307-2.456Zm27.901-22.344c-.061-.054-.147-.089-.184-.162-.127-.246-.448-4.43 2.964-5.302 2.528-.646 4.062 1.737 4.065 1.77.029.247-.052.312-.278.206-.067-.031-1.761-2.193-4.186-.922-2.393 1.255-2.167 4.096-2.219 4.226-.031.076-.101.238-.162.184Z"/>
  <path fill="#23163a" d="M94.972 44.489c.035.018.064.04.072.077.059.269-.35.273-.449.133-.371-.524 2.454-2.814 3.677-6.961 1.531-5.193-1.873-8.345-1.949-8.572-.079-.237.021-.343.257-.236.134.06.764.835.826.912 5.47 6.729-1.424 13.306-2.434 14.647Zm-4.33-1.632c.068-.241.158-.17.602-.59 1.379-1.301-.404-1.747-.297-1.988.077-.174 1.526.408 1.246 1.409-.222.79-1.597 1.331-1.551 1.169Z"/>
  <path fill="#23163a" d="M95.515 38.637c2.3 2.965-1.625 8.195-2.409 9.509-.719 1.203-3.884-1.429-3.931-4.197-.002-.096-.028-.293.157-.297.2-.004.172.291.186.401.284 2.185 2.463 3.721 2.987 3.708 2.207-3.787 4.151-6.707 2.545-8.999-.056-.08-.035-.198.031-.264l1.144-1.142c.076-.014.45-.076.233.22-.28.381-.643.696-.943 1.061Zm-4.418 1.284c-.059-.12-.087-.137.17-.872 1.121-3.211 3.577-1.504 3.626-1.479.141.071.055.197-.06.179-.741-.113-2.08-1.275-3.551 1.963-.023.049-.03.109-.066.15-.029.033-.099.099-.119.059Z"/>
  <path fill="#23163a" d="M92.171 45.267c-.033.053.004.132-.029.185-.007.012-1.285.006-1.483-1.328-.119-.801.228-1.734.276-.923.007.124.055.925.439 1.5.292.435.726.538.797.566Zm11.562-23.33c-.121.093-.207.227-.329.32-.001.001-1.967.186-2.773 1.938-1.228 2.674 2.708 4.742 5.12 2.735 1.228-1.023 1.331-2.624.347-3.734-.023-.026-.064-.043-.07-.076-.024-.137.006-.28-.018-.417.139.016.281-.033.421-.017.174.02 2.193 1.977.682 4.433-1.752 2.847-6.614 2.715-7.751-.564-.78-2.248 1.007-4.795 3.874-4.894.043-.001.091-.022.128-.001.134.074.235.202.369.277Z"/>
  <path fill="#68529b" d="M101.888 23.834a.823.823 0 0 1 0 .658c-.22.092-.452.081-.691 0-.084-.219-.099-.439 0-.658.249-.246.479-.239.691 0Z"/>
  <path fill="#23163a" d="M73.945 46.27c.135-.041.219-.189.354-.23.001 0 3.482.32 7.119-.829.288-.091 2.083-.657 3.255-1.895.204-.215.23-.173.514-.24.005.132.085.255.091.387.006.153-1.78 2.982-5.56 3.581-2.577.409-5.5-.441-5.507-.447-.106-.092-.16-.235-.266-.327Zm11.807-7.327c-.13.017-.229.144-.36.161-.145.018-2.325-.947-6.827.295-2.165.597-3.663 1.469-4.123 1.728-.145.081-.149-.017-.417-.048.054-.121.011-.27.065-.39.009-.022 2.993-2.802 6.37-3.075.368-.03 2.58-.257 4.982.896.049.023.116.028.147.072.077.107.086.254.163.361Z"/>
  <path fill="none" d="M72.837 36.041c-2.367 1.765.839 5.548 6.639 1.221 5.801-4.327 4.711-1.584 4.697-.783"/>
  <path fill="#23163a" d="M97.25 29.302c.161-.278 2.666-.468 6.082 8.375 0 0-2.404 2.338-4.931 1.284 0 0 1.545-5.866-1.419-9.377l.268-.282Zm-22.291-6.334c.099.006.186-.095.286-.089.3.017 2.91 1.29 9.421 1.874 1.542.138 4.388.262 6.758-.092.109-.016.363-.105.414.106.052.221-.229.251-.336.277-6.007 1.482-11.423-.064-12.375-.336-1.984-.566-3.547-1.267-3.855-1.404-.055-.024-.124-.03-.165-.074-.068-.073-.08-.188-.148-.262Zm-.497 2.063c-.088-.002-.156.102-.245.101a22.364 22.364 0 0 1-2.138-.84c-.15-.069-4.135-1.667-6.238-5.591a7.007 7.007 0 0 1-.36-.773c.036-.263.131-.313.342-.148.018.014.826 1.674 3.741 3.935 3.391 2.63 4.576 2.856 4.796 3.072.063.062.039.182.102.244Zm-9.31 10.521c.012.001.925-.048 1.619.682 1.69 1.778-.584 4.515-2.803 3.354-1.889-.988-1.549-4.068 1.184-4.036Zm-.01.271v.002c-2.738.231-2.119 3.565.114 3.348 1.868-.181 2.339-2.935-.114-3.35Z"/>
  <path fill="#23163a" d="M65.077 37.229c.41.016.73.31.716.656-.015.345-.36.613-.77.597-.41-.015-.731-.309-.716-.655.015-.345.36-.613.77-.598Z"/>
  <path fill="#23163a" d="M63.06 37.859s1.045-.851 1.624-.131c.372.463.902.246.902.246s.9-.594.901.572l.161.02s.554-1.102.048-1.471l-3.203-.631a1.978 1.978 0 0 0-.433 1.395Zm7.824 5.57c.021-.302.01-1.26-1.702-1.024-.1.014-.257.072-.308-.1-.06-.198.223-.257.334-.291 2.111-.654 2.872.983 2.288 2.127-.067.131-.467.917-1.46 1.103-1.152.217-2.298-.493-2.523-.612l.143-.314c1.122.328 2.588.748 3.228-.889Z"/>
  <path fill="#23163a" d="M67.015 39.076c-.071.091-.07.226-.141.317-.1.128-.839.403-.915.431-1.148.428-4.283 1.099-5.796-3.838-.24-.785-.333-1.4-.435-1.396-.203.008-.621.3-.978.667-.045.047-.074.118-.134.143-.098.041-.218.005-.316.046.017-.106-.061-.213-.045-.319.002-.007.488-.762.982-1.071 1.16-.725 1.512.847 1.779 1.473 1.098 2.57 2.374 4.578 5.478 3.515.063-.022.123-.071.189-.067.115.007.217.092.332.099Z"/>
  <path fill="#23163a" d="M60.903 38.819c-.082-.001-.147.094-.645-.444-.156-.169-1.056-1.141-.704-2.786.015-.069.032-.204.153-.19.206.024-.084.209.614 2.115.147.401.319.709.352.768.249.448.392.54.23.537Zm7.164 5.323a.668.668 0 0 0-.272.144c-.205.158-1.149 1-2.462 1.36-.101.028-.262.072-1.192-.563-1.388-.947-1.287-2.197-1.018-3.094.112-.37 1.299-.692 2.685-2.137 1.284-1.337 1.452-2.403 1.49-2.671-.093-.198.284-.325.344-.082.043.174-.016 1.112-.738 2.312-.979 1.626-2.463 2.607-3.006 2.951-.288 1.42.227 1.769 1.384 2.543 2.314-.581 2.377-1.817 3.53-.933.127.098.392.578-.446.447-.102-.016-.342-.027-.313-.226a.19.19 0 0 1 .014-.051Zm-.635-7 .023-.007c-.008-.008-.016-.004-.023.007Zm25.663 8.143c-.015-.074-.064-.148-.047-.222.03-.129 2.009-3.875 1.338-5.625-.109-.285.134-.243.266-.178.101.049 1.238 1.975-.387 4.638-.075.124-1.085 1.779-1.17 1.387Zm-1.606-9.089c.025.016.044.034.044.06-.001.211-.229.187-.295.088-.031-.047.006-.041.045-.081-.171.058-.242-.075-.8.259-1.347.805-1.386 2.749-1.489 2.907a.381.381 0 0 1-.36.168c-1.849-.211-2.219-.255-2.339-.422-.211-.293.262-1.174.185-3.143-.05-1.281-.375-2.343-.375-2.349.007-.219.156-.288.302-.104.01.013.394.958.564 1.9.266 1.469.17 2.47.079 3.135l1.346.19c.175-.697.663-2.105 1.882-2.673 1.062-.495 1.208.008 1.242.054l-.031.011Zm-.114-.086-.002-.014.002.014Z"/>
  <path fill="#23163a" d="M68.174 47.265c-.1.01-.202.012-.306.008-.98-.037-1.827-.347-1.795-1.078.031-.731.626-1.737 1.605-1.699.527.02 1.296.339 1.609.624 1.381-.378 4.686-1.052 5.965.722 1.475 2.047 2.61 7.938 4.322 9.369.98-.244 1.441-1.147 1.488-2.236.054-1.273-.947-1.93-.803-1.924 1.657.064 2.353.907 2.283 2.544-.07 1.637-1.472 2.915-3.129 2.851a3.006 3.006 0 0 1-1.901-.769c-1.144-.733-2.643-2.514-4.46-6.412-3.417-1.004-4.522-1.662-4.878-2Zm-7.419-2.171c.633-2.058 2.447-2.393 2.646-1.804-.296.311 2.091 2.148 2.362 2.059.436-.143-.031 1.267-.596 1.281-.06.001-.517.052-.575.042-1.01 1.276-.695.764-2.6 1.483-1.057 3.346-1.925 4.861-2.587 5.473-.291.384-.679.694-1.097.629-.961-.149-1.891-.653-1.927-2.075-.037-1.422.465-2.179 1.421-2.202.083-.002-.502.32-.473 1.425.024.946.324 1.547.888 1.778.991-1.207 1.658-6.295 2.514-8.041l.024-.048Z"/>
  <path fill="#23163a" d="M62.019 54.782c.07.075.172.115.242.19.002.002.294 1.458 2.956 2.419 2.998 1.082 6.473.708 8.186.373.02-.003.356.078 1.489-.702 2.027-1.397 4.327-4.544 4.562-4.585.173-.03.437-.086.275.251-.087.181-.144.138-1.553 1.973-.909 1.184-2.062 2.691-3.921 3.743-.499.282-6.255 1.511-10.327-.97-1.686-1.027-1.959-2.108-2.031-2.402-.039-.159.055-.131.122-.29ZM57.644 41.67c.074.047.175.038.25.085.045.029.565 1.02 1.91 1.717 2.533 1.311 4.053.625 3.141 1.29-.006.004-3.95.948-5.328-2.682-.02-.052-.061-.102-.057-.158.006-.088.078-.164.084-.252Zm7.953 7.493c.024-.252-.093-.281.041-.424 1.458-1.567 3.604-.316 3.97-.194.635.21 6.313 2.126 11.945-2.21.784-.604.75-.651.83-.681.038-.014.589-.219.355.359-.006.014-.762.85-1.559 1.509-.411.34-4.622 4.129-10.533 2.403-2.237-.653-2.682-1.585-3.977-1.185a2.036 2.036 0 0 0-.672.365c-.155.128-.181.027-.4.058Z"/>
  <path fill="#23163a" d="M58.836 43.621c.069.054.175.044.245.098.22.171 1.255 3.156 4.189 3.695.363.067 2.013.138 2.629 1.374.086.173-.001.174-.05.363-.147-.085-.187-.025-.287-.165-1.189-1.663-3.885.662-6.113-3.418-.351-.643-.713-1.677-.711-1.701.008-.088.09-.159.098-.246Z"/>
  <path fill="#23163a" d="M83.934 44.733c-.008.088.099.161.091.249 0 .003-.341.806-.759 1.611-3.122 6.003-8.292 9.342-10.597 9.59-2.712.291-9.399-.452-10.009-2.349-.772-2.405-.768-2.401-1.562-4.802-.055-.166.04-.152.085-.322.061.093.209.102.27.195.051.077 1.8 4.756 1.847 4.82 1.081 1.481 8.368 1.945 9.985 1.394 1.727-.589 6.935-3.456 10.242-9.973.054-.107.076-.236.16-.321.062-.062.185-.029.247-.092Z"/>
  <path fill="#23163a" d="M63.375 50.726c3.188 1.6 5.66 1.741 9.711 1.409 1.021-.083 7.786-3.433 10.044-6.905.054-.082.165-.346.347-.239.16.095.057.242.007.329-2.258 3.939-8.953 7.553-10.366 7.656-1.987.145-6.141.537-10.105-1.866-.452-.274.161-3.204.263-3.338.152-.199.29-.153.328.086.043.267-.409.876-.229 2.868Z"/>
  <path fill="#23163a" d="M61.118 48.918c.05.007.109-.007.15.022.126.087 2.009 2.01 2.088 2.082.756.688-.821.141-1.661-1.001a7.226 7.226 0 0 1-.303-.443c-.374-.603-.331-.669-.274-.66Zm4.038-.402.856 1.295.615-1.202-.847.127-.624-.22Zm6.441 1.103.579 1.427.846-1.068-.857-.029-.568-.33Zm-2.291 6.219.722-1.368.733 1.141-.856-.049-.599.276Zm-3.541-4.86a17.32 17.32 0 0 1-.499.915c.386-.128.564.105.997.231l-.292-.57-.206-.576Zm.963 4.332-.86-1.61-.606 1.411.804.072.662.127Zm3.294-2.58-.476-1.374c-.136.758-.575.824-.991 1.176l.805.072.662.126Z"/>
  <path fill="#23163a" d="m62.926 51.089.221 1.3.24-1.158-.461-.142Zm-4.319 10.373-.002-.005s1.944-2.064 1.894-5.714c0 0 .424 2.892 2.033 1.502 0 0-.577 4.613 2.839.777 0 0 .484 3.113 1.865 3.08 1.554-.038 2.448-.87 2.611-1.352.163-.481.168 4.06 3.523-.037 0 0 1.893 1.433-.709 3.251-2.16 1.509-6.55 3.269-10.466.219l-.335.283c-3.966-.328-3.508-1.969-3.488-2.003.08-.003.158-.004.235-.001Zm31.16 11.413c-.057-.268-.253-.494-.31-.762-.006-.025 1.886-5.175.845-13.501-.358-2.868-1.203-5.472-1.959-6.976-.242-.481-.072-.502.013-1.035.267.07.551.062.818.132.069.018 3.954 4.544 4.262 10.902.266 5.502-2.836 10.883-2.905 10.928-.231.149-.533.163-.764.312Zm-20.523 20.88c-.101-.239-.395-.36-.496-.598-.048-.113-.423-7.733.734-14.735.873-5.275 2.817-11.443 4.66-16.008.142-.352.295-.147.635-.315.048.23.264.403.313.633.013.064-.847 2.666-2.957 14.855-.613 3.543-1.779 9.016-2.318 14.949-.019.213.035.444-.056.637-.11.235-.405.347-.515.582Z"/>
  <path fill="#23163a" d="M84.152 73.042c1.068 1.272 3.044 3.868 3.097 5.773.001.04.023.087.001.12-.1.148-.253.256-.352.404-.122-.128-.277-.221-.399-.349-.037-.039.025-.336-.567-1.309-1.027-1.686-3.689-4.073-3.777-4.195-.506-.709.222-1.354.824-1.886 1.553-1.371 3.529-1.816 5.072.004.496.585.762 1.066 1.025 1.36l1.051-1.612c.025-.038.038-.014.536-.196-.05.184.184.373.134.558-.029.106-.881 2.081-1.01 2.208-1.007 1-2.136-.562-2.616-1.03-1.06-1.032-1.689-.981-3.019.15Zm4.785.136a.677.677 0 0 1-.013.019l.013-.019Z"/>
  <path fill="#23163a" d="m86.103 79.301.976-.628c-.083.225.104.495.021.72-.027.072-.655.933-.727.983-.557.389-1.216-.719-3.327-.422-.759.106-3.557.259-9.851 8.755a66.04 66.04 0 0 0-3.89 5.86c-.012.019-.014.05-.035.059-.298.129-.31.09-.609.219-.004-.217-.215-.396-.219-.613-.001-.048 2.791-7.262 6.773-11.565 1.558-1.684 3.792-3.47 6.184-4.054 2.399-.586 4.017.263 4.704.686Zm2.307-10.423c-.017-.098-.144-.154-.161-.252-.009-.051.571-2.884.281-8.265-.174-3.23-.741-4.886-.738-4.899.018-.097.098-.176.116-.274.079.061.196.058.276.118.027.021 1.365 2.95 1.453 6.799.071 3.114-.943 6.563-.975 6.61-.056.083-.196.08-.252.163Zm12.81-8.005-5.214-2.608c-.112-.229-.175-.48-.287-.709.273.057.523-.315.796-.258.08.017 7.704 2.657 7.965 2.808.557.323 1.023 1.538-.318 2.062-1.551.606-6.351 3.799-10.832 11.825-.085.152-.117.348-.253.456-.215.172-.535.175-.749.347-.018-.275-.237-.512-.254-.787-.001-.022 1.544-4.887 4.175-8.482.183-.251 2.018-2.97 4.971-4.654Z"/>
  <path fill="#23163a" d="M103.837 61.883c-.335.021-.717.131-.912-.108-.679-.83.332-1.27.433-1.314 1.466-.638 3.754 1.434 9.082 9.163 4.493 6.515 9.519 15.583 9.775 16.393.07.222.608 4.065.601 4.304-.021.779-.333 1.102-2.833 3.621-3.686 3.715-7.333 6.747-8.29 7.535l-.417 1.79c-.026.063-.18.443-.646.552-.636.15-1.257.452-1.91.439-.421-.008-.739-.492-1.16-.5l2.016-1.534c.184-1.526.064-1.57.348-1.973.15-.213 3.869-3.882 9.149-10.394-.168-.863-.235-1.751-.484-2.593-.103-.347-.226-.281-2.208-3.935-5.719-10.544-10.191-19.737-12.547-21.346l.003-.1Zm.169 0 .014.014c.004.004.02-.011.014-.011l-.028-.003ZM94.03 46.121c-.079-.134-.128-.319-.268-.353.433-.303.46-.598.868-.262 1.267 1.046 2.823 6.172-1.611 7.796-1.361.498-2.917.361-2.959.359-.06-.004-.128.018-.178-.014-.278-.173-.225-.237-.504-.411.166-.138.244-.364.411-.501.068-.057 3.926-.782 4.313-4.421.163-1.536-.198-2.063-.127-2.134a.988.988 0 0 0 .055-.059Zm.142-.187.038-.056c-.032-.008-.041.016-.038.056Z"/>
  <path fill="#23163a" d="M91.929 51.999c2.963-2.867 8.005 1.076 6.587 4.504-1.359 3.284-6.588 2.116-7.435-1.495a3.437 3.437 0 0 1-.002-1.615c.226-.889.796-1.34.85-1.394Zm.419.427.004.003c-.008.01-.748.749-.454 1.997.668 2.831 5.015 3.592 5.408 1.014.347-2.28-2.847-4.5-4.8-3.13-.053.038-.104.078-.158.116Z"/>
  <path fill="#a08025" d="M124.3 33.216c4.202 3.237 4.874 9.082 1.499 13.043-3.375 3.961-9.526 4.548-13.729 1.31-4.202-3.237-4.874-9.082-1.499-13.043 3.375-3.961 9.526-4.548 13.729-1.31Z"/>
  <path fill="#23163a" d="M124.598 32.829c7.675 5.813 3.908 16.654-4.989 17.873-7.776 1.066-14.146-6.05-11.832-13.225 2.213-6.859 10.958-9.259 16.618-4.811.068.053.134.11.203.163Zm-.596.774c-7.56-5.108-16.438 1.599-14.1 8.916 2.139 6.695 11.682 8.231 15.841 2.277 1.801-2.579 2.607-7.399-1.741-11.193Z"/>
  <path fill="#a08025" d="M112.069 51.373c2.827.838 4.49 3.447 3.711 5.823-.779 2.375-3.706 3.623-6.533 2.785-2.827-.838-4.49-3.448-3.711-5.823.779-2.375 3.706-3.623 6.533-2.785Z"/>
  <path fill="#23163a" d="M112.21 50.899c6.139 1.55 6.079 8.764.545 10.292-5.665 1.564-10.565-4.275-7.538-8.47 1.012-1.403 3.509-3.021 6.993-1.822Zm-.281.948c-5.457-.999-7.524 4.438-3.238 6.603 3.834 1.936 7.903-1.124 5.847-4.507-.926-1.523-2.511-2.057-2.608-2.095l-.001-.001Z"/>
  <path fill="#a08025" d="M100.457 47.905c.222-.904 1.127-1.478 2.019-1.28.893.198 1.437 1.093 1.215 1.998-.222.904-1.126 1.478-2.019 1.28-.892-.198-1.437-1.093-1.215-1.998Z"/>
  <path fill="#23163a" d="M100.29 47.864c.716-2.776 4.4-1.577 3.814.86-.517 2.148-3.676 2.038-3.892-.119-.04-.399.077-.734.078-.741Zm.333.081h.002c-.203 2.302 2.882 2.014 2.685.076-.118-1.157-1.969-1.78-2.687-.076Z"/>
  <path fill="#a08025" d="M98.021 39.935c.734-.99 2.126-1.259 3.107-.602.98.658 1.179 1.995.445 2.985-.735.99-2.127 1.26-3.107.602-.98-.657-1.18-1.995-.445-2.985Z"/>
  <path fill="#23163a" d="M97.813 39.781c.005-.007.57-1 1.84-1.204 2.81-.452 4.103 3.235 1.711 4.806-2.349 1.543-5.141-.894-3.842-3.189.093-.164.101-.157.291-.413Zm.416.306.001.001c-1.262 2.457 1.91 3.532 2.966 1.644.878-1.572-1.154-3.384-2.967-1.645ZM65.302 63.651c.001.001.875.766.767 1.994-.237 2.719-4.31 2.974-5.235.283-.855-2.484 2.257-4.73 4.468-2.277Zm-.364.33-.001.001c-2.185-1.768-4.155.797-2.448 2.271 1.433 1.236 3.829-.124 2.449-2.272Zm34.595-46.862c-.038.18-.031.19-.179.297-4.8 3.438-7.373 1.176-5.512-.603.94-.897 2.714-1.439 4.173-1.693.123-.021.244-.072.368-.062.198.017.226.18.058.275-.051.028-2.543.573-3.925 1.74-.903.762-.787 1.389.389 1.471 1.702.118 3.974-1.197 4.286-1.377.049-.028.09-.079.146-.087.066-.009.21-.026.196.039Zm-7.995 60.382-.135.019c0-.383-.151-.555.233-.588.708-.06 1.368 2.425 3.587 5.448 2.023 2.758 3.391 3.412 3.534 3.669.074.134.287.517-.854 1.716-1.062 1.117-2.239 1.377-2.554 1.478l-.207-.55c1.214-.609 1.734-1.036 2.324-2.129-.854-.522-2.155-1.456-3.395-3.397-1.51-2.364-2.046-4.711-2.533-5.665v-.001Z"/>
  <path fill="#23163a" d="M106.923 83.634c-.041.14.02.298-.021.438-.014.047-1.692 2.264-3.838 2.935-2.769.866-5.034-.568-5.058-.614-.063-.124-.06-.274-.122-.397.136-.018.257-.106.393-.124.172-.022 1.314.605 3.932-.121 2.72-.754 4.216-2.087 4.276-2.103.141-.037.297.023.438-.014ZM90.596 95.812l-.556.024.053 2.583c-.08.113-.13.306-.268.318-.137.011-.287-.133-.317-.268-.033-.15-.399-3.069-.384-3.143a.465.465 0 0 1 .364-.355c1.329-.225 1.355-.258 2.638.146 5.157 1.625 6.582 6.227 6.813 6.972.275.889.912 3.185.522 6.798-.01.096.018.206-.033.289-.072.119-.239.158-.311.277-.058-.126-.217-.186-.275-.311-.045-.097.288-4.974-2.2-8.768-.733-1.118-2.564-3.585-6.046-4.562Z"/>
  <path fill="#23163a" d="M90.687 92.454c-.244.408-.471 1.712-.559 2.359-.017.131-.003.27-.051.393-.069.177-.243.172-.28-.024 0-.002.088-2.085.428-2.875.179-.415.361-.597 2.317.276 4.051 1.81 8.888 5.209 9.095 6.563.012.078.024.193-.118.209-.248.029.074-.39-1.528-1.619-1.841-1.414-7.676-4.816-9.304-5.282Z"/>
  <path fill="#23163a" d="M92.97 88.377c-.629.854-1.563 2.144-1.931 3.536-.151.569-.688.453-.587-.127.227-1.298.851-2.583 1.973-4.309a.491.491 0 0 1 .609-.173c8.593 3.656 12.12 7.638 12.943 8.567 1.809 2.042 3.65 5.2 1.897 8.116-.042.069-.061.161-.129.205-.134.086-.314.081-.449.168.009-.159-.07-.314-.061-.472.007-.127 1.833-2.506-1.298-6.207-3.462-4.093-11.152-8.331-12.967-9.304Zm3.119 19.725 2.039 2.029c-.102-.049-.237.055-.338.006-.003-.001-2.327-1.641-2.389-1.724-.226-.302.388-1.78-.199-4.196-1.122-4.621-6.031-5.523-6.052-5.539-.079-.06-.101-.177-.18-.237.095-.033.146-.148.241-.181.046-.016 4.286.394 6.238 3.767 1.373 2.372.879 4.98.64 6.075Z"/>
  <path fill="#23163a" d="m102.536 108.081-.313.725c.852.762.909.724.991.964.146.427-.355.736-.356.737-2.31 1.97-2.36 1.961-2.5 1.97-.22.016-6.949-1.708-6.973-1.718-.105-.045-.114-.219-.219-.264.114 0 .19-.155.304-.155.339.001 5.852.984 6.361 1.075.116.021.246.125.347.064.186-.112.166-.16 1.775-1.56l-.727-.681c-.368-.476.504-1.7.593-1.825.236-.331.496-.026 1.855-.706 1.831-.915 3.649-2.65 3.656-2.654.09-.042.208.036.298-.006-.027.096.032.204.005.3-.007.025-1.675 1.881-3.338 2.931-.86.542-1.428.724-1.759.803Z"/>
  <path fill="#23163a" d="M101.509 102.103c.062.078.194.078.256.156.006.007.6 1.364.782 2.41.155.892.034 2.21-.259 2.971-.071.183-.141.107-.294.223-.033-.097-.11-.175-.144-.273-.048-.14.078-.156-.194-1.842-.206-1.271-.156-1.273-.283-3.101-.006-.096-.042-.195-.019-.289.024-.096.131-.159.155-.255Zm28.137 17.021c-.337-.2-.809-.062-1.146-.261-.353-.209-.556-.604-.831-.907-.452-.499-.833-1.069-1.35-1.499-.053-.044-.084.072-.833-.214-6.668-2.543-10.32-7.361-12.307-14.375-.358-1.263-.643-3.057-.63-3.087.145-.342.442-.605.587-.948.29.231.657.352.947.583.118.094 1.395 4.145 6.403 9.768 4.809 5.4 7.001 5.903 7.407 6.326.132.138 1.077 1.876 1.166 2.042.252.463.63.879.747 1.393.088.387-.248.792-.16 1.179Z"/>
  <path fill="#23163a" d="M109.975 140.974c-.081-.222-.334-.353-.414-.575-.002-.006.092-.998.205-1.776 1.383-9.466 6.387-15.22 12.52-18.293.495-.248 3.438-1.722 6.568-2.21.065-.011.136-.057.196-.029.325.152.265.244.587.394-.182.166-.252.432-.435.598-.039.037-7.904 1.958-14.082 10.9-3.609 5.223-4.496 10.482-4.573 10.577-.147.184-.425.23-.572.414Zm-6.111-39.106c2.226-.169 2.296 3.542.217 3.587-1.931.041-2.347-3.415-.217-3.587Zm.036.423c-1.182.426-.585 2.086.109 2.111.869.032 1.152-1.864-.109-2.111Zm-10.27.375a.255.255 0 0 1 .007.049c-.091 1.125-3.747 1.116-3.406-.248.286-1.146 3.371-.844 3.409.151 0 .026-.003.04-.01.048Zm-.231-.019a.147.147 0 0 1-.012-.025c-.252-.619-2.404-.454-2.573-.012-.096.254 1.758.772 2.478.211a.282.282 0 0 0 .104-.162l.003-.012Zm-.941-1.9.003.047c-.081.964-3.379.921-2.9-.28.361-.907 2.87-.59 2.902.196a.107.107 0 0 1-.005.037Zm-.236-.012a.153.153 0 0 1-.016-.022c-.212-.364-1.688-.341-2.062-.003.413.373 1.941.423 2.075.034l.003-.009ZM83.69 36.161c-.147.014-.29.058-.437.071-.056.005-.449-.352-1.803.391-1.836 1.007-6.302 4.781-8.575 2.784-1.212-1.066-.141-2.519.023-2.549.137-.025.311-.116.415-.024.329.292.012.335-.153.741-.242.594.129 2.087 2.993.583 2.307-1.211 5.812-3.475 7.322-2.493.031.021.078.029.093.063.059.138.062.296.122.433Zm5.507 14.921c.206-.282.268-.188.696-.324 2.127-.673 3.751-2.236 4.269-3.842.026-.077.041-.216.183-.194.171.027.109.246.096.327-.437 2.781-2.81 3.634-3.181 3.768-.131.047-.788.283-1.691.365-.07.006-.143.035-.212.017-.064-.017-.199-.064-.16-.117Zm4.27 6.228c.027-.096-.008-.202.019-.298.027-.099.905-.803 1.208-2.955.183-1.304-.094-2.25-.093-2.253.017-.098.089-.181.106-.279.206.098.251.046.361.246 1.097 1.983.756 4.134-1.16 5.462-.047.032-.085.084-.141.094-.099.017-.201-.034-.3-.017Zm-13.44 3.31c-.012.099.112.182.1.281-.025.213-.966 1.921-2.67 8.112-.764 2.78-1.373 4.993-1.752 8.155-.013.111-.019.256-.228.244-.315-.018-.202-.16-.197-.473.12-7.296 2.612-12.723 4.443-16.176.073-.138.124-.059.304-.143Zm18.831-27.198c-.139-.003-.269.087-.407.084-.186-.003-1.513-1.378-7.313.067-1.9.473-3.017.979-3.033.979-.139.003-.264-.109-.402-.106.064-.124.044-.28.108-.404.007-.014 2.435-1.787 5.028-2.299 3.701-.731 5.921 1.238 5.933 1.27.048.13.037.278.086.409Zm-.531 5.023c-.155-.134-.172-.129-.219-.329-.726-3.081-3.898-2.669-4.132-2.756-.231-.085-.253-.186-.056-.335.146-.109.915-.163.995-.169 3.709-.26 3.648 3.266 3.568 3.404-.041.07-.096.238-.156.185Zm-72.152 99.441 2.069-.963c.106-.024.213.088.319.064-.075.079-.034.228-.108.307-.015.016-2.523 1.688-2.633 1.734a.446.446 0 0 1-.59-.289c-.08-.272.42-2.629-2.632-3.146-.774-.131-1.207-.099-1.218-.104-.091-.04-.143-.146-.234-.185.157-.16.11-.222.241-.246 1.712-.314 4.69-.103 4.786 2.828Zm39.795-3.22c.557-3.518.662-4.702 2.145-11.868.126-.607.004-.606-.401-2.901-.787-4.461-2.099-12.665-2.094-12.675.108-.209.155-.543.386-.592.23-.048.511.165.592.386.071.196 3.91 14.984 3.901 15.522-.01.674-2.216 12.694-2.533 13.276-.311.57-1.343.66-3.038 2.631-3.197 3.717-3.568 8.638-3.621 8.7-.173.202-.385.369-.559.572-.108-.244-.34-.42-.449-.664 0 0 .044-1.82.452-3.657.178-.804 1.315-5.933 5.219-8.73Zm16.48-11.855c-.104-.059-.242-.032-.345-.091-.161-.092.012-.246-3.219-3.997-3.801-4.413-3.713-4.481-7.313-9.059-.106-.134-.004-.152-.01-.393.105.057.252-.037.357.02.003.002 3.674 3.578 5.911 6.283 2.53 3.06 4.707 6.711 4.709 6.89.002.12-.092.228-.09.347Z"/>
  <path fill="#23163a" d="M100.906 157.855c-.111-.162-.302-.258-.414-.419-.013-.019.066-2.375-1.801-5.833-2.448-4.535-5.587-6.316-5.821-6.51-3.006-2.488-8.121-12.247-8.714-13.378-.975-1.859-3.589-6.893-7.368-15.205-.045-.1-.141-.19-.134-.298.018-.302.169-.26.188-.56.155.172.468.135.624.307.002.003.793 1.467 2.148 3.899 13.008 23.355 14.159 23.615 14.517 23.925.004.003 3.745 2.42 6.016 7.954.861 2.098 1.217 3.981 1.187 5.493-.002.069.032.15-.007.207-.169.247-.251.17-.421.418Z"/>
  <path fill="#23163a" d="M113.187 147.332c-4.32-.654-4.323-.647-4.333-.657-.164-.168-.295-.368-.46-.536.258-.028.37-.432.628-.459.012-.002 4.998.035 5.237.116.491.167.594.674.87 1.665 1.685 6.044-.181 13.291-13.817 10.568l-.394-.081c-.023-.005-.055.003-.07-.015-.234-.267-.199-.292-.434-.56.218-.088.341-.343.56-.431.168-.068 7.672.729 10.737-2.128 2.053-1.913 1.863-4.981 1.476-7.482Z"/>
  <path fill="#23163a" d="M111.039 151.85c-.816-2.514-.157-5.361 2.601-5.088.098.01.264.013.258.185-.006.194-.25.167-.35.175-1.015.084-2.451.477-1.863 4.288.06.387.292 1.007-.166 1.046-.075.007-2.475-.236-2.478-.239-.054-.05-.385-.306.013-.339.659-.054 1.324-.01 1.985-.028Z"/>
  <path fill="#23163a" d="M108.427 141.317c-2.826-1.852-7.238-4.957-13.241-11.487-.023-.024-.064-.04-.067-.073-.021-.195.017-.394-.003-.59.316-.001.352-.214.59-.003 8.34 7.418 14.187 10.446 14.625 10.992.39.486.176.788-.228 4.184-.738 6.194-.558 10.255.766 9.968.557-.121 1.253-.773 1.257-.774.195-.028.395.034.589.006-.035.194.03.398-.006.592-.017.092-2.445 2.781-3.786-.08-1.017-2.17-1.111-7.405-.496-12.735Zm-17.26 13.389 6.839-4.197c.213-.097.487.137.7.04-.171.159-.061.503-.232.663-.028.026-7.624 5.463-7.749 5.524a.753.753 0 0 1-1.065-.783c.09-1.185-.177-2.242-4.511-2.828-2.528-.341-3.119-.095-7.217-2.967-2.109-1.479-4.885-3.721-5.486-4.23-.047-.04-.076-.111-.135-.122-.648-.121-1.307-.177-1.959-.268-1.147-.162-2.283-.555-3.439-.491-.656.037-1.206.523-1.81.781l-4.131 1.762c-.192-.043-.364-.155-.556-.198.196-.122.117-.494.313-.616.045-.029 5.799-3.042 5.952-3.078.183-.043 6.081.395 6.292.474.337.128 8.124 6.125 10.177 6.615 2.312.552 7.334.71 8.017 3.919Z"/>
  <path fill="#23163a" d="M75.137 139.79c-3.032 1.585-7.964 2.059-10.224 2.569-1.148.259-2.769 2.745-3.791 4.759-.034.066-.04.156-.1.201-.095.071-.239.052-.335.123.014-.134-.113-.257-.099-.39.001-.006 1.243-2.877 2.634-4.418 1.269-1.405 1.561-.94 6.841-2.274 4.848-1.226 4.665-1.983 5.267-1.849.29.064 2.484 2.037 6.492 4.478 8.967 5.461 11.334 2.935 11.863 2.955a.416.416 0 0 1 .396.402c.049 2.477.134 7.385.133 7.399-.01.156-.23.246-.24.402l-.66-7.15c-1.138.481-3.033.892-6.729-.37-4.931-1.683-9.984-5.648-11.448-6.837Z"/>
  <path fill="#23163a" d="M57.578 160.161c3.351 1.57 9.202 2.204 16.664 1.12 10.74-1.561 12.99-4.351 15.338-6.488.256-.234.312-.029.876-.08-.086.274-.018.582-.104.856-.026.08-1.138 1.27-1.239 1.378-1.144 1.224-4.681 5.058-15.838 6.981-1.923.331-7.937 1.302-13.859-.501-.727-.221-3.437-1.159-3.865-1.943-.23-.421-.842-5.012.157-8.629.142-.513.927-3.652 3.572-5.465.744-.51 1.34-.691 1.342-.69.238.093.447.249.684.342-.131.216-.202.465-.333.681-.051.084-2.11.748-3.243 4.158-1.007 3.031-.43 6.794-.152 8.28Z"/>
  <path fill="#23163a" d="M63.186 168.322c3.37.128 10.891.412 12.521-.501l.845.034c-.035.274-.02.553-.054.828a2.533 2.533 0 0 1-.558.39c-3.023 1.574-13.021 1.98-13.475 1.909-.806-.125-.576-.711-3.554-1.573-3.627-1.049-7.214-1.379-7.568-1.536-.4-.177-1.115-.878-.522-1.858.461-.762-.685-2.64-.808-2.842-.057-.094-.506-.828.222-1.354.751-.542 5.471-3.87 5.481-3.87.274.007.543.09.817.097l-4.401 4.577c.837 1.195 1.154 2.151 1.191 2.947 5.766.452 8.388 1.6 9.863 2.752Z"/>
  <path fill="#23163a" d="M82.168 164.797c-.098.372.69 1.039.625 1.442a.51.51 0 0 1-.307.388c-.277.114-3.377 1.383-3.475 1.386-.483.018-.745-1.084-1.388-1.045-.417.025-.884.676-1.184 1.423-.018.045-.013.105-.051.134-.11.084-.26.104-.37.189-.027-.147-.149-.265-.176-.412-.002-.01.679-2.424 2.171-2.035.472.123.867.517 1.099.793l2.375-1.077c-.39-.562-.787-1.473.076-2.173.066-.054 1.547-1.148 2.497.361l1.348-.547c-.323-.627-.517-1.559.409-2.434.302-.286 1.645-1.249 2.622.044l.554-.236c-.21-1.531-.267-1.531-.211-1.817.102-.52 1.3-1.261 2.138-1.098.513.1.81.448.981.791l1.691-.735c.1-1.384.034-1.406.177-1.632.141-.225 1.061-.875 1.766-.416.537.35.615 1.137.592 1.76l5.115-2.119c-.144.097-.103.36-.247.457-.014.01-5.192 2.791-5.273 2.819a.46.46 0 0 1-.6-.396c-.005-.051.106-1.206-.123-1.598-.024-.042-.012-.043.007-.087-.032.057-.021.065-.084.09a.82.82 0 0 0-.129.065c-.033 1.476.022 1.502-.103 1.736a.6.6 0 0 1-.112.149c-.122.118-2.864 1.431-3.031 1.45-.737.082-.713-.827-.884-1.01l-.001-.001c-.064.024-.212.06-.419.194l-.013.008c.09.577.183 1.153.271 1.73a.73.73 0 0 1-.427.77c-.148.065-1.711.751-1.876.765-.891.074-.662-1.128-1.239-.771-1.224.757.685 1.411.004 2.246a.679.679 0 0 1-.281.203c-.23.087-2.758 1.049-2.896 1.054-.868.029-.543-1.398-1.402-.962-.066.034-.146.132-.21.153l-.006.001ZM62.06 152.55c-1.261.285-3.038.599-5.561.393-.064-.006-.138.018-.191-.018-.114-.079-.165-.229-.279-.307.147-.06.238-.219.385-.279.065-.027 2.384.132 5.479-.842.05-.015.505-.158.638-.13.612.128.271 1.057 1.777 2.102 3.061 2.126 9.34.745 11.353.285 2.754-.629 5.932-1.734 6.44-1.911.348-.121.111.2.29.52-2.439 1.099-8.929 4.003-14.142 3.679-4.373-.272-5.746-2.411-6.189-3.492Zm-24.406-10.159c.068.474.204.507-.018.808-.658.896-2.987 1.869-4.965 1.975-1.79.097-4.21-.33-4.219-.335-.168-.101-.421-.212-.425-.409-.004-.196.245-.316.409-.425.1-.067 2.548-.567 2.77-.613 3.566-.729 4.35-.258 5.655-.767.06-.024.12-.051.175-.085.043-.027.045-.011.618-.149Zm22.231-91.375c-.2.083-.347.265-.547.348-.137.058-2.833-.791-10.313.984-1.78.422-9.119 2.12-14.442 3.983-.137.048-.266.157-.41.145-.215-.018-.391-.211-.606-.229.132-.172.099-.436.231-.608.006-.009 7.041-3.842 13.457-5.184 7.273-1.521 12.171-.101 12.279.013.148.159.202.39.351.548Z"/>
  <path fill="#23163a" d="M22.011 135.087c.583 3.238 1.695 7.05 6.34 8.981.06.025.139.024.181.074.089.106.103.262.192.368-.134.034-.235.157-.369.192-.003 0-5.536-.933-7.098-6.627-.341-1.241-.591-3.133-.405-3.467.041-.074 1.737-1.892 4.48-1.965.053-.002.114-.029.16-.003.121.069.194.204.314.272-.108.087-.164.227-.271.314-.049.039-.616.008-1.718.531-.808.383-1.474.995-1.806 1.33Zm2.058-79.323c5.497-2.47 12.951-.513 15.512-.113 6.149.96 14.012 1.093 19.99-1.289.098-.039.189-.138.294-.12.498.086.444.248.94.334-.167.289-.17.653-.336.943-.001 0-.676.369-1.532.749-5.087 2.261-13.102 3.636-22.553 2.187-.846-.13-6.739-1.034-10.699.267-.134.044-.259.118-.391.161-.939.302-3.741.905-8.585 2.925-7.007 2.923-12.176 7.054-12.646 7.406l-.915-1.075c6.538-6.023 12.317-9.494 20.921-12.375Z"/>
  <path fill="#23163a" d="M27.798 144.537c.086-.381.074-.779.16-1.16.034-.154 2.833-1.484-.874-7.405-4.728-7.552-14.322-15.821-16.967-22.246-.057-.138-3.386-6.799-3.892-26.417a108.99 108.99 0 0 1-.036-2.006c.222-.322.554-.558.776-.88.222.378.679.579.901.957 0 0 .307 2.767 1.125 7.82 1.267 7.826 3.09 15.486 4.872 19.097 2.239 4.539 9.367 11.896 14.187 19.915 5.374 8.938 2.146 11.608 1.01 12.418-.031.022-.056.069-.095.066-.591-.043-.577-.116-1.167-.159Zm29.912-16.708c-.154-.149-.36-.239-.514-.388-.237-.229-.916-6.225-2.195-9.747-.528-1.453-2.072-3.63-.189-10.444.34-1.233.824-2.546.833-2.554.142-.136.376-.146.518-.281.037.209.232.37.269.58.013.076-1.342 5.988-.305 9.873.223.838 1.461 2.648 1.706 8.284.063 1.46.087 3.12.174 3.981.005.046.034.095.016.137-.084.196-.229.363-.313.559Zm65.41-1.751-3.209-3.549c.218.099.5-.111.718-.012.002.001 3.877 2.768 4.011 2.951.132.181.291.227-.229 2.542-2.119 9.427-10.267 13.676-14.194 13.144-.066-.009-.148.013-.198-.032-.242-.218-.157-.289-.402-.509.185-.111.322-.291.507-.402.086-.052 1.994.285 5.327-2.293 2.6-2.012 4.269-4.654 4.629-5.212 1.879-2.914 2.603-5.118 3.04-6.628Z"/>
  <path fill="#23163a" d="M120.159 127.66c.518.217 1.465.616 1.511.647.575.374-.505 1.82-.837 2.182-1.53 1.671-4.126 2.119-4.581 1.902-.783-.373-.599-2.497 1.037-4.122 1.411-1.401 3.551-2.29 6.102-2.409.369-.017.514-.112.55.256.034.358-.124.292-.48.358a10.56 10.56 0 0 0-3.302 1.186Zm-.41.249c-1.295.838-2.175 1.914-2.412 3.018 2.294-.389 3.197-1.578 3.548-2.175l-1.136-.843Z"/>
  <path fill="#23163a" d="M113.789 130.357c.142-.009.279-.059.42-.068.042-.003 1.098.23 1.414.465.39.288.73.828.795.927.299.452.207.576.248.689-.101 0-.226.124-.732.003-1.125-.27-1.335-.465-1.981-1.46-.029-.045-.069-.086-.084-.137-.04-.137-.04-.283-.08-.419Z"/>
  <path fill="#7b4f25" d="M122.706 17.138c2.468.392 4.16 2.49 3.775 4.682-.385 2.192-2.702 3.654-5.17 3.262-2.468-.392-4.159-2.49-3.774-4.682.385-2.192 2.701-3.654 5.169-3.262Z"/>
  <path fill="#23163a" d="M122.745 16.891c.002 0 2.178.157 3.49 2.023 2.407 3.426-1.106 7.707-5.404 6.707-4.264-.993-5.364-6.284-1.398-8.306a5.109 5.109 0 0 1 1.414-.456c1.004-.169 1.829.021 1.898.032Zm-.077.49-.001.005c-4.801-.336-6.222 4.597-2.739 6.58 2.81 1.598 6.778-.374 6.05-3.629-.221-.987-.931-1.672-1.051-1.787-.954-.92-2.066-1.118-2.259-1.169Z"/>
  <path fill="#a08025" d="M44.918 37.788c-2.406.654-3.838 2.92-3.196 5.057.643 2.137 3.118 3.341 5.524 2.687 2.406-.654 3.837-2.92 3.195-5.057-.642-2.137-3.117-3.341-5.523-2.687Z"/>
  <path fill="#23163a" d="M44.852 37.547c.397-.105 1.411-.45 2.906-.07 3.831.973 4.626 5.859 1.044 8.052-3.879 2.376-8.892-.953-7.447-4.991a4.577 4.577 0 0 1 1.232-1.822c1.022-.92 2.169-1.142 2.265-1.169Zm.13.477c-.353.134-1.12.366-1.916 1.186-2.511 2.585-.173 6.562 3.721 5.8 3.469-.679 4.622-4.894 1.302-6.626-.634-.33-1.296-.418-1.413-.434-.912-.121-1.647.07-1.693.079l-.001-.005Z"/>
  <path fill="#a08025" d="M119.049 10.722c2.108.334 3.562 2.077 3.244 3.888-.318 1.811-2.288 3.01-4.397 2.676-2.108-.335-3.562-2.077-3.244-3.889.318-1.811 2.288-3.01 4.397-2.675Z"/>
  <path fill="#23163a" d="M119.088 10.474c4.952.783 4.767 6.381.558 7.361-4.025.936-7.189-3.372-4.643-6.147.36-.392.929-.82 1.685-1.076 1.233-.416 2.289-.156 2.4-.138Zm-.079.495c-4.299-.316-5.252 4.334-1.669 5.544 3.298 1.113 6.109-2.205 3.519-4.617-.69-.643-1.689-.887-1.85-.927Z"/>
  <path fill="#68529b" d="M126.568 12.317c1.339.213 2.251 1.38 2.035 2.606-.215 1.226-1.476 2.048-2.814 1.836-1.339-.213-2.251-1.38-2.035-2.606.215-1.225 1.476-2.048 2.814-1.836Z"/>
  <path fill="#23163a" d="M126.595 12.151c.014.003 1.125.074 1.854 1.028 1.697 2.221-1.124 5.051-3.661 3.677-2.511-1.36-1.397-4.939 1.41-4.759.2.013.195.027.397.054Zm-.052.331v.002c-3.194-.113-3.174 3.566-.583 3.879 2.39.288 3.587-3 .583-3.881Z"/>
  <path fill="#4e2460" d="M133.812 22.221c1.113.176 1.879 1.105 1.709 2.071-.17.967-1.211 1.608-2.324 1.431-1.112-.176-1.878-1.104-1.708-2.071.169-.967 1.21-1.608 2.323-1.431Z"/>
  <path fill="#23163a" d="M133.833 22.087c.001 0 .995.066 1.601.898 1.394 1.912-1.342 4.078-3.345 2.642-1.676-1.202-.94-3.912 1.744-3.54Zm-.041.266v.002c-2.779-.111-2.56 2.987-.276 3.065 1.909.065 2.686-2.373.276-3.067Z"/>
  <path fill="#7b4f25" d="M37.881 36.541c-1.085.294-1.735 1.299-1.452 2.241.283.942 1.394 1.468 2.479 1.173 1.084-.295 1.735-1.299 1.452-2.241-.284-.943-1.394-1.468-2.479-1.173Z"/>
  <path fill="#23163a" d="M37.846 36.411a2.41 2.41 0 0 1 1.757.107c2.171 1.046.856 4.189-1.64 3.82-2.134-.315-2.751-3.149-.117-3.927Zm.07.258c-2.676 1.095-.796 3.949 1.385 2.766 1.459-.79 1.001-3.12-1.385-2.764v-.002Z"/>
  <path fill="#68529b" d="M130.834 29.86c.639.102 1.075.655.973 1.235-.102.581-.703.969-1.342.868-.639-.101-1.075-.655-.973-1.235.102-.58.703-.969 1.342-.868Z"/>
  <path fill="#23163a" d="M130.848 29.771c.057-.105 1.448.413 1.091 1.543-.463 1.462-2.867.952-2.634-.553.167-1.077 1.497-1.084 1.543-.99Zm-.018.166a.023.023 0 0 1-.01.012c-.007.005-.255.003-.273.005-1.38.181-1.011 2.064.383 1.775.945-.195.95-1.472-.003-1.751a.299.299 0 0 1-.097-.041Z"/>
  <path fill="#68529b" d="M44.143 27.33c.638.101 1.074.654.972 1.235-.101.58-.703.969-1.342.867-.638-.101-1.074-.655-.972-1.235.101-.58.703-.969 1.342-.867Z"/>
  <path fill="#23163a" d="M44.157 27.241c.057-.105 1.448.413 1.09 1.543-.462 1.461-2.866.951-2.633-.554.166-1.076 1.496-1.084 1.543-.989Zm-.018.165a.032.032 0 0 1-.01.013c-.007.004-.256.002-.274.004-1.379.182-1.011 2.064.384 1.776.944-.196.95-1.473-.003-1.751a.279.279 0 0 1-.097-.042Zm8.315 76.881c-.511-.34-.582-.364-.708-.609-.74-1.435.289-3.279.512-3.758.079-.171.149-.084.435-.244.026.156.189.267.215.424.046.275-.59 1.607-.03 2.717.972.534 1.022.493 1.231.743.386.462.033 1.027-.032 1.046-.032.009-.052-.063-.084-.054l.08.062c-.417 1.287-.491 3.887.757 5.48.026.032.071.055.078.096.027.155-.006.317.02.472-.157-.018-.318.036-.475.019-.03-.003-1.569-1.045-2.077-3.438-.307-1.444-.151-2.378.078-2.956Zm1.094-10.861c-.087.136.189.337.102.473-.27.425-.892-.15-.95-.202-.418-.387-1.335-1.95.635-3.404.025-.018.357-.264.407-.277.153-.041.319-.014.472-.055-.014.158.067.314.053.471-.011.125-.078.106-.405 1.516-.118.509-.467.905-.35 1.353.026.101-.006.098-.013.199l.049-.074Zm49.383-78.793c-.051.085-.027.202-.079.287-.082.136-1.091.568-2.766 2.886-1.499 2.074-1.593 3.171-1.656 3.25-.062.078-.172.108-.233.186-.042-.097-.144-.16-.186-.258-.018-.042.054-2.489 1.651-4.327 1.231-1.415 2.977-2.102 2.98-2.103.1-.002.189.081.289.079Z"/>
  <path fill="#23163a" d="M53.023 99.447c1.957 1.43 13.519 5.005 16.475 4.006.044-.015.085-.059.13-.05.174.035.327.14.501.174-.082.159-.096.347-.177.505-.045.088-.616.238-.671.253-3.937 1.039-16.492-1.967-17.793-3.831-.267-.382-1.044-1.703 1.407-6.267.087-.161.271-.687.776-.845a.933.933 0 0 1 .547.039c4.581 1.904 14.234 6.134 14.242 6.147.091.152.12.335.211.488-.199-.053-.394.227-.593.174-.985-.259-10.763-3.826-13.734-4.912-.528 1.114-1.458 3.234-1.324 4.097a.605.605 0 0 0 .003.022Zm-.153.124-.011.01.011-.01Zm41.648 28.504c.226.065.469.055.695.12.009.002 1.265 1.633 4.182 2.647 4.435 1.54 9.119-.094 8.886-5-.146-3.067-1.928-5.498-1.93-5.569-.01-.236.106-.465.096-.7.224.076.479.022.702.098.001.001.418.465.835 1.026 4.932 6.631 1.514 13.272-5.079 12.972-3.457-.157-6.976-2.465-8.422-4.757-.029-.045-.086-.083-.084-.137.016-.358.104-.343.119-.7ZM54.351 83.847c-.167-.168-.41-.249-.578-.417-.002-.003-.31-.966-.511-2.129-.302-1.75-.996-6.983.565-13.21 1.859-7.419 5.868-11.882 5.937-11.892l.643-.085c-.03.213.117.428.086.642-.038.271-3.095 3.47-5.318 15.965-1.271 7.15-.485 10.444-.498 10.494-.061.229-.266.403-.326.632Zm-2.834-4.727c-.615.3-.729.486-1.193-.02-.046-.051-1.87-4.561-1.474-8.524.506-5.063 3.693-8.207 3.805-8.232.212-.047.439.021.652-.026-.017.215.046.432.029.647-.004.053-2.065 2.457-2.405 10.263-.113 2.606.127 4.451.279 5.592.024.181.115.112.307.3Z"/>
  <path fill="#23163a" d="m55.338 98.422.59-1.041c2.232 1.088 3.418 1.729 7.858 3.021 3.128.911 5.321 1.044 5.344 1.056.107.054.14.206.247.26-.111.047-.152.2-.263.247-.247.105-4.52-.023-7.076-.781-3.805-1.128-5.889-2.289-6.7-2.762Z"/>
  <path fill="none" stroke="#614b88" stroke-width=".99" d="m102.86 117.243-10.138-6.83"/>
  <path fill="#614b88" d="M41.07 80.835c2.588 1.794 9.602 6.63 30.504 21.251.051.035.312.157.212.303-.035.05-.128.064-.179.032-.08-.051-14.614-9.929-23.096-15.726-.207-.141-7.944-5.423-8.005-5.503-.108-.143-.251-2.275 1.043-3.197.764-.544 1.753-.495 2.232-.445.24.025.212.094 1.944 1.252a7950.315 7950.315 0 0 1 29.697 19.983c.049.033.323.154.223.304-.179.268-.263-.017-7.224-4.587-21.443-14.08-24.26-16.008-24.778-16.335-.081-.051-.192-.014-.288-.016-2.264-.056-2.253 1.849-2.285 2.684Zm49.446 40.557c.393.06.452.076.573.175.142.116 3.007 4.943 3.686 6.381.562 1.189 5.088 5.994 10.876 4.797 5.233-1.083 5.624-8.646 1.347-12.434-.07-.062-.169-.098-.211-.181-.045-.089.013-.208-.032-.297.098.022.201-.051.298-.03.009.002.465.374.759.673 4.802 4.871 3.425 14.247-5.413 13.198-4.325-.513-7.769-3.777-8.586-5.449-.409-.838-2.441-4.224-3.007-5.166-.123-.205-.175-.476-.37-.613-.046-.033-1.447-.157-1.667-.381a.52.52 0 0 1-.149-.369c0-.091.002-1.01.07-1.136a.529.529 0 0 1 .483-.272c1.287.066 4.639.232 4.77.287a.518.518 0 0 1 .25.23c2.394 4.515 2.29 4.589 2.49 4.728 1.386.966 3.193 1.199 4.604 2.121.642-.258 2.289-1.169.022-3.922-.151-.184-.71-.868-1.637-1.672-.154-.134-10.357-7.856-10.363-7.867-.045-.089.001-.207-.044-.295.13.089.337-.009.467.08.039.027 10.131 7.315 10.399 7.537 2.664 2.214 4.38 4.984 2.14 6.562-1.293.91-1.426.365-2.87-.283-3.195-1.433-3.219-1.393-3.388-1.549-.082-.076-.068-.086-2.576-4.712l-2.921-.141Z"/>
  <path fill="#4f3a73" d="M104.126 117.145c3.833.148 3.88 5.219.549 5.951-3.217.706-5.215-3.441-2.537-5.407.806-.592 1.823-.551 1.988-.544Zm-.016.421c-3.176.183-3.058 4.422-.198 4.562 2.442.119 3.335-3.239 1.026-4.334-.419-.199-.808-.225-.828-.228Z"/>
  <path fill="#23163a" d="M63.102 139.211c-.128-.093-.32-.063-.448-.156-.145-.105-1.271-2.86-6.423-5.627-3.122-1.676-5.414-2.034-5.439-2.054-.124-.097-.183-.262-.306-.36.141-.072.222-.235.363-.307.031-.016 4.561-.018 8.055 2.399 3.187 2.205 4.359 5.612 4.352 5.656-.021.156-.133.292-.154.449Z"/>
  <path fill="#23163a" d="M44.71 137.813c-.974.443-2.554.749-3.229-.598a1.163 1.163 0 0 1-.061-.151c.044-.151.148-.282.192-.434.141.078.298.125.439.203.034.019.195.477.856.488.521.009 1.287-.444 1.639-.672.285-.418 1.014-.166 1.048.311 1.568 2.953 6.531 3.562 15.364-.298.117-.052.223-.153.35-.155.158-.003.295.143.454.14-.093.129-.049.325-.142.454-.085.118-1.775 1.032-1.932 1.117-10.172 5.506-14.001 1.553-14.978-.405Zm16.213 6.245c-.02.158.011.32-.009.478-.001.013-.314.331-.763.576-3.146 1.722-11.49 2.047-16.752 1.089-2.909-.529-3.362-1.572-4.02-3.187-.051-.126-.153-.243-.152-.379.001-.158.158-.289.159-.447.137.109.341.106.478.215.209.167.606 1.753 2.013 2.227 1.386.467 4.768.407 8.371.465 3.35.054 8.555.172 10.153-1.004.017-.013.029-.039.05-.04.157-.01.315.017.472.007Zm-3.504-15.689c-1.755-.041-3.769.078-4.909 2.257-.026.051-.03.122-.078.154-.13.089-.301.103-.432.191-.034-.155-.157-.281-.191-.436-.016-.074.239-.658.263-.714 1.426-3.275 5.748-3.03 5.918-2.97.767.27 6.681 5.666 8.339 6.411.026.012.063.01.079.034.089.13.138.284.227.413-.148.057-.271.171-.419.228-.094.037-1.533-.455-4.178-2.151-2.663-1.707-4.061-2.927-4.619-3.417Z"/>
  <path fill="#23163a" d="M52.96 128.041c-.182-1.613-.434-5.107 2.025-10.311.053-.113.067-.257.162-.337.121-.102.321-.071.441-.174.009.158.165.284.174.442.012.209-2.246 4.837-1.35 10.149.013.077.165.523-.058.864-1.521 2.323-1.52 2.33-1.711 2.476-.37.282-2.656.367-5.373 1.629-6.164 2.861-7.201 9.374-7.409 9.642-.111.143-.315.196-.426.339-.036-.178-.199-.314-.236-.492-.002-.011.339-2.005 1.082-3.835 2.758-6.784 8.227-8.161 11.429-8.669l1.25-1.723Z"/>
  <path fill="#23163a" d="M49.564 150.469a.25.25 0 0 1-.046.028c-.53.276-.601.799-1.203.784-2.541-.06-2.648-.121-2.847-.234-.571-.324-.408-1.581-2.045-.655-.337.191-.657.593-1.204.376-.33-.131-4.474-1.883-4.601-1.966a.742.742 0 0 1-.224-1.013c.198-.337.955-1.241-.579-1.63-.568-.145-.744-.276-.452-1.832.578-3.073 2.688-4.17 3.292-4.473.069-.035.132-.105.21-.101.157.01.294.132.452.142-.091.157-.127.341-.218.497-.025.043-1.286.629-2.04 2.116-.482.952-.594 1.931-.621 2.532.479.134 1.158.434 1.5 1.089.3.573.22 1.179.067 1.642l3.4 1.312c.484-.32 1.352-.774 2.273-.659.922.116 1.449.749 1.709 1.186l1.708.158c.373-.334 1.059-.824 1.765-.663.632.144.92.698 1.052 1.136l1.92-.095c.294-.29.904-.806 1.493-.656.417.107.605.471.691.769l2.528-.233c-.172.074-.182.363-.354.437-.031.013-2.472.715-2.586.707-.433-.027-.4-.516-.512-.717-.015.016-.038.03-.073.052-.405.256-.512.681-.896.727-2.659.323-2.66.342-2.886.291-.556-.127-.451-.721-.673-1.054Zm21.647-41.248c1.529.123 1.416-3.349 1.429-3.38.052-.129.23-.178.283-.306.076.117.23.168.306.285.061.094.039 1.073.037 1.167-.084 3.602-2.314 3.322-2.642 3.015-.156-.146-1.126-1.13-1.127-1.569-.001-.42-.006-2.995.35-5.241a.692.692 0 0 1 .187-.379c.327-.337 3.798-3.918 4.165-4.135 3.298-1.944 9.609-.893 10.434-.756 1.687.281 3.533.646 4.595.484.045.051.069.118.114.169.02.023.056.026.076.049l.005.292.001-.59c.136.046.243.062.285.219.27 1.013-4.093.413-5.6.282-6.102-.529-8.609.759-9.112 1.055-.547.537-1.087 1.081-1.635 1.618-2.017 1.978-2.05 1.943-2.222 2.118a36.693 36.693 0 0 0-.364 2.391c-.142 1.174-.13 1.221-.207 2.31.296.498.38.599.642.902Z"/>
  <path fill="#23163a" d="M80.454 111.824c-.229.034-.225.165-.432.064-.219-.107-3.546-2.048-3.353-3.938.149-1.454 1.521-3.213 1.392-4.426-.028-.263-.158-1.487 1.923-2.686.296-.17.378-.327.558-.033.169.276.002.275-.246.479-.605.497-1.406 1.407-1.258 2.052.465 2.011-1.466 4.292-1.18 5.144.319.951 1.787 2.495 2.428 2.957.021.016.054.021.064.045.048.109.057.233.104.342Z"/>
  <path fill="#23163a" d="M75.375 103.631c-.362.727-1.101 1.984-2.143 2.603-.161.096-.168-.008-.363-.017.037-.093.019-.202.055-.295.06-.152.533-.2 1.426-2.422.267-.664.356-1.454 1.2-.918 1.255.797 3.015-.611 3.018-.614.031-.023.054-.065.092-.072.098-.019.202.014.3-.005-.041.211.061.241-.079.403-1.467 1.701-2.783 1.594-3.506 1.337Zm5.318 8.863c2.83 1.122 2.847 1.133 3.388 1.334.1.037.218.042.3.109.236.195.198.364-.112.41-.069.01-4.193-.926-4.453-1.199-.124-.13-.198-.228-.065-2.055.141-1.944.623-5.651.63-5.671.037-.103.192-.133.229-.236.026.106.174.153.2.258.005.019.049 2.555.032 4.027-.019 1.637-.096 2.45-.149 3.023Z"/>
  <path fill="#23163a" d="M89.669 113.886c-.088.064-.077.218-.165.282-.019.014-1.441.608-1.566.66-.078.033-2.595.354-2.823.264-.144-.056-1.719-1.424-1.809-1.654-.114-.291-.331-4.461-.352-4.85-.007-.136.068-.101.182-.27.037.101.206.112.244.213.003.01.519 2.383.783 3.903.069.394-.027.444.2.642 1.102.961 1.048 1.026 1.134 1.06.01.004.345-.014 1.988.019.61.013.596-.075 1.35-.263.178-.045.351-.13.534-.132.109 0 .192.127.3.126Z"/>
  <path fill="#23163a" d="m87.304 112.46 2.274 1.532c-.111-.032-.229.099-.339.067a215.527 215.527 0 0 1-2.484-1.164c-.321-.223.219-.707-1.16-1.585-.635-.405-.176-.588-.159-.896.038-.692-.795-1.213-.244-1.637.387-.299 1 .25 3.811.821 5.325 1.082 6.589-1.597 6.643-1.619.093-.038.199-.033.292-.071-.014.113.059.224.046.337-.011.097-1.442 2.984-6.403 2.454a15.835 15.835 0 0 1-3.247-.707c.054.316.014.557-.066.759.875.709 1.034 1.259 1.036 1.709Z"/>
  <path fill="none" stroke="#23163a" stroke-width=".99" d="m77.869 106.227-3.123-2.061"/>
  <path fill="#23163a" d="M82.629 103.643c-.332.379-.442.245-.796.606-.703.718-.935 1.028-1.007 1.124-.573.762-.498-.553.006-1.259.65-.911 1.945-.639 1.797-.471Zm-12.143 3.085c-.096.127-.129.294-.224.422-.112.149-3.937 1.444-9.444-.057-3.384-.922-6.959-2.756-6.968-2.77-.083-.136-.244-.292-.184-.439.06-.147.28-.178.438-.184.053-.002 1.253.437 4.879 1.296 7.503 1.779 9.141 1.848 10.832 1.558.083-.014.168-.069.25-.048.153.04.267.182.421.222ZM4.076 63.809c-.019.401.061 1.384 1.385 2.971.101.121.02.315.031.473-.16-.012-.319.041-.479.029-.007 0-.649-.472-1.15-1.026-1.651-1.825-1.2-2.913-1.098-3.161.86-2.077 3.076-2.78 5.379-1.391.438.264.339.877.34.97.002.213.029 2.62.017 2.666-.043.165-.259.247-.302.412-.079-.149-.296-.19-.375-.339l-.533-2.607c-1.048-.334-2.334-.502-3.215 1.003Zm7.736 12.343c.235-.175.562-.612.245-1.65-.023-.077-.085-.15-.073-.229.024-.157.152-.285.176-.442.143.07.3.108.443.178 0 0 .185.35.303.713.062.193.533 1.649-.723 2.433-.19.118-.24.15-2.799-.094-.531-.05-4.067-.387-6.547-1.282C2.621 75.701.615 74.272.495 74.1a.724.724 0 0 1-.124-.421c.014-3.084-.018-3.097.091-3.341.098-.219.436-.361.494-.393l2.227-1.22c.157.023.38-.027.464.107.084.134.01.356-.107.464-.933.855-1.098.641-2.033 1.497.129.821.123 1.661.251 2.482.01.058.102.059.152.089 1.499.896 1.492.911 1.611.942 3.223.839 4.654 1.169 8.291 1.846Z"/>
  <path fill="#23163a" d="M70.205 103.91c-5.313.096-11.166-1.213-17.468-3.691l-.602 2.927c5.905 2.817 11.856 4.057 17.85 3.863l.22-3.099ZM3.504 71.33c.086-.184-.009-.244.163-.347.795-.475 1.533-.077 1.649-.014.558.301 2.061.557 5.171 1.954.16.072 1.986.892 2.002.908.158.153.238.432-.138.4-.017-.001-2.464-.581-4.015-1.102-.977-.328-2.773-1.076-3.511-1.658-.249-.197-.65-.191-.92-.105-.038.012-.074.043-.113.039-.099-.009-.189-.066-.288-.075Z"/>
  <path fill="#23163a" d="M4.134 71.287c-.043-.093-.119-.169-.163-.262-.03-.065.052-.09-.261-.86-.116-.285-.093-.509-.293-.881-.087-.162-.109-.24-.187-.436.044-.005.223-.213.78.099.704.396.925 1.211.452 2.05-.109.194-.159.141-.328.29Zm9.017 6.9-2.17-1.52c.132.039.273-.117.405-.079.008.002 2.305 1.069 2.361 1.108.099.067.234.159.264 1.481.066 2.895-2.097 2.36-4.526 1.926-2.387-.428-7.744-1.739-8.164-2.416-1.086-1.751.416-4.738 1.401-3.682.13.139.006.165.015.409-.203-.031-.226.062-.394-.06-.204-.148-1.118 1.389-.312 2.775.647.241.968.35 8.56 1.968.838.178 1.878.442 2.222.156.378-.314.355-1.568.338-2.066Z"/>
  <path fill="#23163a" d="M2.423 82.007c-.136.011-.319-.055-.548-.369-.227-.309-.745-1.114-.19-2.805.02-.061.018-.136.062-.183.091-.095.235-.126.326-.221.033.127.137.228.17.355.003.014-.238 1.009-.025 1.719.09.301.242.49.355.6.185.018.463.074.932.179 6.986 1.556 8.562 2.689 8.9.981.067-.337.031-.714.007-.866-.047-.299-.151-.399.139-.487.474-.143.515 1.09.518 1.194.067 2.003-1.867 1.968-2.096 1.964-2.831-.051-7.749-1.816-8.55-2.061Z"/>
  <path fill="#23163a" d="m3.855 83.943.001-.002c1.081.383 5.865.931 6.805.077a.632.632 0 0 0 .079-.085c.102-.131.142-.059.352-.146.074.276.184.293.026.533-1.18 1.794-7.559 1.631-8.15.009-.323-.886-.428-2.47-.423-2.485.038-.113.17-.178.208-.292.079.1.221.137.299.236.016.02.348 1.341.803 2.155Zm.02.035.015.027c.005.008-.004-.031-.013-.027h-.002Zm7.363-8.57c.082-.211.216-.59.135-.941-.141-.609.627.222.15 1.202a.178.178 0 0 1-.196.097c-1.033-.206-1.068-.237-1.055-.325.014-.099.656-.057.966-.033Zm-.535 7.403c-.301-.028-.484-.482-.486-.719-.004-.574.836-1.065.555-.59-.444.746.044 1.319-.069 1.309Zm.67-3.144c-.302-.027-.484-.482-.486-.719-.004-.574.836-1.064.554-.59-.443.747.045 1.319-.068 1.309Zm-7.096-1.369c.011-.212.416-.599.125-1.306-.19-.459.435-.004.468.521.035.556-.598.887-.593.785Zm88.929 28.119c-.027.256.072.279-.046.43-.915 1.178-2.995 2.269-6.117.737-.76-.372-1.258-.724-1.336-.777-.352-.236-.239-.463.181-.487.032-.002 1.009.398 2.872.661 2.291.324 3.191.084 3.961-.461.037-.026.064-.072.108-.081.123-.026.254.004.377-.022Z"/>
  <path fill="#23163a" d="M4.387 83.882c.073-.138.489-.227.402-.817-.053-.363.319.14.173.506-.131.331-.608.372-.575.311Z"/>
  <path fill="#68529b" d="M74.842 141.9c-.938.49-2.814.998-6.934 1.099-.147.004-.631.008-.632.007-.183-.097-.285-.31-.467-.408.198-.108.283-.368.481-.477.259-.142.318.106 3.631-.681 3.258-.774 3.34-1.408 3.547-1.548a.947.947 0 0 1 1.106.053c.398.365 1.003 1.108 3.416 2.772 5.464 3.768 10.498 4.602 11.479 4.764.752.124 1.542.213 1.676.228.024.003.054-.008.071.008.23.214.196.24.424.452-.189.085-.265.34-.454.425-.096.043-10.519.746-17.344-6.694Zm-7.981-27.649c-.146-.037-.305.052-.451.014-.076-.019-2.766-1.781-3.035-2.089-.355-.407-.955-3.831-1.014-4.169-.026-.147.123-.272.185-.409.098.113.298.095.396.207.013.015.725 1.318 1.038 1.966.532 1.105.565 1.447.674 1.553.788.761 1.877 2.123 1.926 2.184.08.098.192.178.237.296.053.14-.009.307.044.447Zm-1.525 20.493c-.143.022-.265.122-.407.144-.098.015-2.463-.896-4.165-2.077-1.753-1.217-3.612-3.353-3.948-3.728-.101-.113-.223-.252-.045-.451.095-.108.31-.105.429-.026 3.001 1.992 3.071 1.892 5.875 4.149 1.967 1.584 2.043 1.483 2.116 1.584.084.117.061.289.145.405Zm52.434-45.973c-.115-.116-.32-.111-.435-.228-.036-.036-1.501-3.33-7.612-14.383-3.109-5.624-4.948-8.259-5.934-9.661-.136-.194.003-.212.008-.49.136.09.341.022.478.112.134.089 5.431 6.3 8.964 13.406.375.754 2.22 4.392 4.494 10.334.056.146.16.281.166.436.007.164-.136.311-.129.474Zm-.828 32.719c-2.547-.883-8.259-2.735-10.322-8.575-.237-.67-.422-1.64-.417-1.655.151-.464.417-.611.588-.155.283.754 1.032 3.544 6.505 7.45 1.888 1.348 3.824 2.343 3.882 2.374l-.236.561ZM85.723 5.676c4.255.556 3.496.81 3.496.81-5.815 3.977-11.002 12.255-11.002 12.255-3.005.359-3.786-.526-3.786-.526C78.908 8.72 85.723 5.676 85.723 5.676ZM67.249 24.905c1.319 1.485 2.695 2.01 2.695 2.01-2.09 2.953-6.282 3.472-6.282 3.472-2.152-.668-3.951-3.216-3.951-3.216 5.857 1.497 7.538-2.266 7.538-2.266Zm24.593 53.286-2.259-.913s1.569-12.929 11.691-16.426c0 0-11.052 5.826-9.432 17.339Zm-4.162.287s2.798.254 3.135 1.918c.338 1.664-2.31 7.485-6.2 8.889 0 0 5.815-5.602 4.975-8.898 0 0-.758 2.457-2.978 3.179 0 0 3.789-2.934 1.068-5.088ZM66.711 13.822c-.006-.144-.14-.263-.146-.406 0-.014.854-2.614 2.515-4.843 2.3-3.089 5.853-4.617 5.883-4.616.144.003.268.125.411.127-.063.129-.063.282-.126.41-.041.084-1.059.59-3.386 3.137-3.769 4.123-4.74 6.039-4.747 6.044-.114.086-.289.061-.404.147Zm9.011 124.191c-.025-.141-.179-.238-.204-.379-.012-.066 2.352-7.004-1.073-18.449-1.572-5.254-3.465-8.393-3.468-8.417-.02-.142.107-.279.087-.42.121.078.303.011.423.09.157.102 5.188 7.541 5.938 15.647.125 1.355.586 6.056-1.213 11.4-.036.108-.034.239-.111.322-.098.105-.281.1-.379.206Zm-18.318-11.126c-.948-8.246-.748-12.503.314-20.486.021-.157.037-.36.333-.339.143.011.245.187.281.325.003.013-.017 8.255-.019 8.972-.008 3.298-.237 5.881-.301 11.439-.004.381-.232.034-.608.089Z"/>
  <path fill="#2b2046" d="m35.75 107.166-2.295-.7a1.77 1.77 0 0 1-1.044-.843 1.629 1.629 0 0 1-.113-1.299l3.285-9.776a1.72 1.72 0 0 1 .884-.995 1.864 1.864 0 0 1 1.363-.108l2.295.7c.452.138.827.441 1.045.843.217.401.257.869.113 1.299l-3.285 9.776c-.145.43-.463.788-.884.995a1.867 1.867 0 0 1-1.364.108Zm-7.135-2.026-2.263.789a1.871 1.871 0 0 1-1.367-.055 1.739 1.739 0 0 1-.926-.96l-3.699-9.641a1.63 1.63 0 0 1 .057-1.302c.2-.41.562-.727 1.008-.883l2.263-.788a1.866 1.866 0 0 1 1.367.054c.43.191.763.536.926.96l3.699 9.641c.163.424.142.893-.057 1.303a1.76 1.76 0 0 1-1.008.882Z"/>
  <path fill="#23163a" d="M30.722 104.17a1.87 1.87 0 0 1-1.366-.076 1.736 1.736 0 0 1-.909-.974l-3.536-9.696a1.63 1.63 0 0 1 .079-1.301 1.76 1.76 0 0 1 1.022-.867l2.277-.754a1.867 1.867 0 0 1 1.365.076c.427.196.754.547.91.974l3.536 9.696a1.63 1.63 0 0 1-.079 1.301 1.763 1.763 0 0 1-1.022.867l-2.277.754Z"/>
  <path fill="#23163a" d="m35.633 105.44-2.406-.136a1.82 1.82 0 0 1-1.23-.57 1.655 1.655 0 0 1-.448-1.232l.639-10.247c.028-.451.243-.873.598-1.173a1.84 1.84 0 0 1 1.293-.426l2.406.136c.473.027.915.232 1.23.57.315.337.476.781.448 1.232l-.639 10.247a1.67 1.67 0 0 1-.598 1.172 1.84 1.84 0 0 1-1.293.427Zm-7.439-.277-1.988 1.299c-.39.255-.872.352-1.338.27a1.797 1.797 0 0 1-1.147-.712l-6.092-8.465a1.641 1.641 0 0 1-.283-1.276c.087-.444.356-.837.747-1.093l1.987-1.299a1.861 1.861 0 0 1 1.339-.269 1.79 1.79 0 0 1 1.146.711l6.092 8.466c.268.372.37.831.283 1.275a1.698 1.698 0 0 1-.746 1.093Z"/>
  <path fill="#988ea9" d="M64.765 37.159c.263.01.468.205.458.436-.01.23-.231.409-.493.399-.263-.01-.468-.205-.458-.436.01-.23.231-.409.493-.399Z"/>
  <path fill="#9e99a9" d="M44.5 82.4c.784-.535 1.287-1.372 1.486-1.936l.742.493c-.456 1.022-1.109 1.605-1.554 1.906a42.08 42.08 0 0 1-.674-.463Zm51.122 35.47c1.633-.946 2.357-3.179 2.092-3.39l1.062.692c-.595 2.042-1.793 2.955-2.334 3.276l-.82-.578Zm1.588 1.115c1.593-.834 2.371-2.889 2.261-3.36l.999.652c-.646 2.154-1.964 3.031-2.428 3.281-.226-.153-.52-.356-.832-.573ZM45.946 83.393c.779-.585 1.249-1.47 1.405-2.022l.753.501c-.415 1.04-1.041 1.652-1.486 1.979a15.582 15.582 0 0 1-.672-.458Zm19.95 20.511c.098 1.173-.176 2.372-.699 3.586-1.676.106-3.233-.107-4.61-.812-.08-1.268.115-2.472.698-3.587l4.611.813Zm-.772.664-3.376-.595c-.413.74-.542 1.299-.468 2.149 1.014.487 2.154.648 3.377.595.367-.808.554-1.362.467-2.149Zm-21.453-26.65c.458.017.815.379.797.807-.018.428-.405.761-.863.743-.459-.018-.816-.379-.798-.807.019-.428.405-.761.864-.743Z"/>
  <path fill="#3a2a60" d="m36.101 104.731-2.399-.216a1.817 1.817 0 0 1-1.209-.61 1.65 1.65 0 0 1-.402-1.247l1.013-10.219c.045-.45.275-.864.64-1.152a1.853 1.853 0 0 1 1.308-.384l2.399.216c.472.043.907.262 1.21.611.302.348.446.796.402 1.246l-1.014 10.219c-.044.45-.275.864-.64 1.152a1.851 1.851 0 0 1-1.308.384Zm-7.424-.524-2.034 1.232c-.4.242-.885.323-1.348.225a1.793 1.793 0 0 1-1.12-.749l-5.778-8.663a1.637 1.637 0 0 1-.236-1.284c.103-.441.385-.825.785-1.067l2.034-1.232a1.862 1.862 0 0 1 1.348-.226c.463.099.866.368 1.12.749l5.778 8.663c.255.382.34.843.237 1.284a1.71 1.71 0 0 1-.786 1.068Z"/>
  <path fill="#4e2460" d="M29.908 103.488c-.463.1-.948.02-1.348-.221a1.709 1.709 0 0 1-.789-1.066l-2.37-10.013a1.64 1.64 0 0 1 .233-1.285 1.791 1.791 0 0 1 1.118-.752l2.351-.505a1.86 1.86 0 0 1 1.348.222c.401.241.685.624.789 1.065l2.369 10.014c.105.44.021.903-.232 1.284a1.79 1.79 0 0 1-1.118.752l-2.351.505Z"/>
  <path fill="#a08025" d="m37.308 101.081-4.073-.367a.5.5 0 0 1-.466-.536l.514-5.181a.51.51 0 0 1 .563-.443l4.073.366a.5.5 0 0 1 .465.537l-.514 5.18a.51.51 0 0 1-.562.444Zm.713-3.044v-.003a1.66 1.66 0 0 0-.383-1.221 1.81 1.81 0 0 0-.537-.429l.073-.076c.19.009.386-.07.495-.217a.529.529 0 0 0-.123-.735.549.549 0 0 0-.202-.082.517.517 0 0 0-.147-.155.592.592 0 0 0-.769.131.529.529 0 0 0-.053.517c-.073.134-.15.266-.23.396-.044-.046-.117-.065-.225.02l-.082.013a1.296 1.296 0 0 0-.701-.035 9.48 9.48 0 0 1-.183-.522.525.525 0 0 0 .051-.517.586.586 0 0 0-.73-.266.54.54 0 0 0-.175.126.558.558 0 0 0-.214.045.535.535 0 0 0-.266.7.575.575 0 0 0 .444.301c.116.177.227.357.332.541a.568.568 0 0 0-.039.078l-.121.04c-.148.049-.197.116-.244.179a.885.885 0 0 0-.116.207 1.833 1.833 0 0 0-.077.238l-.296.13-.371.162.333.225.266.18c.004.082.013.163.029.243a.89.89 0 0 0 .072.224c.035.07.07.145.205.219l.109.06a.78.78 0 0 0 .022.083c-.138.16-.281.316-.429.467a.59.59 0 0 0-.495.217.53.53 0 0 0 .123.736.54.54 0 0 0 .202.081.52.52 0 0 0 .147.156.594.594 0 0 0 .77-.131.528.528 0 0 0 .052-.517c.089-.163.183-.323.282-.48.207.084.449.131.696.091.056.021.114.04.173.057.023.022.039.024.055.013l.066.017c.053.142.103.285.149.43a.53.53 0 0 0-.051.517c.12.248.464.382.73.266a.537.537 0 0 0 .175-.126.53.53 0 0 0 .527-.453.52.52 0 0 0-.046-.291.58.58 0 0 0-.444-.302l-.057-.088c.224-.069.432-.18.611-.325.351-.288.572-.695.617-1.135Zm-1.106 2.099a.252.252 0 0 1-.15.197.274.274 0 0 1-.243-.015.252.252 0 0 1-.147.185.275.275 0 0 1-.353-.133.251.251 0 0 1 .111-.333 9.632 9.632 0 0 0-.226-.658c.084-.05.168-.101.25-.154.124.214.256.423.397.628a.274.274 0 0 1 .337.138.26.26 0 0 1 .024.145Zm-.449-2.185c-.047.424-.21.892-.586 1.35l-.203-.282c.094-.034.136-.109.146-.21a1.43 1.43 0 0 0-.036-.387c-.039-.207-.08-.385-.181-.467l.035-.346c.115-.064.19-.23.269-.428.055-.138.102-.267.112-.373.009-.103-.018-.186-.108-.235l.181-.171.029.008.016.005.016.007.036.014c.095.189.335.745.282 1.431l-.008.084Zm-1.731-1.682a.771.771 0 0 0-.233.161 9.707 9.707 0 0 0-.43-.685.275.275 0 0 1-.338-.138.251.251 0 0 1 .126-.341.27.27 0 0 1 .243.014.245.245 0 0 1 .147-.184.275.275 0 0 1 .353.131.253.253 0 0 1-.112.335c.072.238.153.474.244.707Zm-.291 2.93a9.43 9.43 0 0 0-.378.652.25.25 0 0 1 .043.348.277.277 0 0 1-.372.066.245.245 0 0 1-.109-.208.27.27 0 0 1-.241-.029.248.248 0 0 1-.056-.357.279.279 0 0 1 .359-.075c.194-.192.38-.391.557-.597a.75.75 0 0 0 .197.2Zm1.088.107c-.029-.006-.059-.012-.088-.02l-.011-.003a1.543 1.543 0 0 1-.081-.026l-.021-.009a1.006 1.006 0 0 1-.154-.077c-.013.008-.027.014-.04.02l-.006.002a.519.519 0 0 1-.38-.028.788.788 0 0 1-.159-.093l-.031-.025a.66.66 0 0 1-.195-.274l-.006-.018a.575.575 0 0 1-.026-.105l-.003-.017v-.002l-.197-.134c-.032-.022-.061-.079-.08-.165a1.237 1.237 0 0 1-.029-.209 2.793 2.793 0 0 1 .01-.433l.001-.007c.01-.101.025-.194.041-.278l.004-.021c.009-.043.019-.085.03-.127l.013-.042.021-.067c.01-.031.022-.061.035-.091.037-.081.076-.132.111-.148l.218-.096.02-.053.001-.002.02-.041.011-.022a.668.668 0 0 1 .348-.299c.161-.064.32-.08.46-.019.029.013.056.03.08.05.033-.012.067-.023.101-.032l.063-.015.033-.007c.026-.004.053-.008.079-.01h.002l-.173.163c-.236.024-.495.13-.573.326-.105.263.144.597.373.728l-.036.354c-.249.087-.56.371-.509.647.038.21.278.362.508.425l.215.3Zm-.316-1.561v-.002c-.069-.174-.247-.325-.396-.339-.149-.013-.213.116-.143.29v.002l-.001.002c-.102.158-.064.297.085.311.149.013.352-.104.454-.262l.001-.002Zm.294 1.189c-.004.034-.04.059-.081.055l-.133-.012c-.042-.004-.073-.034-.069-.068.003-.034.039-.058.081-.055l.133.012c.041.004.072.034.069.068Zm1.696-.905a1.776 1.776 0 0 1-.066.321 1.93 1.93 0 0 1-.374.685c-.128.151-.225.219-.235.21-.014-.012.06-.101.165-.259.102-.156.236-.387.313-.67a2.148 2.148 0 0 0 .057-.796 2.694 2.694 0 0 0-.137-.584c-.061-.147-.091-.238-.078-.244.014-.006.069.073.152.213a2.017 2.017 0 0 1 .203 1.124Zm.14-2.239-.002.018a.278.278 0 0 1-.408.195 9.517 9.517 0 0 0-.457.486 1.18 1.18 0 0 0-.253-.17 9.06 9.06 0 0 0 .333-.572.248.248 0 0 1-.043-.347.278.278 0 0 1 .373-.067.247.247 0 0 1 .108.208.27.27 0 0 1 .241.029.244.244 0 0 1 .108.22Zm-1.071-1.912c-.016.161-.152.282-.301.269-.15-.014-.259-.157-.243-.318.016-.161.152-.282.301-.268.149.013.258.156.243.317Zm-1.509-.881c-.016.161-.151.282-.301.269-.149-.014-.258-.157-.242-.318.016-.161.152-.282.301-.269.149.014.258.158.242.318Zm3.098.28c-.016.161-.152.282-.301.268-.149-.013-.259-.156-.243-.317.016-.161.152-.282.301-.268.149.013.259.156.243.317Zm-.939 9.463c-.016.161-.151.282-.301.268-.149-.013-.258-.156-.243-.317.016-.161.152-.282.302-.268.149.013.258.156.242.317Zm-.499-10.392c-.016.161-.152.282-.301.269-.149-.014-.259-.157-.243-.318.016-.16.152-.282.302-.268.149.013.258.157.242.317Zm-.938 9.463c-.016.161-.152.282-.301.269-.149-.014-.259-.157-.243-.318.016-.16.152-.282.301-.268.149.013.259.157.243.317Zm-.152 1.53c-.016.161-.152.282-.301.268-.149-.013-.259-.156-.243-.317.016-.161.152-.282.301-.269.149.014.259.157.243.318Zm-1.508-.881c-.016.161-.152.282-.301.269-.149-.013-.259-.157-.243-.318.016-.16.152-.282.301-.268.149.013.259.157.243.317Zm-5.604-2.446a.517.517 0 0 1-.617-.372l-1.201-5.076a.492.492 0 0 1 .39-.588l3.991-.858a.518.518 0 0 1 .617.372l1.201 5.076a.491.491 0 0 1-.39.588l-3.991.858Zm-1.113-2.932c.102.43.376.807.762 1.051.198.122.419.206.65.248l-.044.094a.565.565 0 0 0-.4.353.517.517 0 0 0 .357.662.558.558 0 0 0 .219.019c.055.046.12.081.19.103.279.082.603-.092.688-.353a.527.527 0 0 0-.119-.506c.027-.149.057-.298.091-.445l.063-.024c.017.008.033.004.053-.021.056-.023.111-.049.164-.077a1.3 1.3 0 0 0 .678-.174c.119.144.233.291.343.441a.534.534 0 0 0 .121.507c.194.201.566.225.781.036a.503.503 0 0 0 .126-.171.543.543 0 0 0 .189-.106.53.53 0 0 0 .024-.744.592.592 0 0 0-.52-.155c-.167-.133-.33-.27-.488-.412a.598.598 0 0 0 .01-.085l.1-.073c.125-.09.149-.168.174-.241a.837.837 0 0 0 .043-.232 1.657 1.657 0 0 0-.005-.244l.241-.211.299-.264-.389-.115-.311-.093a1.746 1.746 0 0 0-.108-.227.897.897 0 0 0-.143-.192c-.055-.056-.113-.116-.266-.147l-.125-.025a.715.715 0 0 0-.049-.073c.079-.195.165-.387.258-.576a.57.57 0 0 0 .4-.354.543.543 0 0 0-.358-.662.572.572 0 0 0-.218-.018.544.544 0 0 0-.191-.103c-.278-.083-.603.091-.688.352a.53.53 0 0 0 .119.507c-.032.18-.069.36-.112.539a1.295 1.295 0 0 0-.69.12l-.083-.003c-.119-.071-.188-.044-.226.007a8.828 8.828 0 0 1-.281-.364.534.534 0 0 0-.121-.507c-.195-.201-.566-.225-.781-.036a.514.514 0 0 0-.125.171.54.54 0 0 0-.189.105.53.53 0 0 0-.025.745.6.6 0 0 0 .521.155l.082.067c-.19.132-.351.299-.475.49a1.648 1.648 0 0 0-.217 1.258l.001.003Zm1.377 1.947a.25.25 0 0 1 .004-.146.271.271 0 0 1 .316-.178c.112-.22.215-.444.31-.671.089.042.178.083.269.122-.054.225-.1.452-.137.68a.254.254 0 0 1 .154.318.271.271 0 0 1-.332.174.256.256 0 0 1-.171-.166.266.266 0 0 1-.239.044.254.254 0 0 1-.174-.177Zm1.233-1.362c-.008-.033.019-.067.059-.076l.131-.028c.04-.008.08.011.087.044.008.034-.018.068-.059.077l-.13.028c-.041.008-.08-.012-.088-.045Zm-1.804-.693a1.988 1.988 0 0 1 .052-1.139c.064-.149.108-.234.122-.229.014.004-.003.097-.045.251-.041.196-.06.396-.058.597a2.18 2.18 0 0 0 .163.781c.114.273.278.485.401.628.124.144.21.223.198.236-.009.011-.115-.046-.262-.18a1.943 1.943 0 0 1-.571-.945Zm2.217-2.044c.059-.242.108-.486.147-.732a.254.254 0 0 1-.155-.318.271.271 0 0 1 .332-.173.255.255 0 0 1 .171.165.273.273 0 0 1 .239-.044.254.254 0 0 1 .17.323.271.271 0 0 1-.316.178c-.123.24-.234.484-.336.732a.787.787 0 0 0-.252-.131Zm-2.654-.159a.244.244 0 0 1 .077-.232.272.272 0 0 1 .236-.057.244.244 0 0 1 .08-.22.28.28 0 0 1 .378.021.249.249 0 0 1 .004.35c.129.18.265.356.406.527a1.2 1.2 0 0 0-.227.199c-.168-.148-.341-.29-.519-.427a.279.279 0 0 1-.431-.144l-.004-.017Zm2.268 3.267.174-.323c.219-.091.437-.27.447-.484.014-.279-.332-.523-.592-.58l-.082-.346c.209-.158.412-.52.273-.767-.104-.186-.375-.259-.613-.254l-.192-.141h.081l.034.003.064.007c.035.005.07.012.105.02a.315.315 0 0 1 .072-.059c.131-.078.291-.082.458-.038a.73.73 0 0 1 .386.255l.014.02.025.039.002.002.026.05.229.069c.038.011.083.057.13.133.017.028.033.057.048.086l.029.064.019.04c.016.04.032.081.046.122l.007.02c.028.082.054.173.078.272l.001.006a2.803 2.803 0 0 1 .068.428c.006.07.006.141 0 .211-.008.088-.029.148-.057.174l-.178.156v.019a.661.661 0 0 1-.012.108l-.004.018a.645.645 0 0 1-.157.296l-.027.029a.839.839 0 0 1-.146.111.517.517 0 0 1-.373.074l-.006-.001c-.014-.005-.029-.009-.043-.016a.982.982 0 0 1-.142.096l-.019.011a1.078 1.078 0 0 1-.077.036l-.011.004a.66.66 0 0 1-.085.03Zm.105-1.586.002.001c.122.145.339.237.485.205.147-.031.165-.174.042-.318l-.001-.002.001-.002c.045-.181-.036-.301-.182-.27-.145.031-.301.203-.347.384v.002Zm-1.211.356-.02-.082a2.817 2.817 0 0 1 .089-1.455l.033-.018.016-.008.015-.007.027-.012.202.148c-.082.06-.098.145-.075.246.024.104.088.226.161.357.105.186.202.342.324.391l.08.339c-.088.094-.105.275-.116.486-.008.148-.011.284.015.388.024.099.076.168.173.19l-.163.305a2.574 2.574 0 0 1-.761-1.268Zm2.171.993a.757.757 0 0 0 .169-.222c.203.182.414.357.633.524a.28.28 0 0 1 .366.031.249.249 0 0 1-.009.361.267.267 0 0 1-.235.058.243.243 0 0 1-.08.22.278.278 0 0 1-.378-.021.249.249 0 0 1-.003-.351 9.577 9.577 0 0 0-.463-.6Zm-2.525-5.056c-.038-.158.052-.313.198-.345.146-.031.297.073.334.23.038.158-.052.313-.198.345-.146.031-.297-.073-.334-.23Zm1.378-1.057c-.037-.157.052-.313.198-.344.146-.032.297.072.335.23.037.157-.053.313-.199.344-.146.031-.297-.073-.334-.23Zm-3.035.653c-.038-.157.052-.313.198-.344.146-.031.297.072.335.23.037.157-.053.313-.199.344-.146.031-.297-.072-.334-.23Zm2.194 9.273c-.038-.158.052-.313.198-.345.146-.031.297.073.335.23.037.158-.053.313-.199.344-.146.032-.297-.072-.334-.229Zm-.892-10.368c-.038-.157.052-.313.198-.345.146-.031.297.073.335.23.037.158-.053.313-.199.345-.146.031-.297-.073-.334-.23Zm2.194 9.272c-.037-.157.052-.313.198-.344.147-.032.297.072.335.23.037.157-.053.312-.199.344-.146.031-.297-.073-.334-.23Zm.354 1.499c-.037-.158.053-.313.199-.345.146-.031.297.073.334.23.038.158-.052.313-.198.345-.146.031-.297-.073-.335-.23Zm1.379-1.056c-.037-.158.052-.313.198-.345.146-.031.297.073.335.23.037.158-.053.313-.199.345-.146.031-.297-.073-.334-.23Zm-4.58-.342-3.453 2.091a.532.532 0 0 1-.713-.151l-2.929-4.391a.478.478 0 0 1 .159-.679l3.452-2.092a.532.532 0 0 1 .713.151l2.929 4.392a.479.479 0 0 1-.158.679Zm-1.397-2.82-.001-.003a1.8 1.8 0 0 0-1.089-.74 1.895 1.895 0 0 0-.7-.025l.009-.103a.544.544 0 0 0 .251-.461c-.012-.273-.279-.52-.571-.508a.552.552 0 0 0-.212.053.564.564 0 0 0-.216-.036c-.292.012-.535.28-.523.553a.55.55 0 0 0 .292.439c.028.148.052.297.072.447-.064-.01-.134.017-.165.148l-.056.058a1.252 1.252 0 0 0-.576.381 9.953 9.953 0 0 1-.48-.304.546.546 0 0 0-.293-.438c-.254-.127-.612-.03-.747.217a.48.48 0 0 0-.058.202.524.524 0 0 0-.14.16c-.135.247-.014.582.24.708a.606.606 0 0 0 .545-.021c.206.071.41.149.611.232a.614.614 0 0 0 .019.085l-.07.102c-.084.125-.08.207-.077.284a.829.829 0 0 0 .042.231c.025.08.056.158.093.233l-.151.276-.189.344.408-.016.326-.013c.055.062.115.12.179.174a.89.89 0 0 0 .202.135c.072.035.147.074.302.053l.125-.016a.727.727 0 0 0 .071.053 9.868 9.868 0 0 1-.038.62.543.543 0 0 0-.252.461c.013.273.279.52.571.508a.552.552 0 0 0 .212-.053.572.572 0 0 0 .217.036c.292-.012.536-.28.523-.553a.548.548 0 0 0-.292-.439 9.925 9.925 0 0 1-.086-.544c.218-.055.439-.159.608-.335.059-.016.116-.035.173-.056.033.004.047-.004.053-.021l.062-.026c.134.081.265.165.395.252a.546.546 0 0 0 .293.438c.254.127.612.031.747-.216a.495.495 0 0 0 .058-.202.499.499 0 0 0 .124-.666.563.563 0 0 0-.224-.203.606.606 0 0 0-.545.021l-.101-.036c.132-.185.225-.394.273-.614a1.645 1.645 0 0 0-.244-1.256Zm-1.979-1.381.01.016a.26.26 0 0 1-.197.392c-.024.217-.04.434-.048.651a1.28 1.28 0 0 0-.309.014 8.864 8.864 0 0 0-.105-.646.265.265 0 0 1-.258-.249.262.262 0 0 1 .252-.271.27.27 0 0 1 .219.101.266.266 0 0 1 .436-.008Zm.574 3.557c.019.029.006.07-.029.091l-.113.068c-.035.022-.079.015-.098-.013-.019-.029-.006-.069.029-.091l.113-.068c.035-.021.079-.016.098.013Zm.757-1.707a1.877 1.877 0 0 1 .3 1.052c-.004.194-.036.305-.05.304-.019-.002-.017-.115-.037-.301a2.318 2.318 0 0 0-.184-.713 2.046 2.046 0 0 0-.148-.272 2.278 2.278 0 0 0-.319-.389 2.904 2.904 0 0 0-.485-.382c-.143-.08-.225-.134-.218-.147.007-.013.101.017.257.079a2.184 2.184 0 0 1 .884.769Zm-.635.372c.236.362.409.826.406 1.409l-.342-.105c.053-.081.038-.165-.019-.251a1.494 1.494 0 0 0-.278-.284c-.164-.142-.311-.257-.443-.264l-.196-.293c.05-.118.002-.293-.063-.495a1.437 1.437 0 0 0-.152-.36c-.059-.087-.133-.136-.236-.123l.033-.241.028-.011.016-.004.017-.005.037-.01c.197.094.744.393 1.144.966l.048.071Zm-2.45-.317a.748.748 0 0 0-.08.264 10.748 10.748 0 0 0-.781-.29.278.278 0 0 1-.356.089c-.132-.066-.187-.221-.12-.343a.263.263 0 0 1 .201-.131.237.237 0 0 1-.002-.232c.066-.122.231-.168.363-.102.128.063.184.209.128.329.21.147.426.286.647.416Zm4.211 1.78c.047.075.05.167.009.242a.263.263 0 0 1-.202.131c.042.073.043.16.003.232-.067.122-.231.168-.364.102-.126-.064-.183-.208-.127-.329a11.414 11.414 0 0 0-.602-.387c.034-.088.067-.178.098-.268.236.097.475.185.718.264a.278.278 0 0 1 .355-.088.268.268 0 0 1 .112.101Zm-2.554.704c.03.247.071.492.121.736a.264.264 0 0 1 .258.25.262.262 0 0 1-.251.27.268.268 0 0 1-.22-.101.264.264 0 0 1-.483-.131.26.26 0 0 1 .234-.269c.031-.265.049-.531.057-.797.091.03.187.045.284.042Zm.928-.552c-.027.013-.054.026-.082.036l-.012.004c-.026.011-.053.019-.08.027l-.022.005a.986.986 0 0 1-.171.029.49.49 0 0 1-.019.04l-.003.005a.442.442 0 0 1-.025.035.51.51 0 0 1-.294.165.888.888 0 0 1-.185.02l-.041-.002a.722.722 0 0 1-.274-.071.817.817 0 0 1-.057-.032l-.016-.01a.736.736 0 0 1-.088-.068l-.013-.012-.001-.001-.242.009c-.04.001-.099-.027-.17-.083a1.469 1.469 0 0 1-.244-.249 3.152 3.152 0 0 1-.183-.247l-.004-.006a3.161 3.161 0 0 1-.147-.244l-.01-.019a2.115 2.115 0 0 1-.058-.117l-.017-.041-.027-.065a.837.837 0 0 1-.03-.093c-.024-.085-.026-.148-.008-.182l.111-.203-.019-.053-.001-.003-.011-.044-.004-.023a.62.62 0 0 1 .082-.441c.085-.144.201-.249.351-.283.031-.007.063-.009.095-.007a.99.99 0 0 1 .059-.085l.04-.048.022-.025a.714.714 0 0 1 .056-.054l.001-.001-.031.23c-.171.157-.308.391-.243.592.086.269.498.387.763.357l.2.3c-.141.215-.204.621.014.809.166.143.453.123.675.039l.363.11Zm-1.254-1.048-.002-.001c-.167-.097-.404-.113-.53-.036-.126.077-.094.216.073.313l.002.001v.002c.021.185.14.273.266.196.127-.076.212-.288.191-.472v-.003Zm-1.654-3.672c.091.136.062.311-.065.388-.126.077-.305.028-.396-.109-.091-.136-.062-.311.065-.388.126-.076.305-.027.396.109Zm-1.758.186c.091.136.061.312-.065.388-.126.077-.305.028-.396-.109-.091-.136-.062-.311.065-.388.126-.076.305-.027.396.109Zm2.626-1.59c.091.136.062.311-.065.388-.126.077-.305.028-.396-.109-.091-.136-.061-.311.065-.387.127-.077.305-.028.396.108Zm5.351 8.022c.091.136.062.311-.065.388-.126.076-.305.027-.396-.109-.091-.136-.062-.311.065-.388.126-.076.305-.027.396.109Zm-7.084-7.914c.091.136.062.311-.065.387-.126.077-.305.028-.396-.108-.091-.137-.062-.312.065-.388.126-.077.305-.028.396.109Zm5.351 8.021c.09.136.061.311-.065.388-.127.076-.305.027-.396-.109-.091-.136-.062-.311.064-.388.127-.076.306-.027.397.109Zm.865 1.297c.09.136.061.311-.065.388-.127.076-.306.027-.396-.109-.091-.136-.062-.312.064-.388.127-.077.306-.028.397.109Zm-1.758.186c.091.136.061.311-.065.388-.126.077-.305.027-.396-.109-.091-.136-.062-.311.065-.388.126-.076.305-.027.396.109Z"/>
  <path fill="#68529b" d="m62.827 154.686-.359 1.891c-1.655.083-3.126-.189-4.442-.763l.36-1.891a8.567 8.567 0 0 1 4.441.763Zm-16.981-14.773-.441 1.232c-1.33-.172-2.484-.559-3.489-1.129l.441-1.233a8.31 8.31 0 0 1 3.489 1.13Z"/>
  <path fill="#3a2a60" d="M47.547 125.262c-.099.068-.114.221-.213.289-.026.018-1.673.296-6.141 1.836-3.987 1.373-6.132 1.948-9.642 3.184-.163.057-.147-.046-.377-.117.093-.094.082-.262.175-.355.009-.009 3.854-1.967 7.175-3.125.652-.227 4.236-1.477 8.416-1.894.105-.011.214-.06.316-.03.115.034.176.177.291.212Zm-5.021-25.744 1.766 7.78a3.891 3.891 0 0 1-3.023 4.692l-17.204 3.533c-2.156.443-4.303-.941-4.79-3.088l-1.767-7.78a3.89 3.89 0 0 1 3.023-4.692l17.204-3.533c2.157-.443 4.303.941 4.791 3.088Z"/>
  <path fill="#301e4f" d="m44.431 107.91.497 2.185c.137.603-.267 1.199-.901 1.329l-22.72 4.665c-.634.13-1.26-.253-1.397-.856l-.497-2.186c-.136-.603.267-1.198.901-1.329 6.02.339 13.487.172 22.72-4.665.634-.13 1.26.254 1.397.857Z"/>
  <path fill="#23163a" d="M19.485 102.708v1.927h-.405v-1.927h.405Zm.403 4.41.193 1.918-.403.037-.193-1.918.403-.037Zm.71 4.238.592 1.843-.388.112-.591-1.842.387-.113Zm20.251-12.65.389-.11.576 1.847-.388.11-.577-1.847Zm.933 4.337.398-.074.388 1.891-.397.074-.389-1.891Zm.587 4.255.406.003-.016 1.926-.405-.003.015-1.926Z"/>
</svg>
